<svg width="27" height="24" viewBox="0 0 27 24" fill="none" xmlns="http://www.w3.org/2000/svg">
<path d="M0.945578 4.74832H25.5306C26.0529 4.74832 26.4762 4.32786 26.4762 3.80913V1.46116C26.4762 0.942436 26.0529 0.521973 25.5306 0.521973H0.945578C0.423324 0.521973 0 0.942436 0 1.46116V3.80913C0 4.32786 0.423324 4.74832 0.945578 4.74832ZM0.945578 14.1402H25.5306C26.0529 14.1402 26.4762 13.7198 26.4762 13.201V10.8531C26.4762 10.3343 26.0529 9.91386 25.5306 9.91386H0.945578C0.423324 9.91386 0 10.3343 0 10.8531V13.201C0 13.7198 0.423324 14.1402 0.945578 14.1402ZM0.945578 23.5321H25.5306C26.0529 23.5321 26.4762 23.1116 26.4762 22.5929V20.2449C26.4762 19.7262 26.0529 19.3058 25.5306 19.3058H0.945578C0.423324 19.3058 0 19.7262 0 20.2449V22.5929C0 23.1116 0.423324 23.5321 0.945578 23.5321Z" fill="#3851D4"/>
</svg>
