<svg width="49" height="49" viewBox="0 0 49 49" fill="none" xmlns="http://www.w3.org/2000/svg">
<path d="M24.5 3.0625C12.5562 3.0625 3.0625 12.5562 3.0625 24.5C3.0625 36.4437 12.5562 45.9375 24.5 45.9375C36.4437 45.9375 45.9375 36.4437 45.9375 24.5C45.9375 12.5562 36.4437 3.0625 24.5 3.0625ZM24.5 42.875C14.3938 42.875 6.125 34.6063 6.125 24.5C6.125 14.3938 14.3938 6.125 24.5 6.125C34.6063 6.125 42.875 14.3938 42.875 24.5C42.875 34.6063 34.6063 42.875 24.5 42.875Z" fill="#DBDADA"/>
<path d="M32.7687 35.2188L24.5 26.95L16.2313 35.2188L13.7812 32.7687L22.05 24.5L13.7812 16.2313L16.2313 13.7812L24.5 22.05L32.7687 13.7812L35.2188 16.2313L26.95 24.5L35.2188 32.7687L32.7687 35.2188Z" fill="#DBDADA"/>
</svg>
