<svg width="206" height="80" viewBox="0 0 206 80" fill="none" xmlns="http://www.w3.org/2000/svg">
<g filter="url(#filter0_d)">
<path d="M91.91 36.04V40.57L89.3 43H83.66L80.93 40.75V27.64L83.66 24.97H89.3L91.91 27.58V31.87H87.71V29.17H85.16V38.77H87.71V36.04H91.91ZM104.654 27.58V40.57L102.044 43H96.4041L93.6741 40.75V27.64L96.4041 24.97H102.044L104.654 27.58ZM100.454 29.2H97.9041V38.8H100.454V29.2ZM118.866 27.55V40.54L116.256 43H106.596V38.8H107.886V29.14H106.596V24.94H116.256L118.866 27.55ZM114.636 29.14H112.086V38.74H114.636V29.14ZM132.666 24.97V30.49H128.466V29.17H125.916V31.87H130.476V36.1C129.896 36.1 129.436 36.1 129.096 36.1C128.776 36.1 128.466 36.1 128.166 36.1C127.886 36.08 127.576 36.07 127.236 36.07C126.916 36.07 126.476 36.07 125.916 36.07V38.77H128.466V37.48H132.666V43H120.336V38.77H121.716V29.17H120.336V24.97H132.666ZM136.95 24.97H142.56L145.17 27.58V30.52H140.97V29.2H138.42V31.9H142.35L145.17 34.78V40.54L142.56 43H136.95L134.22 40.75V37.48H138.42V38.8H140.97V36.1L137.7 36.07L134.22 33.22V27.61L136.95 24.97ZM153.955 43H147.055V38.8H148.405V29.17H147.055V24.97H159.385V30.49H155.185V29.17H152.635V31.87H157.195V36.1C156.615 36.1 156.155 36.1 155.815 36.1C155.495 36.1 155.185 36.1 154.885 36.1C154.605 36.08 154.295 36.07 153.955 36.07C153.635 36.07 153.195 36.07 152.635 36.07V38.8H153.955V43ZM171.715 27.58V40.57L169.105 43H163.465L160.735 40.75V27.64L163.465 24.97H169.105L171.715 27.58ZM167.515 29.2H164.965V38.8H167.515V29.2ZM179.237 29.2V31.9H181.757V29.2H179.237ZM179.237 36.1V43H173.657V38.8H175.007V29.2H173.657V24.97H182.747L185.987 27.46V31.93L183.467 34.06L185.987 36.1V38.8L187.397 38.83V43H181.757V36.1H179.237ZM201.044 27.55V40.54L198.434 43H188.774V38.8H190.064V29.14H188.774V24.94H198.434L201.044 27.55ZM196.814 29.14H194.264V38.74H196.814V29.14Z" fill="url(#paint0_linear)"/>
</g>
<g filter="url(#filter1_d)">
<circle cx="42.2052" cy="33.3599" r="30" fill="#5870F2"/>
</g>
<path d="M51.7057 23.9682L51.7058 23.9681C48.3087 18.9261 46.5539 13.9049 34.7979 27.5842C33.3587 29.2589 30.8598 27.9959 29.4918 27.1096C30.3828 28.1177 32.4182 30.5008 33.9581 31.4588C35.498 32.4168 36.813 31.2455 37.6027 30.4809C47.4779 20.9188 47.626 19.755 51.7057 23.9682Z" fill="white"/>
<path d="M25.6839 49.1656L25.6838 49.1656C20.7538 45.608 15.7918 43.6924 29.8426 32.3831C31.5628 30.9985 30.381 28.4603 29.5392 27.0644C30.518 27.9874 32.8343 30.0985 33.7422 31.6685C34.6501 33.2384 33.4372 34.515 32.6474 35.2797C22.7723 44.8417 21.6042 44.9523 25.6839 49.1656Z" fill="white"/>
<path d="M58.1994 16.3691L58.1995 16.369C63.1295 19.9267 68.0915 21.8423 54.0407 33.1516C52.3205 34.5362 53.5023 37.0744 54.3441 38.4703C53.3653 37.5473 51.049 35.4362 50.1411 33.8662C49.2332 32.2962 50.4461 31.0197 51.2359 30.255C61.111 20.6929 62.2791 20.5824 58.1994 16.3691Z" fill="white"/>
<path d="M32.1767 41.5664L32.1766 41.5665C35.5736 46.6086 37.3284 51.6297 49.0844 37.9504C50.5237 36.2757 53.0225 37.5387 54.3906 38.425C53.4995 37.417 51.4641 35.0339 49.9242 34.0759C48.3843 33.1179 47.0694 34.2891 46.2796 35.0538C36.4045 44.6158 36.2564 45.7797 32.1767 41.5664Z" fill="white"/>
<defs>
<filter id="filter0_d" x="80.4334" y="24.9399" width="121.107" height="19.0532" filterUnits="userSpaceOnUse" color-interpolation-filters="sRGB">
<feFlood flood-opacity="0" result="BackgroundImageFix"/>
<feColorMatrix in="SourceAlpha" type="matrix" values="0 0 0 0 0 0 0 0 0 0 0 0 0 0 0 0 0 0 127 0"/>
<feOffset dy="0.496615"/>
<feGaussianBlur stdDeviation="0.248308"/>
<feColorMatrix type="matrix" values="0 0 0 0 0 0 0 0 0 0 0 0 0 0 0 0 0 0 0.25 0"/>
<feBlend mode="normal" in2="BackgroundImageFix" result="effect1_dropShadow"/>
<feBlend mode="normal" in="SourceGraphic" in2="effect1_dropShadow" result="shape"/>
</filter>
<filter id="filter1_d" x="11.7086" y="3.35986" width="60.9932" height="60.9932" filterUnits="userSpaceOnUse" color-interpolation-filters="sRGB">
<feFlood flood-opacity="0" result="BackgroundImageFix"/>
<feColorMatrix in="SourceAlpha" type="matrix" values="0 0 0 0 0 0 0 0 0 0 0 0 0 0 0 0 0 0 127 0"/>
<feOffset dy="0.496615"/>
<feGaussianBlur stdDeviation="0.248308"/>
<feColorMatrix type="matrix" values="0 0 0 0 0 0 0 0 0 0 0 0 0 0 0 0 0 0 0.25 0"/>
<feBlend mode="normal" in2="BackgroundImageFix" result="effect1_dropShadow"/>
<feBlend mode="normal" in="SourceGraphic" in2="effect1_dropShadow" result="shape"/>
</filter>
<linearGradient id="paint0_linear" x1="143" y1="28" x2="143" y2="43" gradientUnits="userSpaceOnUse">
<stop stop-color="#5870F2"/>
<stop offset="0.9999" stop-color="#001CB4"/>
<stop offset="1" stop-color="#5870F2" stop-opacity="0"/>
</linearGradient>
</defs>
</svg>
