<svg width="28" height="28" viewBox="0 0 28 28" fill="none" xmlns="http://www.w3.org/2000/svg">
<circle opacity="0.2" cx="14" cy="14" r="13.5" stroke="white"/>
<path d="M20.2852 10.7195C20.134 10.1572 19.6906 9.71395 19.1284 9.56255C18.1014 9.28152 13.993 9.28152 13.993 9.28152C13.993 9.28152 9.88479 9.28152 8.85772 9.55189C8.30633 9.70314 7.8522 10.1573 7.70095 10.7195C7.43066 11.7465 7.43066 13.8763 7.43066 13.8763C7.43066 13.8763 7.43066 16.0169 7.70095 17.0332C7.85236 17.5954 8.29552 18.0386 8.8578 18.19C9.89561 18.4711 13.9932 18.4711 13.9932 18.4711C13.9932 18.4711 18.1014 18.4711 19.1284 18.2007C19.6907 18.0494 20.134 17.6062 20.2854 17.044C20.5556 16.0169 20.5556 13.8871 20.5556 13.8871C20.5556 13.8871 20.5664 11.7465 20.2852 10.7195ZM12.685 15.8439V11.9087L16.1013 13.8763L12.685 15.8439Z" fill="white"/>
</svg>
