<svg width="678" height="378" viewBox="0 0 678 378" fill="none" xmlns="http://www.w3.org/2000/svg">
<g clip-path="url(#clip0)">
<path d="M302.13 387.618C346.835 377.75 393.727 378.907 437.886 391.091C460.42 397.305 481.68 406.991 503.425 415.519C524.866 423.926 546.794 430.932 569.146 436.536C594.111 442.811 619.5 447.319 645.133 450.06C646.287 450.182 646.287 448.355 645.133 448.233C598.727 443.237 552.929 432.333 509.256 415.763C487.207 407.417 465.826 397.366 443.231 390.664C421.789 384.329 399.558 380.613 377.206 379.516C351.877 378.237 326.426 380.43 301.705 385.852C300.551 386.096 301.037 387.862 302.13 387.618Z" fill="#1C1D5D"/>
<g opacity="0.5">
<path d="M349.468 336.142C378.259 330.355 406.807 339.736 434.444 346.803C462.446 353.991 490.933 357.281 519.785 354.418C548.455 351.554 576.152 343.391 604.215 337.178C633.188 330.72 662.647 326.273 692.228 323.958C725.028 321.339 758.01 321.339 790.871 323.836C792.025 323.897 792.025 322.07 790.871 322.009C732.56 317.623 673.702 321.217 616.363 332.791C587.511 338.64 559.206 347.29 529.989 351.433C500.166 355.636 470.22 353.808 441.004 346.681C410.938 339.31 380.203 328.162 348.921 334.436C347.828 334.558 348.314 336.325 349.468 336.142Z" fill="#1C1D5D"/>
</g>
<g opacity="0.5">
<path d="M272.858 216.678C305.294 220.028 337.365 212.84 368.768 205.59C384.803 201.874 400.899 198.158 417.178 195.722C434.003 193.224 451.071 192.31 468.079 193.102C487.273 194.016 506.285 197.001 524.871 202.057C526.025 202.362 526.511 200.595 525.357 200.29C492.861 191.457 458.785 188.838 425.378 192.797C392.76 196.635 361.297 206.565 328.983 212.048C310.457 215.216 291.688 216.739 272.919 214.789C271.704 214.728 271.704 216.556 272.858 216.678Z" fill="#1C1D5D"/>
</g>
<path opacity="0.5" d="M260.664 300.87C285.142 305.134 309.256 296.545 333.613 295.204C359.307 293.742 384.879 297.946 410.086 302.149C411.24 302.332 411.726 300.565 410.572 300.383C385.911 296.301 361.008 292.219 335.922 293.255C311.018 294.291 286.114 303.489 261.089 299.103C259.996 298.92 259.51 300.687 260.664 300.87Z" fill="#1C1D5D"/>
<path opacity="0.5" d="M460.66 265.283C508.524 277.102 558.27 272.167 606.073 262.542C655.334 252.612 703.501 237.444 753.187 229.646C781.371 225.199 810.041 223.31 838.528 226.174C839.682 226.295 839.682 224.468 838.528 224.346C788.721 219.351 739.156 229.037 690.928 240.611C642.335 252.308 593.986 266.075 543.935 269.67C516.177 271.619 488.236 270.279 461.146 263.578C459.992 263.212 459.506 264.979 460.66 265.283Z" fill="#1C1D5D"/>
<path d="M402.535 46.2286C401.381 53.3561 404.54 60.0572 408.731 65.6008C412.982 71.2053 418.753 75.7742 425.86 76.8099C427.014 76.9926 427.5 75.226 426.345 75.0432C420.211 74.1903 415.108 70.5352 411.221 65.8445C406.908 60.6054 403.142 53.7825 404.297 46.7768C404.479 45.5585 402.717 45.0711 402.535 46.2286Z" fill="#1C1D5D"/>
<path d="M404.114 46.2288C405.876 44.8885 407.88 43.9748 410.067 43.5483C411.221 43.3046 410.735 41.538 409.581 41.7817C407.091 42.269 404.843 43.3656 402.839 44.8885C401.928 45.6805 403.203 46.9598 404.114 46.2288Z" fill="#1C1D5D"/>
<path d="M410.371 43.67C415.777 45.132 420.697 51.4676 423.795 55.8537C427.014 60.4227 429.443 65.4789 431.083 70.7789C431.448 71.8754 433.209 71.449 432.845 70.2915C430.962 64.1996 428.107 58.4123 424.22 53.3561C420.94 49.0308 416.263 43.3654 410.857 41.9033C409.703 41.5987 409.217 43.3654 410.371 43.67Z" fill="#1C1D5D"/>
<path d="M426.224 76.9318C428.533 75.7743 430.598 74.1295 432.238 72.0583C432.967 71.1445 431.691 69.8652 430.962 70.779C429.444 72.7284 427.561 74.2514 425.374 75.3479C424.22 75.8962 425.192 77.4191 426.224 76.9318Z" fill="#1C1D5D"/>
<path d="M406.969 43.7919C406.787 50.7976 410.674 57.8033 414.805 63.2251C418.692 68.3422 424.159 72.2411 430.84 72.1192C431.994 72.1192 431.994 70.2917 430.84 70.2917C424.098 70.4135 418.874 66.0273 415.23 60.7274C411.889 55.7929 408.67 49.9447 408.791 43.7919C408.791 42.6345 406.969 42.6345 406.969 43.7919Z" fill="#1C1D5D"/>
<path d="M405.025 54.5745C405.937 53.478 407.03 52.6251 408.305 51.955C409.338 51.4676 408.427 49.8837 407.394 50.3711C405.997 51.0412 404.722 52.0159 403.75 53.2343C403.021 54.1481 404.297 55.4883 405.025 54.5745Z" fill="#1C1D5D"/>
<path d="M404.054 50.4319C405.208 49.579 406.362 48.9698 407.759 48.6043C408.913 48.2997 408.427 46.533 407.273 46.8376C405.815 47.2641 404.418 47.9342 403.143 48.848C402.231 49.5181 403.082 51.102 404.054 50.4319Z" fill="#1C1D5D"/>
<path d="M410.491 65.8446C411.767 64.8089 413.103 63.7733 414.379 62.7377C415.29 62.0067 414.014 60.7274 413.103 61.4584C411.828 62.494 410.491 63.5296 409.216 64.5653C408.244 65.2963 409.58 66.5756 410.491 65.8446Z" fill="#1C1D5D"/>
<path d="M414.137 69.8652C415.169 69.0732 416.202 68.2813 417.235 67.4893C417.599 67.1847 417.842 66.6974 417.538 66.21C417.295 65.8445 416.688 65.6008 416.263 65.9054C415.23 66.6974 414.197 67.4893 413.165 68.2813C412.8 68.5859 412.557 69.0732 412.861 69.5606C413.104 69.9261 413.712 70.1697 414.137 69.8652Z" fill="#1C1D5D"/>
<path d="M420.576 74.434C421.608 73.3984 422.701 72.4237 423.734 71.3881C424.584 70.5962 423.309 69.2559 422.459 70.1088C421.426 71.1444 420.333 72.1191 419.3 73.1547C418.45 73.9467 419.725 75.2869 420.576 74.434Z" fill="#1C1D5D"/>
<path d="M410.674 47.5688C411.829 48.6044 412.922 49.701 414.076 50.7366C414.015 50.3711 413.954 50.0056 413.954 49.64C412.74 51.5894 412.071 54.0871 413.711 56.0365C414.258 56.7066 415.108 57.2549 416.02 57.4377C416.445 57.4986 416.809 57.4377 417.234 57.4377C417.538 57.3767 417.781 57.2549 418.085 57.194C421.426 56.6457 422.033 57.925 419.846 60.9709C418.753 61.3974 419.239 63.164 420.332 62.7376C422.58 61.8847 424.159 59.3871 422.823 57.0721C422.215 55.9756 420.94 55.1837 419.725 55.1227C419.3 55.0618 418.874 55.1837 418.449 55.1837C416.991 55.9756 415.716 55.3664 414.623 53.4779C414.683 52.4423 414.987 51.5285 415.594 50.7366C415.777 50.432 415.716 49.8837 415.473 49.64C414.319 48.6044 413.226 47.5079 412.071 46.4723C411.1 45.4976 409.824 46.7769 410.674 47.5688Z" fill="#1C1D5D"/>
<path d="M421.304 62.2503C422.336 63.4687 423.308 64.6262 424.341 65.8446C425.069 66.7584 426.406 65.4181 425.616 64.5653C424.584 63.3469 423.612 62.1894 422.579 60.9711C421.85 60.0573 420.575 61.3975 421.304 62.2503Z" fill="#1C1D5D"/>
<path d="M461.879 33.8621C456.534 29.6587 453.254 17.7186 457.749 12.0531C463.033 5.53479 473.542 2.73251 479.433 9.67727C484.353 15.4646 484.657 24.5415 480.952 31.0598C478.705 35.0195 475.425 36.908 470.869 36.9689C466.921 37.0299 463.155 35.5069 460.422 32.5828C459.632 31.7299 458.356 33.0092 459.146 33.8621C463.58 38.6138 471.537 40.3804 477.429 37.3345C483.564 34.1058 485.872 25.3334 485.143 18.937C484.414 12.4795 480.466 5.53479 473.785 3.82906C467.346 2.18424 457.81 6.81408 454.955 12.8451C453.193 16.5611 453.862 21.0082 454.773 24.907C455.684 28.8058 457.263 32.5219 460.482 35.0195C461.454 35.8724 462.79 34.5931 461.879 33.8621Z" fill="#1C1D5D"/>
<path d="M466.981 10.9565C466.981 10.8956 466.92 10.7737 466.92 10.7128C466.799 11.0783 466.616 11.3829 466.495 11.7484C465.948 11.5657 465.887 11.6266 466.252 12.1139C466.616 12.7231 466.859 13.3323 467.102 14.0024C467.284 13.6369 467.527 13.2714 467.71 12.9059C465.341 13.6369 462.365 15.2817 463.215 18.2668C463.458 19.1805 464.065 19.9725 464.976 20.2771C465.705 20.5817 466.13 20.2771 466.859 20.2162C467.953 19.6679 469.107 19.8506 470.2 20.8254C471.111 23.5058 470.382 24.846 467.953 25.0288C467.224 25.0288 466.859 25.8207 467.163 26.4299C467.71 27.4655 468.135 28.5011 468.499 29.5977C468.864 30.6942 470.625 30.2678 470.261 29.1103C469.896 27.831 469.41 26.6736 468.742 25.5161C468.499 26.0035 468.196 26.4299 467.953 26.9172C470.868 26.8563 473.662 24.115 472.447 21.069C471.901 19.6679 470.625 18.5713 469.167 18.2668C468.317 18.084 467.588 18.4495 466.799 18.4495C465.28 18.4495 464.855 18.1449 465.645 16.6829C466.373 15.3426 466.799 15.1599 468.196 14.7335C468.621 14.6116 468.985 14.0634 468.803 13.6369C468.378 12.4185 467.953 10.7128 466.738 10.1036C466.434 9.98179 466.07 9.92087 465.827 10.1036C465.766 10.1645 465.644 10.2255 465.584 10.2864C465.219 10.5301 465.098 10.8956 465.159 11.322C465.159 11.3829 465.219 11.5048 465.219 11.5657C465.462 12.5404 467.224 12.053 466.981 10.9565Z" fill="#1C1D5D"/>
<path d="M472.691 5.77845C481.923 3.40262 486.722 13.3933 486.904 21.0082C486.965 24.4806 486.661 28.3794 484.596 31.3035C482.348 34.4713 478.339 35.446 474.999 36.908C473.905 37.3954 474.877 38.9793 475.91 38.4919C479.919 36.7253 484.292 35.5678 486.661 31.4862C488.908 27.5874 489.091 22.4093 488.544 18.0232C487.572 9.98187 481.194 1.69689 472.265 4.01181C471.111 4.3164 471.597 6.08305 472.691 5.77845Z" fill="#1C1D5D"/>
<path d="M482.834 30.4506C483.685 30.2679 484.535 30.0851 485.385 29.9024C486.54 29.6587 486.054 27.892 484.9 28.1357C484.049 28.3184 483.199 28.5012 482.348 28.684C481.194 28.9276 481.68 30.6943 482.834 30.4506Z" fill="#1C1D5D"/>
<path d="M485.021 23.4449C485.993 23.1403 486.965 22.8357 487.876 22.4702C488.969 22.1047 488.483 20.338 487.39 20.7036C486.418 21.0081 485.446 21.3127 484.535 21.6783C483.442 22.0438 483.928 23.8104 485.021 23.4449Z" fill="#1C1D5D"/>
<path d="M484.413 18.0232C485.021 17.9014 485.689 17.7795 486.296 17.6577C486.782 17.5968 487.025 16.9876 486.904 16.5611C486.782 16.0738 486.296 15.8301 485.81 15.9519C485.203 16.0738 484.535 16.1956 483.927 16.3175C483.442 16.3784 483.199 16.9876 483.32 17.414C483.442 17.9014 483.927 18.0841 484.413 18.0232Z" fill="#1C1D5D"/>
<path d="M480.769 10.3473C481.923 10.5301 483.017 10.4691 484.11 10.1036C485.203 9.73811 484.717 7.97146 483.624 8.33697C482.834 8.58065 482.045 8.70249 481.255 8.58065C480.769 8.51973 480.283 8.70249 480.162 9.18984C479.98 9.61627 480.283 10.2864 480.769 10.3473Z" fill="#1C1D5D"/>
<path d="M470.687 125.606C462.73 123.291 457.567 115.493 457.445 107.33C457.263 98.0096 465.342 90.0293 474.574 94.1718C482.349 97.6441 485.325 106.782 485.568 114.762C485.69 118.6 485.022 123.23 481.559 125.484C477.976 127.86 473.299 126.946 469.472 125.728C468.379 125.362 467.893 127.129 468.986 127.494C475.182 129.505 483.017 129.627 486.115 122.682C489.091 116.042 487.208 106.538 483.807 100.446C480.405 94.2936 473.116 89.5419 465.888 91.6741C458.357 93.9281 454.955 102.152 455.805 109.462C456.717 117.686 462.244 125.119 470.262 127.433C471.355 127.738 471.841 125.971 470.687 125.606Z" fill="#1C1D5D"/>
<path d="M466.677 98.6188C468.196 100.264 469.289 101.969 470.079 104.041C470.443 103.675 470.808 103.31 471.172 102.944C468.256 102.335 466.738 104.833 466.92 107.513C466.981 108.427 467.163 109.523 468.074 110.011C468.742 110.376 469.714 110.132 470.382 110.132C471.111 110.072 471.779 110.011 472.508 110.072C475.727 110.315 476.153 111.716 473.845 114.275C473.237 114.336 472.63 115.006 473.055 115.676C474.148 117.382 475.181 119.148 476.031 120.976C476.517 122.012 478.096 121.098 477.61 120.062C476.699 118.235 475.727 116.468 474.634 114.762C474.391 115.25 474.088 115.676 473.845 116.163C476.396 115.859 478.522 113.483 477.185 110.864C476.578 109.706 475.424 108.975 474.27 108.61C473.359 108.305 472.448 108.305 471.536 108.305C470.808 108.366 470.139 108.427 469.41 108.488C468.256 107.087 468.682 105.868 470.747 104.833C471.354 104.954 472.144 104.406 471.84 103.736C470.929 101.36 469.714 99.3498 467.953 97.5223C467.163 96.4866 465.888 97.7659 466.677 98.6188Z" fill="#1C1D5D"/>
<path d="M460.36 94.5374C452.524 101.299 450.095 112.935 455.987 121.768C461.696 130.358 473.176 132.855 481.862 127.251C482.834 126.642 481.923 125.058 480.951 125.667C472.812 130.906 462.061 128.408 457.08 120.062C452.221 111.899 454.711 101.848 461.696 95.8167C462.547 95.0856 461.271 93.8063 460.36 94.5374Z" fill="#1C1D5D"/>
<path opacity="0.14" d="M465.219 93.7454C464.126 96.1821 462.729 100.325 462.911 105.564C462.972 107.148 463.397 115.981 469.775 121.951C474.148 126.032 478.764 126.276 478.582 127.677C478.339 129.2 472.63 130.419 467.467 129.139C461.818 127.738 456.776 123.23 454.59 117.321C454.043 115.798 451.856 109.706 454.893 103.066C457.991 96.4258 464.065 94.1109 465.219 93.7454Z" fill="#1C1D5D"/>
<path opacity="0.15" d="M407.941 43.6091C408.184 45.9241 408.791 49.5183 410.37 53.5998C411.95 57.4986 414.683 64.5043 421.79 68.525C423.551 69.4997 426.892 71.0836 431.751 71.3272C431.326 72.1801 430.293 73.8249 428.35 75.1042C427.074 75.8962 425.92 76.2617 425.07 76.4444C422.579 75.7134 418.813 74.2514 414.926 71.3882C412.436 69.4997 406.665 65.0526 404.175 56.9504C402.778 52.3815 402.899 48.239 403.385 45.1321C404.843 44.5838 406.361 44.0965 407.941 43.6091Z" fill="#1C1D5D"/>
<path opacity="0.14" d="M473.723 4.43844C475.545 5.41314 478.703 7.48439 480.89 11.3223C483.988 16.6222 483.32 21.8613 483.016 24.4198C482.712 26.7348 482.287 30.1462 479.736 33.4359C478.4 35.2025 476.881 36.36 475.788 37.0301C477.124 36.9691 480.526 36.5427 483.32 33.9232C485.506 31.852 486.175 29.4761 486.903 26.8566C488.057 22.7141 487.693 19.3636 487.572 18.2061C487.086 14.6728 485.81 12.1751 485.446 11.505C484.292 9.31195 482.773 6.50968 479.554 5.10855C477.185 4.07292 474.937 4.25568 473.723 4.43844Z" fill="#1C1D5D"/>
<path d="M598.667 267.365C599.274 273.274 599.882 283.082 598.788 295.144C597.148 313.176 592.532 326.273 590.953 330.964C578.015 368.977 571.759 418.87 568.843 442.507C566.778 459.259 564.47 484.297 565.017 515.487C561.615 517.376 550.317 523.163 535.497 520.787C521.769 518.594 513.205 510.858 510.289 507.994C508.771 461.148 512.719 423.622 516.849 397.366C521.223 369.221 527.479 340.711 534.646 311.957C538.898 294.778 543.15 277.66 547.463 260.481C564.47 262.735 581.599 265.05 598.667 267.365Z" fill="#EC615B"/>
<path opacity="0.13" d="M598.059 285.701C596.055 293.682 592.835 305.622 588.462 319.877C574.006 366.541 561.007 390.786 551.228 416.738C542.481 439.887 532.763 473.88 529.969 519.204C533.188 520.239 537.744 521.275 543.21 521.214C553.232 521.092 560.764 517.376 564.47 515.183C564.895 485.211 566.838 460.051 568.904 440.862C570.544 425.388 572.184 410.281 576.132 390.238C580.87 366.114 583.238 354.052 588.158 339.98C591.499 330.599 595.508 321.034 597.391 306.231C598.302 297.702 598.241 290.575 598.059 285.701Z" fill="#1C1D5D"/>
<path d="M623.084 254.572C625.635 259.933 629.584 268.949 632.681 280.645C637.298 298.129 637.358 312.018 637.48 316.953C638.209 357.159 649.324 406.199 654.548 429.348C658.253 445.857 664.631 470.103 675.747 499.283C673.195 502.207 664.51 511.467 649.75 514.391C636.083 517.071 625.393 512.685 621.748 510.979C604.437 467.422 595.387 430.81 590.284 404.737C584.818 376.775 581.052 347.839 577.954 318.354C576.132 300.748 574.31 283.143 572.487 265.598C589.373 261.882 606.259 258.227 623.084 254.572Z" fill="#EC615B"/>
<path opacity="0.17" d="M592.411 261.577C600.611 295.997 608.75 330.416 616.829 364.835C628.491 414.484 639.971 464.194 651.269 513.903C654.002 513.355 657.343 512.38 660.866 510.675C667.973 507.263 672.65 502.573 675.262 499.405C671.07 488.257 665.968 473.514 660.866 456.03C650.965 422.22 646.288 395.416 644.466 384.085C641.125 363.495 639.121 351.128 638.453 333.462C638.027 321.522 638.574 315.612 636.873 303.307C636.144 298.068 634.019 284.97 628.43 268.766C626.365 262.796 624.361 257.861 622.842 254.328C612.759 256.765 602.616 259.201 592.411 261.577Z" fill="#1C1D5D"/>
<path opacity="0.15" d="M636.083 321.095C635.901 366.602 639.484 417.347 649.689 471.809C652.24 485.394 655.034 498.491 658.132 511.162C659.954 510.614 662.019 509.883 664.145 508.725C669.551 505.923 673.195 502.207 675.382 499.466C669.126 481.86 663.112 462.975 657.767 442.811C645.923 398.462 639.423 357.342 636.083 321.095Z" fill="#1C1D5D"/>
<path d="M554.569 127.312C546.126 134.135 542.421 142.603 540.234 147.659C533.37 163.437 534.828 177.875 535.678 185.551C537.865 205.227 544.607 208.456 547.948 226.975C549.709 236.905 550.378 250.003 546.551 266.329C549.163 268.644 569.268 285.884 595.933 280.706C611.665 277.66 621.748 268.339 625.696 264.197C627.093 224.904 624.846 192.495 622.173 168.676C619.075 140.958 615.856 129.079 605.712 122.195C591.499 112.57 568.539 116.042 554.569 127.312Z" fill="white" stroke="#1C1D5D" stroke-width="2" stroke-miterlimit="10"/>
<path opacity="0.14" d="M583.238 115.737C587.065 123.413 591.742 134.135 595.629 147.476C605.469 181.286 603.465 209.248 602.432 218.995C599.638 246.409 591.195 267.852 584.392 281.681C588.644 281.802 594.172 281.437 600.428 279.67C613.123 276.076 621.383 268.522 625.271 264.38C625.817 243.363 625.635 225.696 625.271 212.538C625.271 212.538 624.785 193.226 621.262 161.488C618.832 139.435 617.132 132.246 611.24 126.094C602.615 117.199 590.102 115.859 583.238 115.737Z" fill="#1C1D5D"/>
<path opacity="0.17" d="M618.104 144.674C617.071 144.735 618.346 160.269 616.889 189.266C615.006 226.792 610.693 242.205 609.296 247.139C605.166 261.273 599.881 272.238 596.055 279.305C599.335 279.061 603.708 278.391 608.446 276.502C617.435 272.908 623.024 266.938 625.696 263.648C626.061 251.526 626.243 233.737 625.271 212.233C623.692 177.387 619.561 144.552 618.104 144.674Z" fill="#1C1D5D"/>
<path d="M542.118 170.26C537.562 174.707 535.193 179.459 534.039 182.261C531.306 188.84 531.245 194.445 531.245 197.43C531.245 205.471 533.432 211.258 535.801 217.716C537.501 222.224 540.235 228.438 544.79 235.321C545.762 235.626 547.22 235.992 548.981 236.052C550.682 236.052 552.018 235.809 553.051 235.504C552.444 231.666 551.897 227.889 551.29 224.051C552.322 224.295 553.901 224.6 555.845 224.904C565.017 226.305 572.488 225.331 576.922 224.722C578.987 224.417 581.903 223.99 585.365 223.138C585.061 225.453 584.758 227.707 584.515 230.021C587.856 231.91 589.313 231.179 589.799 230.874C590.771 230.265 590.893 229.169 592.107 225.392C592.654 223.625 593.201 222.224 593.504 221.31C594.841 220.762 596.177 220.274 597.574 219.726C597.21 221.005 596.845 222.285 596.541 223.625C597.574 223.869 599.275 224.173 601.279 223.808C602.433 223.625 603.344 223.259 604.073 222.955C604.863 220.092 605.713 217.228 606.503 214.304C608.811 211.807 610.998 210.649 612.638 210.101C614.46 209.431 615.067 209.675 616.525 208.883C619.501 207.177 620.534 203.948 620.716 203.217C620.959 202.425 621.749 199.44 620.352 196.516C619.562 194.871 619.016 195.115 617.376 192.617C615.979 190.546 616.039 189.815 614.764 187.5C614.096 186.404 613.063 184.759 611.423 182.931C612.577 179.52 613.61 177.936 614.399 177.144C614.581 176.961 615.128 176.413 615.128 175.743C615.128 175.134 614.582 174.585 613.731 173.976C611.666 172.514 610.39 171.661 608.629 171.844C606.381 172.149 605.045 173.915 604.742 174.281C603.83 172.758 602.494 170.626 600.55 168.493C594.416 161.731 587.066 159.173 583.847 158.259C571.638 154.848 561.19 159.356 554.873 162.158C551.411 163.62 546.734 165.691 542.118 170.26Z" fill="white"/>
<path d="M536.165 216.741C532.521 206.872 531.063 195.968 534.1 185.733C537.016 176.047 543.515 168.371 552.687 164.168C561.919 159.904 573.096 156.797 583.118 159.355C591.864 161.609 599.396 167.336 603.83 175.255C604.377 176.291 605.956 175.377 605.41 174.342C597.938 160.939 582.571 154.36 567.75 157.406C559.368 159.112 550.257 162.097 543.636 167.64C537.623 172.697 533.553 179.946 531.731 187.561C529.423 197.491 530.881 207.786 534.404 217.228C534.829 218.264 536.59 217.838 536.165 216.741Z" fill="#1C1D5D"/>
<path d="M588.402 193.226C588.159 190.729 588.28 184.454 591.621 183.967C593.686 183.662 595.023 186.343 597.331 186.16C598.485 186.038 598.485 184.21 597.331 184.332C595.751 184.515 594.658 182.87 593.261 182.261C591.925 181.713 590.649 181.956 589.556 182.87C586.762 185.185 586.337 189.876 586.64 193.226C586.701 194.384 588.523 194.384 588.402 193.226Z" fill="#1C1D5D"/>
<path d="M595.995 184.637C599.457 183.175 601.705 186.952 598.425 188.779C597.331 189.389 595.995 189.754 594.78 190.181C592.351 191.033 589.86 191.886 587.431 192.739C586.337 193.105 586.823 194.871 587.917 194.506C591.075 193.409 594.294 192.374 597.453 191.155C599.093 190.546 601.037 189.693 601.765 187.927C603.527 183.601 598.364 181.652 595.145 183.053C594.051 183.479 594.963 185.063 595.995 184.637Z" fill="#1C1D5D"/>
<path d="M606.321 172.209C604.681 173.184 602.798 174.707 603.284 176.9C603.466 177.814 604.074 178.484 604.924 178.91C606.199 179.58 607.475 179.946 608.69 180.86C609.601 181.591 610.876 180.311 609.965 179.58C608.872 178.728 607.718 178.118 606.503 177.57C605.592 177.144 604.802 176.717 605.288 175.56C605.653 174.707 606.564 174.219 607.293 173.793C608.265 173.184 607.354 171.6 606.321 172.209Z" fill="#1C1D5D"/>
<path d="M605.046 178.362C604.56 181.469 606.625 185.063 610.209 184.332C611.667 184.028 612.578 182.931 613.185 181.652C613.853 180.129 613.975 177.997 615.493 177.083C616.465 176.474 615.554 174.89 614.582 175.499C613.003 176.474 612.517 178.058 611.97 179.702C611.606 180.799 611.181 182.139 609.966 182.505C607.779 183.175 606.504 180.677 606.807 178.85C606.929 177.692 605.167 177.144 605.046 178.362Z" fill="#1C1D5D"/>
<path d="M606.38 174.402C608.992 171.539 612.515 174.463 614.398 176.535C615.188 177.387 616.463 176.108 615.674 175.255C613.062 172.392 608.385 169.468 605.105 173.123C604.315 173.976 605.591 175.255 606.38 174.402Z" fill="#1C1D5D"/>
<path d="M603.467 194.14C603.345 194.14 603.345 194.14 603.467 194.14C603.345 194.079 603.345 194.079 603.467 194.14C603.406 194.14 603.345 194.079 603.345 194.018C603.406 194.079 603.406 194.079 603.345 194.018C603.285 193.957 603.285 193.897 603.345 193.957C603.345 194.018 603.345 194.018 603.345 193.897C603.345 193.775 603.345 193.775 603.345 193.897C603.345 193.836 603.345 193.775 603.345 193.714C603.345 193.836 603.345 193.836 603.345 193.714C603.285 193.836 603.285 193.836 603.345 193.714C603.224 193.775 603.467 193.714 603.285 193.775C603.406 193.714 603.406 193.714 603.285 193.775C603.406 193.775 603.406 193.775 603.285 193.775C603.345 193.775 603.406 193.775 603.467 193.775C603.406 193.775 603.345 193.775 603.406 193.775C603.467 193.775 603.467 193.775 603.528 193.836C603.467 193.775 603.467 193.836 603.528 193.836C603.588 193.897 603.649 193.897 603.528 193.836C603.588 193.897 603.588 193.957 603.528 193.897C603.528 193.836 603.528 193.836 603.528 193.957C603.528 193.897 603.528 193.836 603.528 193.836C603.467 193.957 603.528 193.957 603.528 193.836C603.467 193.897 603.467 193.957 603.528 193.836C603.467 193.897 603.467 193.897 603.406 193.957C603.528 193.836 603.285 194.018 603.406 193.957C603.345 193.957 603.285 194.018 603.224 194.018C603.345 194.018 603.345 194.018 603.224 194.018C603.285 194.079 603.285 194.018 603.224 194.018C602.252 193.409 601.28 194.993 602.313 195.602C603.285 196.211 604.56 195.785 605.107 194.81C605.714 193.714 605.046 192.435 603.892 192.13C602.86 191.825 601.706 192.374 601.402 193.47C601.159 194.506 601.766 195.663 602.86 195.968C604.135 196.211 604.621 194.445 603.467 194.14Z" fill="#1C1D5D"/>
<path d="M611.908 188.901C612.029 188.962 612.151 189.023 612.212 189.145C612.151 189.023 612.272 189.328 612.212 189.206C612.212 189.084 612.212 189.449 612.212 189.267C612.212 189.084 612.151 189.51 612.212 189.267C612.272 189.084 612.09 189.449 612.212 189.267C612.272 189.145 612.09 189.388 612.151 189.328C612.029 189.449 611.908 189.51 611.726 189.449C611.604 189.388 611.543 189.328 611.483 189.267C611.422 189.206 611.422 189.206 611.483 189.267C611.483 189.206 611.422 189.206 611.422 189.145C611.483 189.328 611.422 188.901 611.422 189.084C611.422 189.267 611.483 188.901 611.422 189.084C611.361 189.267 611.483 188.962 611.422 189.023C611.361 189.145 611.422 189.023 611.483 188.962C611.422 189.023 611.422 189.023 611.483 188.962C611.543 188.901 611.604 188.901 611.665 188.901C611.543 188.962 611.847 188.901 611.908 188.901C611.422 188.779 610.875 189.023 610.815 189.51C610.693 189.998 610.936 190.546 611.422 190.607C612.212 190.79 612.94 190.302 613.183 189.51C613.366 188.718 613.062 187.866 612.212 187.622C611.422 187.378 610.632 187.987 610.45 188.718C610.207 189.51 610.632 190.302 611.422 190.607C611.847 190.729 612.455 190.424 612.515 189.998C612.637 189.51 612.394 189.084 611.908 188.901Z" fill="#1C1D5D"/>
<path d="M610.937 183.358C612.941 185.672 614.217 188.414 614.764 191.46C615.007 192.617 616.768 192.13 616.525 190.972C615.918 187.622 614.399 184.637 612.212 182.078C611.423 181.164 610.147 182.505 610.937 183.358Z" fill="#1C1D5D"/>
<path d="M615.371 192.617C616.161 193.348 617.133 193.896 618.226 194.14C619.38 194.384 619.866 192.617 618.712 192.374C617.922 192.191 617.254 191.886 616.647 191.338C615.796 190.485 614.521 191.764 615.371 192.617Z" fill="#1C1D5D"/>
<path d="M618.408 192.922C614.095 193.348 610.39 195.846 608.872 200.049C607.596 203.643 608.082 208.943 612.334 210.223C616.039 211.319 619.441 208.639 620.777 205.288C622.113 201.938 622.538 195.297 618.894 193.165C617.861 192.556 616.95 194.14 617.983 194.749C620.473 196.211 619.987 201.755 619.258 204.07C618.408 206.811 615.918 209.431 612.82 208.395C609.236 207.177 609.661 202.303 611.058 199.562C612.516 196.76 615.31 195.176 618.347 194.81C619.562 194.627 619.623 192.8 618.408 192.922Z" fill="#1C1D5D"/>
<path d="M613.914 202.79C613.914 202.669 613.914 202.547 613.914 202.425C613.914 201.938 613.489 201.511 613.003 201.511C612.517 201.511 612.092 201.938 612.092 202.425C612.092 202.547 612.092 202.669 612.092 202.79C612.092 203.278 612.517 203.704 613.003 203.704C613.489 203.704 613.914 203.339 613.914 202.79Z" fill="#1C1D5D"/>
<path d="M618.772 199.44C618.651 199.318 618.53 199.197 618.469 199.075C618.165 198.709 617.497 198.709 617.193 199.075C616.829 199.44 616.829 199.988 617.193 200.354C617.315 200.476 617.436 200.598 617.497 200.719C617.801 201.085 618.469 201.085 618.772 200.719C619.137 200.354 619.076 199.806 618.772 199.44Z" fill="#1C1D5D"/>
<path d="M598.242 201.512C599.396 202.791 601.461 202.486 602.433 201.146C602.737 200.72 602.494 200.11 602.129 199.867C601.643 199.623 601.157 199.806 600.854 200.171C600.55 200.598 599.821 200.476 599.517 200.11C598.788 199.318 597.452 200.659 598.242 201.512Z" fill="#1C1D5D"/>
<path d="M600.246 201.694C601.583 205.593 606.077 207.482 609.783 205.715C610.815 205.227 609.904 203.644 608.871 204.131C606.26 205.349 602.98 203.887 602.008 201.207C601.583 200.11 599.821 200.537 600.246 201.694Z" fill="#1C1D5D"/>
<path d="M612.091 208.761C610.026 210.405 607.9 212.05 605.835 213.695C604.924 214.426 606.199 215.705 607.11 214.974C609.176 213.33 611.302 211.685 613.367 210.04C614.339 209.37 613.002 208.091 612.091 208.761Z" fill="#1C1D5D"/>
<path d="M605.531 214.487C604.438 217.29 603.587 220.153 602.98 223.077C602.737 224.234 604.499 224.722 604.741 223.564C605.349 220.64 606.199 217.777 607.293 214.975C607.718 213.878 605.956 213.391 605.531 214.487Z" fill="#1C1D5D"/>
<path d="M533.918 215.096C535.376 221.188 537.805 227.036 541.389 232.214C542.422 233.737 543.636 235.87 545.398 236.601C547.645 237.575 550.743 236.783 553.051 236.418C553.416 236.357 553.78 235.87 553.719 235.565C553.355 231.727 552.748 227.95 551.958 224.173C551.715 223.016 549.953 223.503 550.196 224.66C550.986 228.255 551.533 231.91 551.897 235.565C552.14 235.26 552.322 234.956 552.565 234.712C549.953 235.139 546.977 235.809 544.851 233.859C543.211 232.336 541.814 229.717 540.721 227.767C538.352 223.625 536.712 219.239 535.619 214.609C535.376 213.451 533.614 213.939 533.918 215.096Z" fill="#1C1D5D"/>
<path d="M551.776 224.904C557.546 226.183 563.438 226.793 569.33 226.671C574.311 226.549 580.871 226.427 585.244 223.869C586.277 223.259 585.366 221.676 584.333 222.285C579.899 224.843 573.157 224.782 568.176 224.843C562.831 224.904 557.486 224.295 552.201 223.138C551.108 222.894 550.622 224.661 551.776 224.904Z" fill="#1C1D5D"/>
<path d="M584.635 220.274C584.149 223.077 583.542 226.001 583.481 228.864C583.42 230.692 584.392 231.666 586.215 231.727C587.733 231.788 590.77 231.666 591.681 230.326C592.41 229.169 592.592 227.158 592.957 225.879C593.382 224.417 593.868 222.894 594.293 221.432C594.658 220.275 592.896 219.848 592.532 220.945C591.62 223.93 590.77 226.854 589.92 229.839C590.102 229.656 590.345 229.412 590.527 229.23C589.495 229.534 588.28 229.961 587.186 229.9C585.364 229.839 585.243 228.864 585.425 227.341C585.668 225.148 585.972 222.955 586.397 220.762C586.579 219.604 584.817 219.117 584.635 220.274Z" fill="#1C1D5D"/>
<path d="M593.14 222.163C596.177 221.371 598.85 219.787 601.036 217.472C601.826 216.619 600.551 215.34 599.761 216.193C597.817 218.264 595.448 219.665 592.654 220.396C591.561 220.701 591.986 222.468 593.14 222.163Z" fill="#1C1D5D"/>
<path d="M596.116 219.665C595.569 221.188 595.326 222.711 595.387 224.295C595.387 224.783 595.812 225.209 596.298 225.209C598.303 225.209 600.307 224.965 602.311 224.6C603.466 224.356 602.98 222.65 601.826 222.833C600.003 223.199 598.181 223.321 596.298 223.381C596.602 223.686 596.906 223.991 597.209 224.295C597.149 222.833 597.331 221.493 597.817 220.153C598.303 219.056 596.541 218.569 596.116 219.665Z" fill="#1C1D5D"/>
<path d="M550.925 171.296C558.822 168.189 567.083 166.483 575.526 166.117C576.68 166.056 576.68 164.229 575.526 164.29C566.9 164.594 558.457 166.361 550.44 169.529C549.346 169.955 549.832 171.722 550.925 171.296Z" fill="#1C1D5D"/>
<path d="M551.351 169.102C551.29 169.041 551.29 169.041 551.23 168.981C551.29 169.346 551.351 169.712 551.351 170.077C552.08 168.371 555.846 168.006 557.425 167.701C559.49 167.275 561.556 166.909 563.621 166.605C568.237 165.874 572.914 165.386 577.53 165.082C578.684 165.021 578.684 163.193 577.53 163.254C572.124 163.62 566.779 164.229 561.434 165.143C558.64 165.63 551.108 166.056 549.772 169.163C549.59 169.529 549.59 169.955 549.893 170.26C549.954 170.321 549.954 170.321 550.015 170.382C550.865 171.174 552.201 169.894 551.351 169.102Z" fill="#1C1D5D"/>
<path opacity="0.12" d="M603.344 172.453C603.101 179.093 601.036 182.566 599.092 184.454C598.06 185.49 597.635 185.49 593.686 188.719C588.098 193.227 587.734 194.201 587.552 194.871C586.883 198.1 590.346 199.562 590.589 203.339C590.892 207.664 586.701 211.319 584.454 213.208C573.217 222.894 550.378 220.884 546.612 220.518C547.463 225.635 548.313 230.753 549.224 235.809C550.317 236.113 551.836 236.357 552.504 235.565C553.172 234.834 552.747 233.616 552.261 231.118C551.593 227.585 551.289 225.757 551.775 224.965C553.112 222.894 558.821 224.843 563.741 225.696C568.418 226.488 575.282 226.671 584.211 223.808C584.393 225.879 584.515 227.889 584.697 229.961C586.762 229.961 588.766 229.961 590.832 229.961C591.56 227.28 592.229 224.6 592.957 221.919C594.355 221.127 595.752 220.335 597.209 219.544C596.906 221.127 596.602 222.711 596.298 224.234C598.485 224.173 600.672 224.052 602.858 223.991C602.919 222.224 603.405 218.569 605.895 215.036C606.806 213.756 608.446 211.502 611.301 210.345C613.123 209.614 613.67 210.04 615.553 209.187C616.403 208.822 618.712 207.542 620.23 204.923C621.688 202.425 622.538 198.405 620.716 195.724C619.744 194.323 619.137 194.871 617.436 193.105C615.553 191.155 615.978 190.12 613.67 185.794C612.091 182.809 611.544 182.688 611.544 181.53C611.666 178.606 615.371 177.692 615.067 175.621C614.763 173.123 609.054 172.149 608.75 172.088C606.503 171.844 604.62 172.149 603.344 172.453Z" fill="#1C1D5D"/>
<path opacity="0.14" d="M601.704 186.586C601.461 187.926 600.854 190.18 599.092 192.252C598.12 193.409 596.906 194.81 594.84 195.054C592.593 195.358 590.831 194.018 590.406 193.653C594.233 191.277 597.938 188.962 601.704 186.586Z" fill="#1C1D5D"/>
<path d="M591.378 219.421C590.103 220.152 589.131 221.736 589.252 223.076C589.556 225.94 595.083 227.28 594.901 227.889C594.719 228.437 590.771 226.731 586.58 228.254C585.912 228.498 583.725 229.29 583.543 230.691C583.421 231.788 584.636 232.092 584.94 233.859C585.183 235.077 584.636 235.199 584.575 237.392C584.515 238.854 584.515 239.768 585.061 240.682C585.79 241.839 586.64 241.596 587.309 242.692C588.098 243.972 587.066 244.764 587.673 246.347C588.28 247.992 590.042 249.028 591.439 249.393C593.018 249.82 593.869 249.271 594.355 249.881C595.083 250.794 593.383 252.378 593.99 253.901C594.537 255.242 596.541 255.607 597.27 255.668C602.312 256.034 606.746 244.459 606.989 243.789C608.872 243.789 611.119 243.606 613.549 242.997C619.198 241.535 622.781 238.306 627.155 234.407C629.402 232.397 632.196 229.838 635.112 225.818C639.06 220.335 640.821 215.461 642.401 211.136C643.737 207.359 645.681 201.633 646.288 193.957C646.835 186.038 645.62 180.129 644.526 174.95C641.793 162.157 636.873 153.507 635.719 151.558C635.537 151.253 631.892 146.501 624.604 136.998C620.898 132.185 617.558 127.982 613.609 128.165C613.184 128.165 612.395 128.226 611.483 128.774C608.629 130.419 608.386 135.17 608.568 139.557C609.236 154.664 614.521 165.63 614.521 165.63C618.833 174.524 622.295 176.839 623.875 185.124C624.725 189.449 624.725 193.47 624.664 194.262C624.664 197.369 624.543 201.511 622.903 206.506C621.992 209.126 619.987 215.035 614.338 219.787C610.937 222.65 608.507 224.721 605.409 224.356C601.097 223.868 597.513 218.995 593.322 218.934C592.836 218.934 592.107 218.995 591.378 219.421Z" fill="white"/>
<path d="M611.301 128.226C626.608 137.729 638.027 153.02 642.704 170.503C647.928 190.058 644.405 210.283 632.743 226.792C626.972 234.956 618.529 242.875 607.9 242.449C606.746 242.388 606.746 244.215 607.9 244.276C616.95 244.642 624.543 239.342 630.313 232.823C636.873 225.391 641.975 216.193 644.648 206.628C650.115 186.951 645.863 165.082 634.565 148.207C628.734 139.556 621.141 132.185 612.273 126.703C611.18 126.032 610.269 127.616 611.301 128.226Z" fill="#1C1D5D"/>
<path d="M622.355 205.715C619.075 213.573 613.912 221.797 604.862 223.32C603.708 223.503 604.194 225.27 605.348 225.087C615.006 223.442 620.533 214.609 624.056 206.202C624.542 205.166 622.781 204.679 622.355 205.715Z" fill="#1C1D5D"/>
<path d="M605.227 223.198C601.097 222.467 593.929 214.974 589.738 219.117C588.22 220.64 588.402 223.198 589.313 224.965C590.649 227.584 593.565 228.498 596.177 229.168C597.331 229.473 597.817 227.706 596.663 227.402C594.355 226.853 591.561 226.122 590.71 223.564C590.224 222.65 590.406 221.797 591.196 221.127C591.561 219.848 592.411 219.421 593.747 219.97C594.719 220.152 595.63 220.579 596.481 221.005C599.275 222.406 601.583 224.417 604.741 224.965C605.895 225.209 606.381 223.442 605.227 223.198Z" fill="#1C1D5D"/>
<path d="M606.928 242.814C604.923 245.738 602.979 248.723 600.975 251.647C600.489 252.318 600.064 252.988 599.456 253.597C598.91 254.267 598.181 254.754 597.33 255.059C596.48 253.78 595.691 252.5 594.84 251.221C595.205 250.124 597.756 248.662 598.606 247.87C599.517 247.079 598.181 245.799 597.33 246.591C595.569 248.175 592.35 249.942 592.228 252.622C592.168 254.693 593.747 256.643 595.751 256.947C598.242 257.313 600.246 255.607 601.643 253.78C604.133 250.612 606.199 247.079 608.507 243.728C609.175 242.753 607.596 241.839 606.928 242.814Z" fill="#1C1D5D"/>
<path d="M596.237 227.341C592.714 228.376 589.131 227.524 585.608 228.133C583.785 228.437 582.206 229.412 582.388 231.483C582.996 237.332 591.014 236.418 594.84 235.565C595.994 235.321 595.508 233.555 594.354 233.798C592.593 234.225 590.771 234.59 588.948 234.468C586.64 234.286 581.659 231.361 586.458 229.838C588.098 229.351 590.285 229.778 591.925 229.717C593.565 229.717 595.144 229.534 596.723 229.047C597.877 228.742 597.391 226.975 596.237 227.341Z" fill="#1C1D5D"/>
<path d="M585.486 234.103C582.813 235.991 582.57 240.194 585.121 242.327C588.158 244.824 592.774 243.24 595.872 241.717C596.905 241.169 595.994 239.585 594.961 240.134C592.957 241.169 590.284 242.205 587.976 241.657C585.364 241.108 583.967 237.392 586.457 235.686C587.369 235.016 586.457 233.432 585.486 234.103Z" fill="#1C1D5D"/>
<path d="M586.579 242.814C585.789 245.19 586.822 247.992 588.887 249.454C591.499 251.282 594.779 250.368 597.148 248.541C598.059 247.809 597.148 246.226 596.237 246.957C594.536 248.236 592.228 249.332 590.223 248.114C588.583 247.139 587.794 245.068 588.401 243.301C588.705 242.205 586.943 241.718 586.579 242.814Z" fill="#1C1D5D"/>
<path d="M612.273 125.728C604.498 136.815 607.171 151.009 612.151 162.584C618.408 177.144 628.976 191.764 625.757 208.456C625.514 209.613 627.276 210.101 627.519 208.943C630.313 194.384 623.085 181.103 616.889 168.493C610.633 155.761 604.741 139.617 613.852 126.642C614.52 125.667 612.941 124.753 612.273 125.728Z" fill="#1C1D5D"/>
<path d="M624.057 188.414C623.753 194.932 622.964 201.389 621.688 207.786C621.445 208.943 623.207 209.431 623.45 208.273C624.725 201.694 625.575 195.115 625.879 188.414C625.94 187.256 624.118 187.256 624.057 188.414Z" fill="#1C1D5D"/>
<path opacity="0.12" d="M622.903 136.084C625.94 141.993 629.584 150.583 631.893 161.426C634.93 175.803 634.079 187.317 633.533 192.495C632.257 204.435 631.164 214.73 623.45 224.904C620.23 229.229 613.67 237.88 602.798 240.743C595.387 242.631 587.916 241.352 587.005 244.276C586.58 245.799 587.977 247.748 589.435 248.662C591.379 249.82 593.99 249.637 596.238 248.114C594.051 249.637 593.019 251.769 593.504 253.292C593.93 254.632 595.448 255.363 596.481 255.485C601.461 256.155 606.442 244.642 606.807 243.789C608.75 243.85 611.666 243.728 614.946 242.692C621.749 240.621 625.879 236.052 630.435 230.996C632.318 228.925 635.719 225.026 638.878 219.299C646.956 204.496 646.288 189.632 645.924 184.149C644.891 166.117 637.298 153.69 635.294 150.644C631.164 143.821 626.426 139.13 622.903 136.084Z" fill="#1C1D5D"/>
<path opacity="0.11" d="M646.287 188.109C644.1 194.932 640.699 203.156 635.414 211.806C626.243 226.853 615.249 236.722 607.413 242.631C609.418 242.753 612.455 242.692 615.856 241.839C627.397 238.793 633.532 228.681 635.961 224.66C639.12 219.421 640.334 215.035 642.46 207.481C644.708 199.562 645.74 192.8 646.287 188.109Z" fill="#1C1D5D"/>
<path d="M550.013 130.541C549.041 129.383 541.084 134.561 535.679 138.643C529.119 143.577 523.47 147.842 518.064 155.578C510.896 165.813 508.71 175.743 507.981 179.824C507.434 182.992 505.733 194.079 509.499 207.603C512.658 218.995 518.003 225.879 524.624 234.407C528.876 239.951 532.156 242.997 536.711 245.007C540.902 246.896 544.729 247.261 547.28 247.261C548.616 249.211 550.135 251.404 551.836 253.841C553.293 255.912 554.144 257.069 555.601 258.41C556.998 259.689 559.185 261.577 560.886 260.907C561.797 260.603 562.283 259.628 563.133 258.105C563.984 256.521 563.801 256.216 564.409 255.607C565.684 254.267 567.021 255.12 568.721 254.084C570.422 252.988 569.633 251.526 571.759 248.541C573.399 246.226 574.31 246.408 574.796 244.764C575.281 242.936 574.188 242.327 574.553 239.951C574.917 237.575 576.253 236.783 575.828 235.93C575.342 235.017 573.459 235.382 570.787 235.443C565.927 235.504 561.736 234.286 561.736 233.676C561.736 233.006 566.049 233.616 568.296 230.874C569.572 229.29 570.119 226.61 569.025 225.331C567.75 223.747 564.409 224.539 560.218 225.574C554.569 226.975 554.265 228.133 551.896 228.376C544.607 229.047 538.047 218.569 535.8 214.974C534.585 213.086 530.819 206.689 529.483 197.552C528.147 188.353 529.908 180.738 531.244 175.072C531.609 173.428 531.487 174.22 534.038 165.447C538.533 149.852 538.23 149.913 539.323 147.233C543.818 136.389 550.985 131.637 550.013 130.541Z" fill="white"/>
<path d="M548.373 129.932C530.029 138.034 514.905 153.446 508.952 172.879C502.453 193.896 507.738 215.766 521.344 232.763C527.904 240.926 536.711 247.688 547.462 248.297C548.616 248.358 548.616 246.53 547.462 246.47C537.865 245.921 529.908 240.012 523.834 232.885C517.274 225.148 511.989 215.645 509.621 205.776C504.761 185.977 510.775 164.777 524.198 149.669C531.184 141.811 539.809 135.719 549.406 131.455C550.378 131.028 549.467 129.505 548.373 129.932Z" fill="#1C1D5D"/>
<path d="M531.062 208.517C534.828 217.899 540.902 226.854 551.228 229.412C552.382 229.717 552.868 227.95 551.714 227.646C542.056 225.27 536.346 216.802 532.823 208.03C532.398 206.994 530.637 207.421 531.062 208.517Z" fill="#1C1D5D"/>
<path d="M551.592 229.29C555.237 229.047 558.152 227.219 561.554 226.123C563.801 225.392 567.628 224.6 568.053 227.707C568.599 231.484 563.801 232.275 561.068 232.58C559.914 232.702 559.914 234.529 561.068 234.408C563.801 234.103 566.838 233.677 568.721 231.484C570.179 229.717 570.665 226.975 569.085 225.148C564.894 220.274 556.269 227.158 551.592 227.463C550.438 227.585 550.438 229.412 551.592 229.29Z" fill="#1C1D5D"/>
<path d="M546.794 247.81C549.163 251.343 551.35 255.12 553.962 258.471C555.541 260.542 557.667 262.491 560.461 262.309C562.526 262.126 564.47 260.542 564.47 258.349C564.531 255.486 560.886 253.292 559.064 251.648C558.214 250.856 556.877 252.135 557.788 252.927C558.821 253.841 561.372 255.486 561.858 256.704C561.919 257.74 561.919 258.714 561.979 259.75C560.096 260.664 558.517 260.542 557.302 259.384C556.331 258.653 555.662 257.801 554.934 256.765C552.625 253.536 550.56 250.186 548.374 246.896C547.705 245.86 546.126 246.774 546.794 247.81Z" fill="#1C1D5D"/>
<path d="M560.765 234.286C564.227 235.565 567.871 235.382 571.455 235.991C572.063 236.052 572.67 236.174 573.277 236.357C573.581 237.271 573.885 238.184 574.128 239.098C573.885 240.195 570.483 240.499 569.754 240.499C567.446 240.56 565.199 239.829 563.012 239.22C561.858 238.915 561.433 240.621 562.526 240.987C566.049 242.022 576.314 244.337 576.679 237.88C576.8 235.626 574.614 234.773 572.791 234.407C568.965 233.616 564.956 233.92 561.251 232.58C560.157 232.153 559.671 233.92 560.765 234.286Z" fill="#1C1D5D"/>
<path d="M572.123 242.083C573.398 243.058 573.824 244.825 573.034 246.165C572.244 247.505 570.726 247.871 569.268 247.871C566.778 247.81 564.287 246.652 562.101 245.495C561.068 244.947 560.157 246.53 561.19 247.079C564.53 248.906 569.815 251.221 573.398 248.602C576.192 246.53 575.707 242.449 573.095 240.499C572.062 239.768 571.151 241.352 572.123 242.083Z" fill="#1C1D5D"/>
<path d="M569.571 249.576C570.178 251.648 568.781 253.78 566.716 254.328C564.469 254.937 562.221 253.78 560.521 252.44C559.61 251.709 558.334 252.988 559.245 253.719C561.675 255.668 564.894 257.069 567.992 255.79C570.604 254.694 572.244 251.83 571.393 249.089C571.029 247.932 569.267 248.419 569.571 249.576Z" fill="#1C1D5D"/>
<path opacity="0.11" d="M538.108 136.876C534.585 141.933 530.151 149.243 526.446 158.685C520.432 174.037 519.582 186.952 519.4 191.642C518.853 205.106 518.549 212.964 523.226 221.371C529.179 232.093 539.809 237.393 553.111 243.972C559.914 247.322 565.745 249.515 569.693 250.795C569.693 251.16 569.693 253.78 567.81 255.181C565.745 256.643 562.161 256.095 559.914 253.292C562.829 255.181 564.166 257.74 563.437 259.263C562.829 260.664 560.46 261.395 558.517 260.907C554.751 259.872 555.115 254.572 549.527 249.455C548.252 248.297 547.098 247.505 546.247 247.018C542.663 246.652 536.529 245.434 530.455 241.291C529.361 240.56 525.231 237.575 519.582 229.047C515.998 223.625 511.564 216.863 508.952 206.689C508.102 203.4 503.972 185.855 511.929 166.909C512.718 164.96 514.783 160.452 518.428 155.213C525.231 145.588 533.066 139.922 538.108 136.876Z" fill="#1C1D5D"/>
<path d="M541.995 38.4922C535.313 43.2439 533.188 50.0059 529.057 63.3471C523.833 80.1607 520.068 92.2836 526.506 101.726C532.884 110.986 546.915 114.275 561.432 111.899C562.343 112.265 563.619 112.935 564.53 114.154C565.745 115.798 565.562 117.443 565.927 120.063C566.413 123.535 566.777 126.459 568.478 127.677C571.272 129.749 577.164 126.886 580.565 124.266C585.85 120.245 588.097 114.885 589.008 112.691C598.423 89.3595 603.1 77.724 600.549 66.6977C599.82 63.5908 597.451 53.9047 589.008 45.8025C576.678 34.106 555.115 29.1716 541.995 38.4922Z" fill="white"/>
<path d="M532.763 52.4426C525.353 68.0379 528.026 91.0653 540.781 103.371C551.714 113.849 570.18 112.874 580.263 101.787C581.052 100.934 579.777 99.5939 578.987 100.508C569.268 111.169 551.532 111.839 541.389 101.421C529.848 89.6032 527.357 68.0379 534.282 53.4173C534.829 52.3208 533.249 51.407 532.763 52.4426Z" fill="#1C1D5D"/>
<path d="M563.559 109.646C563.498 115.981 564.834 122.073 567.446 127.86C567.932 128.957 569.511 127.982 569.025 126.946C566.535 121.464 565.32 115.677 565.381 109.646C565.381 108.488 563.559 108.488 563.559 109.646Z" fill="#1C1D5D"/>
<path d="M567.385 128.287C573.459 131.82 581.173 126.398 585.546 122.317C586.397 121.525 585.121 120.246 584.271 121.038C580.626 124.449 573.459 129.749 568.357 126.764C567.264 126.155 566.352 127.739 567.385 128.287Z" fill="#1C1D5D"/>
<path d="M542.724 83.9985C552.078 89.9686 564.712 81.8055 569.328 73.3986C569.875 72.363 568.296 71.4492 567.749 72.4849C563.619 80.0388 552.139 87.8364 543.635 82.4146C542.663 81.8055 541.752 83.3893 542.724 83.9985Z" fill="#1C1D5D"/>
<path d="M565.564 71.815C567.143 72.6069 568.358 73.8862 568.844 75.5919C569.208 76.6885 570.969 76.262 570.605 75.1046C569.937 72.9724 568.479 71.2058 566.475 70.2311C565.442 69.7437 564.531 71.3276 565.564 71.815Z" fill="#1C1D5D"/>
<path d="M548.617 50.0667C546.369 56.4023 543.636 62.5551 540.356 68.4033C539.809 69.439 541.328 70.3527 541.935 69.3171C545.276 63.2861 548.07 57.0115 550.378 50.4931C550.743 49.4575 548.981 48.9702 548.617 50.0667Z" fill="#1C1D5D"/>
<path d="M540.599 70.0483C542.482 72.6678 545.458 74.1908 548.677 73.9471C549.831 73.8862 549.831 72.0586 548.677 72.1195C546.126 72.3023 543.697 71.2057 542.178 69.1345C541.51 68.1598 539.931 69.0736 540.599 70.0483Z" fill="#1C1D5D"/>
<path d="M540.416 60.4839C540.234 59.0828 540.416 57.6816 540.963 56.4023C540.356 56.4023 539.809 56.4023 539.202 56.4023C539.688 58.0472 539.445 59.692 538.534 61.154C539.08 61.2149 539.627 61.2759 540.174 61.3977C539.931 60.2402 539.991 59.0828 540.356 57.9253C540.72 56.8288 538.959 56.3414 538.594 57.438C538.108 58.9 538.048 60.3621 538.412 61.8851C538.594 62.677 539.688 62.7379 540.052 62.1287C541.206 60.3012 541.51 58.0472 540.902 55.9759C540.659 55.0621 539.445 55.184 539.141 55.9759C538.473 57.6207 538.351 59.3264 538.594 61.0322C538.837 62.1287 540.538 61.6414 540.416 60.4839Z" fill="#1C1D5D"/>
<path d="M563.679 56.6462C563.072 55.1232 563.315 53.5393 564.469 52.4428C563.983 52.3209 563.436 52.1991 562.951 52.0164C563.376 53.783 563.133 55.4887 562.222 57.0726C562.768 57.1335 563.315 57.1945 563.862 57.3163C563.619 56.1588 563.74 55.1232 564.105 54.0267C564.469 52.9301 562.708 52.4428 562.343 53.5393C561.857 54.9405 561.796 56.3416 562.1 57.8037C562.282 58.5956 563.376 58.6565 563.74 58.0473C564.894 56.037 565.198 53.783 564.651 51.5899C564.469 50.9198 563.619 50.737 563.133 51.1635C561.553 52.7474 561.007 55.1232 561.857 57.1945C562.404 58.2301 564.165 57.7427 563.679 56.6462Z" fill="#1C1D5D"/>
<path d="M537.318 50.798C538.351 48.544 541.206 47.752 543.15 49.2141C544.121 49.8842 545.033 48.3003 544.061 47.6302C541.327 45.6199 537.076 46.7773 535.739 49.8842C535.253 50.9808 536.833 51.8945 537.318 50.798Z" fill="#1C1D5D"/>
<path d="M533.067 65.4792C532.945 65.6011 532.824 65.7229 532.702 65.8447C532.338 66.2102 532.338 66.7585 532.702 67.124C533.066 67.4895 533.613 67.4895 533.978 67.124C534.099 67.0022 534.221 66.8804 534.342 66.7585C534.707 66.393 534.707 65.8447 534.342 65.4792C533.978 65.1137 533.431 65.1137 533.067 65.4792Z" fill="#1C1D5D"/>
<path d="M538.411 65.2357C538.411 65.2357 538.411 65.1747 538.411 65.2357C538.411 65.3575 538.472 65.4793 538.533 65.6621C538.533 65.6621 538.533 65.6621 538.533 65.6012C538.472 65.7839 538.472 65.9058 538.411 66.0885C537.986 66.5759 537.561 66.5759 537.136 66.0885C537.075 65.9058 537.075 65.7839 537.014 65.6012C537.014 65.6012 537.014 65.6012 537.014 65.6621C537.075 65.4793 537.075 65.3575 537.136 65.1747C537.136 65.1747 537.136 65.1747 537.136 65.2357C536.954 65.6621 537.014 66.2104 537.44 66.515C537.804 66.7586 538.472 66.6368 538.715 66.2104C538.897 65.7839 538.897 65.3575 538.594 64.992C538.411 64.8092 538.108 64.6874 537.804 64.6874C537.5 64.6874 537.197 64.8092 537.014 64.992C536.65 65.3575 536.711 65.7839 536.893 66.2104C537.075 66.6368 537.743 66.7586 538.168 66.515C538.533 66.2104 538.594 65.6621 538.411 65.2357Z" fill="#1C1D5D"/>
<path d="M535.253 71.6322C535.314 71.6322 535.435 71.6322 535.496 71.6322C536.65 71.6322 536.65 69.8047 535.496 69.8047C535.435 69.8047 535.314 69.8047 535.253 69.8047C534.099 69.8047 534.099 71.6322 535.253 71.6322C535.314 71.6322 535.435 71.6322 535.496 71.6322C536.65 71.6322 536.65 69.8047 535.496 69.8047C535.435 69.8047 535.314 69.8047 535.253 69.8047C534.099 69.8047 534.099 71.6322 535.253 71.6322Z" fill="#1C1D5D"/>
<path d="M561.493 62.6161C561.493 62.4942 561.493 62.3724 561.432 62.2506C561.372 61.7632 561.068 61.3368 560.521 61.3368C560.096 61.3368 559.549 61.7632 559.61 62.2506C559.61 62.3724 559.61 62.4942 559.671 62.6161C559.732 63.1034 560.035 63.5299 560.582 63.5299C561.007 63.5299 561.554 63.1644 561.493 62.6161Z" fill="#1C1D5D"/>
<path d="M565.624 61.6414C565.745 61.6414 565.867 61.6414 565.988 61.6414C566.474 61.6414 566.9 61.215 566.9 60.7276C566.9 60.2403 566.474 59.8138 565.988 59.8138C565.867 59.8138 565.745 59.8138 565.624 59.8138C565.138 59.8138 564.713 60.2403 564.713 60.7276C564.713 61.215 565.077 61.6414 565.624 61.6414Z" fill="#1C1D5D"/>
<path d="M563.559 64.9311C563.559 65.0529 563.559 65.1748 563.559 65.2966C563.559 65.784 563.984 66.2104 564.47 66.2104C564.956 66.2104 565.381 65.784 565.381 65.2966C565.381 65.1748 565.381 65.0529 565.381 64.9311C565.381 64.4438 564.956 64.0173 564.47 64.0173C563.984 64.0783 563.559 64.4438 563.559 64.9311Z" fill="#1C1D5D"/>
<path d="M559.793 46.96C562.587 45.6197 565.927 45.9852 568.357 47.9956C569.268 48.7266 570.544 47.4473 569.633 46.7163C566.535 44.1577 562.465 43.6703 558.882 45.437C557.788 45.9243 558.76 47.5082 559.793 46.96Z" fill="#1C1D5D"/>
<path d="M586.761 56.5242C587.49 55.7932 588.219 55.1231 589.008 54.3921C589.494 54.453 589.98 54.5139 590.466 54.5748C591.559 54.8185 592.41 55.3668 593.199 56.0369C594.961 57.5598 595.872 59.7529 596.054 62.0678C596.419 65.9057 594.9 71.0229 590.284 70.9011C589.13 70.9011 589.13 72.7286 590.284 72.7286C597.937 72.9114 599.456 62.7379 596.54 57.3771C595.082 54.6357 592.167 52.5036 588.947 52.5645C586.457 52.6254 583.906 54.2702 584.939 57.0116C585.425 58.0472 587.186 57.6208 586.761 56.5242Z" fill="#1C1D5D"/>
<path d="M544.425 29.2326C543.21 29.5371 538.897 30.6337 533.795 34.7153C522.801 43.6094 519.582 57.6208 518.549 62.2506C516.545 71.3884 518.671 71.693 516.363 79.1252C513.204 89.3595 508.709 90.3342 505.247 99.2893C504.093 102.213 499.051 115.25 505.004 126.033C511.078 136.998 525.474 140.166 535.435 139.13C546.915 137.973 560.035 130.419 563.133 118.662C563.983 115.494 563.923 112.57 563.68 110.437C560.825 110.62 555.662 110.62 549.831 108.305C548.312 107.696 542.603 105.259 537.622 99.2893C533.37 94.233 531.851 89.2986 530.758 85.7044C529.726 82.1711 527.417 74.1298 529.726 64.0782C531.851 54.9403 536.589 49.153 537.561 47.9956C543.453 41.0508 550.377 38.1876 553.657 37.0911C556.573 40.8681 559.428 43.6703 561.554 45.5588C566.17 49.6404 571.09 53.9656 578.379 55.3668C581.112 55.915 583.36 55.915 584.817 55.7932C585.182 55.2449 586.275 53.8438 588.219 53.2955C591.438 52.3817 594.171 54.8185 594.657 55.2449C596.54 56.8897 597.026 58.961 597.391 60.2403C597.634 61.1541 598.363 64.2609 596.905 67.5506C596.54 68.3425 595.994 69.5 594.84 70.4747C592.653 72.3631 589.92 72.2413 589.13 72.1804C586.883 74.6171 583.785 78.6378 581.416 84.1814C577.528 93.3193 578.014 101.361 578.136 103.554C578.561 109.036 579.29 119.149 587.368 125.911C597.512 134.44 611.057 130.723 612.637 130.297C628.308 125.789 633.41 109.767 633.835 108.244C638.148 93.8066 630.677 81.1355 627.032 74.9827C621.991 66.3931 619.5 67.3678 608.263 54.8185C591.803 36.421 591.681 28.2578 581.902 24.5418C576.678 22.5924 567.931 21.5568 553.9 28.928C551.835 28.6234 548.373 28.3188 544.425 29.2326Z" fill="#4560F5"/>
<path d="M564.773 111.534C568.356 111.108 572.122 108.61 574.977 106.478C575.888 105.808 574.977 104.224 574.066 104.894C572.73 105.93 571.272 106.782 569.753 107.574C568.174 108.427 566.534 109.463 564.712 109.707C563.619 109.828 563.619 111.656 564.773 111.534Z" fill="#1C1D5D"/>
<path d="M565.32 112.326C567.628 111.961 569.693 110.62 571.697 109.463C573.641 108.305 575.403 107.026 576.982 105.381C577.771 104.528 576.496 103.249 575.706 104.102C573.094 106.904 568.66 109.95 564.834 110.62C563.68 110.803 564.166 112.57 565.32 112.326Z" fill="#1C1D5D"/>
<path opacity="0.25" d="M602.979 49.8842C606.563 55.9151 611.361 65.053 615.188 76.9931C619.865 91.5527 622.659 100.02 618.043 106.661C613.487 113.24 603.1 115.859 594.414 112.935C585.729 110.011 579.594 101.909 579.047 92.4056C578.257 95.8779 577.407 101.787 578.743 108.915C579.654 113.605 580.809 119.575 585.85 124.571C591.863 130.541 599.517 131.15 602.311 131.394C605.166 131.637 612.697 131.82 620.229 127.129C627.7 122.499 630.677 115.859 631.892 113.179C635.232 105.625 634.746 98.9239 634.443 95.5124C633.653 85.8872 629.523 79.1861 627.64 76.1402C626.85 74.8609 625.028 72.0586 616.281 63.0426C610.875 57.3772 606.259 52.8692 602.979 49.8842Z" fill="#1C1D5D"/>
<path opacity="0.15" d="M506.341 97.4618C505.612 99.9595 504.518 105.32 506.644 111.169C510.107 120.733 520.918 127.617 531.973 125.972C541.024 124.632 548.616 117.809 551.289 108.549C555.541 109.097 559.793 109.707 564.105 110.255C564.227 112.326 564.105 115.494 562.951 119.088C560.886 125.667 556.755 129.505 554.994 131.089C546.915 138.338 537.197 138.887 533.37 139.069C528.329 139.313 520.129 139.8 512.597 134.196C506.28 129.566 503.911 123.291 503.243 121.098C499.355 109.28 505.369 99.1066 506.341 97.4618Z" fill="#1C1D5D"/>
<path opacity="0.15" d="M581.963 72.1194C579.654 80.4044 576.557 91.5525 569.45 98.0708C566.413 100.873 559.185 105.929 544.121 104.894C545.943 106.173 550.013 108.61 555.783 109.158C561.554 109.706 565.988 108.062 567.992 107.148C570.24 113.91 572.548 120.672 574.795 127.373C578.014 125.545 581.234 123.779 584.453 121.951C582.266 118.54 578.136 111.047 577.893 100.873C577.529 84.1813 587.915 73.155 590.102 70.9619C590.952 70.8401 593.929 70.17 595.812 67.5505C598.302 64.0172 597.269 58.9 594.414 56.1586C593.868 55.6104 591.438 53.2954 589.009 53.9046C585.121 54.7575 584.635 62.3724 581.963 72.1194Z" fill="#1C1D5D"/>
</g>
<g clip-path="url(#clip1)">
<path d="M173.175 338.19C185.161 343.118 190.21 341.9 205.358 346.052C233.269 353.693 253.466 367.977 266.062 378.774C265.452 399.37 264.842 419.966 264.231 440.562C265.507 442.057 279.49 457.891 300.687 455.732C315.28 454.237 324.38 445.047 326.822 442.389C327.21 423.398 326.877 403.135 325.601 381.819C324.824 369.472 323.825 357.513 322.549 346.052C320.663 343.395 317.777 339.575 314.06 335.145C284.873 300.486 249.915 285.095 230.883 277.011C211.906 268.928 200.031 263.889 182.331 262.45C177.614 262.062 130.449 258.74 122.847 277.62C115.8 294.839 143.6 326.065 173.175 338.19Z" fill="white" stroke="#1C1D5D" stroke-width="3" stroke-miterlimit="10"/>
<path opacity="0.16" d="M125.899 271.807C136.442 264.554 159.692 295.448 205.969 324.571C250.47 352.53 273.775 352.087 287.203 379.272C291.31 387.522 295.582 400.588 298.19 413.876C301.408 430.596 301.408 444.881 300.687 455.013C297.08 454.846 292.808 454.348 288.202 453.13C277.049 450.196 269.114 444.604 264.453 440.673C265.064 419.689 265.73 398.705 266.34 377.777C258.572 371.465 246.198 362.441 229.496 354.745C198.256 340.294 186.548 346.495 160.801 331.713C154.864 328.335 121.294 309.013 122.071 283.766C122.293 279.724 122.348 274.243 125.899 271.807Z" fill="#1C1D5D"/>
<path opacity="0.25" d="M120.249 283.844C122.58 281.962 131.624 294.585 153.32 310.032C180.287 329.189 193.272 328.967 222.958 346.795C233.667 353.217 249.148 363.516 266.294 379.184C262.965 377.745 257.582 375.308 251.312 371.71C238.55 364.291 235.443 359.751 225.732 354.878C222.236 353.162 215.689 351.39 202.649 348.013C179.843 342.089 176.57 342.366 168.302 338.656C157.371 333.784 150.213 327.638 146.44 324.316C128.35 308.482 117.308 286.169 120.249 283.844Z" fill="#1C1D5D"/>
<path d="M104.478 256.415C102.535 271.364 100.038 293.898 98.8177 321.415C96.9866 363.88 99.6501 387.522 100.094 418.914C100.482 446.431 99.2061 485.907 91.3268 534.574C95.5994 537.397 105.254 542.989 118.904 543.93C131.889 544.816 141.821 541.051 146.482 538.947C147.703 515.362 149.867 490.281 153.363 463.927C159.799 415.371 169.51 371.632 180.274 333.318C186.933 324.128 193.647 314.992 200.306 305.802C176.057 288.694 151.864 271.641 127.616 254.533C119.959 255.197 112.246 255.806 104.478 256.415Z" fill="white" stroke="#1C1D5D" stroke-width="3" stroke-miterlimit="10"/>
<path d="M189.829 312.635C191.549 310.254 193.214 307.818 194.934 305.437C195.434 307.319 195.933 309.202 196.432 311.14C188.22 306.046 180.174 300.676 172.461 294.807C166.025 289.935 160.032 284.564 153.54 279.803C149.434 276.757 145.217 273.878 141 270.999C136.949 268.286 132.843 264.854 128.404 262.695C126.018 261.532 123.188 261.698 120.636 261.698C115.753 261.698 110.925 261.864 106.098 262.141C100.771 262.418 100.771 254.113 106.098 253.836C110.925 253.615 115.808 253.393 120.636 253.393C123.743 253.393 126.961 253.393 129.902 254.334C134.508 255.829 138.669 259.428 142.609 262.141C147.159 265.186 151.653 268.231 156.092 271.442C162.973 276.425 169.299 282.017 176.013 287.166C183.892 293.201 192.16 298.738 200.594 303.942C202.37 305.049 203.424 307.762 202.092 309.645C200.372 312.026 198.707 314.462 196.987 316.842C193.935 321.161 186.722 317.008 189.829 312.635Z" fill="white"/>
<path opacity="0.14" d="M158.312 265.131C149.877 289.99 142.053 317.673 135.839 347.958C120.358 423.754 120.08 491.19 124.575 544.175C121.911 545.116 118.527 545.946 114.587 546.057C102.102 546.389 93.113 539.192 90.2276 536.7C92.669 524.464 95.8319 506.138 97.7185 483.771C101.825 435.325 96.6642 407.864 95.8319 366.672C95.3325 341.646 96.2758 306.102 103.323 262.639C121.689 263.47 140 264.3 158.312 265.131Z" fill="#1C1D5D"/>
<path opacity="0.2" d="M101.492 288.219C103.046 342.754 105.709 398.84 109.593 456.42C111.591 486.151 113.921 515.44 116.474 544.23C113.921 544.673 109.371 545.116 103.989 543.621C96.9974 541.628 92.6693 537.476 90.8937 535.538C97.1084 499.55 98.662 470.372 98.9949 450.828C99.6053 413.844 96.1095 394.964 97.1083 351.779C97.7742 324.317 99.8827 302.06 101.492 288.219Z" fill="#1C1D5D"/>
<path d="M328.44 63.2664C327.719 61.6055 334.821 58.1728 334.1 56.235C333.378 54.2418 324.556 53.7435 318.619 58.1174C312.404 62.6574 312.792 69.3013 309.241 77.8277C305.19 87.406 298.809 92.6103 289.099 100.583C283.273 105.4 260.522 123.449 227.729 122.453C212.858 122.01 200.429 117.746 191.218 113.262C192.494 129.152 193.826 145.097 195.102 160.987C202.648 162.704 213.025 164.198 225.176 163.146C269.345 159.326 297.699 125.332 306.467 114.867C311.793 108.5 319.062 98.7006 325.721 85.3574C330.937 86.9077 339.038 88.6794 348.749 87.6828C355.629 87.0184 363.841 84.9145 363.786 82.9767C363.73 80.4299 349.581 78.7135 349.692 77.8277C349.803 77.0525 360.956 80.0977 363.786 75.9452C366.005 72.6786 362.898 65.315 357.682 62.3252C356.073 61.4394 354.242 60.8857 349.692 60.9411C337.374 60.9411 329.106 64.7613 328.44 63.2664Z" fill="white" stroke="#1C1D5D" stroke-width="3" stroke-miterlimit="10"/>
<path d="M363.953 72.7893C361.123 72.1249 357.85 73.509 354.964 73.6197C352.412 73.7305 349.859 73.509 347.362 73.0107C346.308 72.7892 346.752 71.1836 347.806 71.4051C350.969 72.0141 354.132 72.1802 357.35 71.7373C359.792 71.4051 361.956 70.63 364.397 71.1836C365.451 71.4051 365.008 73.0107 363.953 72.7893Z" fill="#1C1D5D"/>
<path d="M361.624 67.3083C358.294 66.6439 355.353 68.028 352.135 68.1941C349.305 68.3602 346.475 67.8065 343.701 67.0868C342.647 66.81 343.091 65.2044 344.145 65.4812C347.752 66.4224 351.247 66.8653 354.965 66.0902C357.462 65.5919 359.571 65.149 362.123 65.6473C363.122 65.9241 362.678 67.5297 361.624 67.3083Z" fill="#1C1D5D"/>
<path d="M330.939 68.9691C328.109 71.9588 324.28 73.5091 320.174 73.3983C319.12 73.343 319.12 71.682 320.174 71.7374C323.892 71.9035 327.221 70.5193 329.718 67.8064C330.495 67.0313 331.66 68.194 330.939 68.9691Z" fill="#1C1D5D"/>
<path opacity="0.18" d="M363.787 75.5022C363.621 74.0073 351.525 73.6197 340.427 75.2253C334.434 76.0558 328.608 76.8863 323.115 79.4885C311.129 85.0805 307.19 95.7661 300.975 105.566C300.975 105.566 287.047 127.325 262.133 139.505C237.385 151.575 209.142 143.491 193.217 137.069C193.827 145.042 194.438 153.014 195.048 160.987C209.752 163.977 221.516 163.257 229.062 162.205C271.067 156.281 297.424 124.058 307.911 111.269C316.401 100.915 322.06 91.3922 325.501 84.9144C330.994 86.9075 339.151 88.9561 348.861 87.9595C355.575 87.2397 363.51 85.0251 363.455 83.0873C363.344 80.5958 349.971 79.101 350.082 78.5473C350.137 78.2705 353.911 79.101 358.572 77.9383C360.403 77.4954 363.843 76.3327 363.787 75.5022Z" fill="#1C1D5D"/>
<path opacity="0.24" d="M237.773 152.738C217.964 153.014 202.649 145.263 194.658 140.336C194.936 147.423 195.269 154.454 195.546 161.541C206.533 163.368 225.787 164.918 247.761 157.887C287.546 145.208 307.078 113.649 312.127 104.846C310.518 107.725 284.383 152.129 237.773 152.738Z" fill="#1C1D5D"/>
<path opacity="0.19" d="M344.921 84.5824C333.046 84.6377 325.056 82.866 324.889 83.6965C324.778 84.3609 329.717 86.354 334.933 87.3506C350.081 90.2296 363.953 83.9733 363.787 83.0875C363.62 82.4785 357.405 84.527 344.921 84.5824Z" fill="#1C1D5D"/>
<path d="M337.206 39.1822C345.848 39.1822 352.854 32.1919 352.854 23.569C352.854 14.9461 345.848 7.95581 337.206 7.95581C328.564 7.95581 321.559 14.9461 321.559 23.569C321.559 32.1919 328.564 39.1822 337.206 39.1822Z" fill="#EC615B"/>
<path d="M334.043 40.1787C343.85 40.1787 351.8 32.2217 351.8 22.4062C351.8 12.5908 343.85 4.63379 334.043 4.63379C324.237 4.63379 316.287 12.5908 316.287 22.4062C316.287 32.2217 324.237 40.1787 334.043 40.1787Z" stroke="#1C1D5D" stroke-width="2" stroke-miterlimit="10"/>
<path d="M336.485 12.6618C332.989 12.4403 324 15.8176 327.329 20.8559C329.272 23.7903 333.045 21.8525 335.764 22.5723C339.259 23.5135 338.871 27.7213 336.707 29.7698C334.432 31.8737 331.214 31.5415 329.05 29.6037C328.273 28.884 327.052 30.0467 327.884 30.7664C332.268 34.7528 340.092 32.4828 340.092 26.0049C340.092 23.0706 338.094 21.1881 335.32 20.8559C333.267 20.5791 327.496 22.1293 328.828 17.9215C329.715 15.0425 333.988 14.1566 336.54 14.3227C337.595 14.3781 337.595 12.7171 336.485 12.6618Z" fill="#1C1D5D"/>
<path d="M334.599 13.4369C334.765 11.6098 334.932 9.83808 335.098 8.01101C335.209 6.95906 333.544 6.95906 333.433 8.01101C333.267 9.83808 333.1 11.6098 332.934 13.4369C332.823 14.4888 334.488 14.4888 334.599 13.4369Z" fill="#1C1D5D"/>
<path d="M333.489 33.258C333.655 34.5314 333.822 35.8602 333.933 37.1336C334.044 38.1855 335.708 38.1855 335.597 37.1336C335.431 35.8602 335.264 34.5314 335.153 33.258C335.042 32.206 333.378 32.206 333.489 33.258Z" fill="#1C1D5D"/>
<path d="M174.46 109.331C176.291 109.442 182.45 109.719 190.329 111.656C194.824 112.764 198.375 114.037 200.428 114.868C204.146 122.397 208.918 134.024 210.694 148.751C213.246 169.735 208.141 183.244 204.645 204.117C202.259 218.457 200.317 239.219 202.981 265.463C197.321 270.612 182.561 282.626 160.144 285.727C128.405 290.156 105.1 273.435 100.272 269.837C97.3313 251.677 94.5569 233.018 92.0599 213.917C87.7873 181.583 84.569 150.302 82.183 120.238C97.5532 105.788 110.87 101.912 120.248 101.137C138.282 99.5866 154.595 108.224 174.46 109.331Z" fill="#EC615B"/>
<path opacity="0.17" d="M149.546 123.283C146.105 126.827 141.389 132.197 137.172 139.506C116.919 174.608 129.459 215.578 135.063 233.738C138.947 246.473 146.327 265.131 160.865 285.284C155.316 286.225 148.325 286.779 140.335 286.004C121.358 284.121 107.597 275.54 100.716 270.446C95.5001 240.881 91.0611 209.433 87.6208 176.213C85.6232 156.724 84.125 137.734 83.0152 119.408C85.1793 117.304 88.5086 114.48 92.9476 111.657C100.106 107.061 111.37 99.919 124.077 102.134C140.279 104.902 148.491 121.069 149.546 123.283Z" fill="#1C1D5D"/>
<path opacity="0.11" d="M85.5108 132.086C88.3407 140.004 92.7243 152.627 97.1633 168.462C110.369 214.914 109.426 234.845 125.462 258.819C130.345 266.127 138.557 276.481 152.374 286.723C145.549 286.668 135.672 285.837 124.408 282.128C114.198 278.751 106.374 274.211 101.047 270.501C96.7194 247.358 92.8908 222.388 90.0609 195.646C87.7859 173.389 86.2876 152.129 85.5108 132.086Z" fill="#1C1D5D"/>
<path d="M111.257 238.666C112.422 236.506 111.201 233.295 109.37 231.579C105.985 228.367 99.8263 229.585 97.0519 233.074C96.6635 233.572 94.7769 235.897 95.5537 237.89C97.2184 241.932 108.871 242.984 111.257 238.666Z" fill="white" stroke="#1C1D5D" stroke-width="3" stroke-miterlimit="10"/>
<path d="M95.6081 110.826C87.3403 116.528 77.1304 124.833 67.309 136.46C56.5998 149.084 49.6082 161.818 44.9472 172.503C41.0075 181.639 38.6215 189.778 37.1233 195.923C42.0618 207.273 51.3284 223.994 68.4188 238.666C74.578 243.981 80.6817 248.078 86.286 251.289C89.2269 254.556 93.333 258.708 98.7709 262.971C102.322 265.795 107.15 269.56 108.259 268.619C109.147 267.843 107.594 264.023 105.208 261.366C102.378 258.265 98.8819 257.324 98.9374 257.158C98.9929 256.992 102.1 257.545 104.986 259.76C108.315 262.362 108.148 264.798 109.813 265.186C113.309 266.016 121.355 257.601 120.134 249.074C119.135 241.932 112.088 238.112 109.702 236.783C103.154 233.184 96.7733 233.849 94.4428 234.181C86.1195 221.281 77.7963 208.436 69.473 195.536C71.748 193.709 74.7444 191.106 78.0182 187.729C81.8469 183.798 92.6116 172.614 97.7721 157.278C104.708 136.682 98.327 117.691 95.6081 110.826Z" fill="white" stroke="#1C1D5D" stroke-width="3" stroke-miterlimit="10"/>
<path d="M118.804 256.106C116.75 251.566 113.255 248.022 108.705 246.029C107.706 245.586 108.594 244.147 109.537 244.59C114.309 246.694 118.138 250.514 120.246 255.275C120.69 256.217 119.247 257.047 118.804 256.106Z" fill="#1C1D5D"/>
<path d="M112.7 263.801C114.42 258.597 109.37 253.227 105.209 250.846C104.265 250.292 105.098 248.853 106.041 249.406C110.869 252.175 116.306 258.265 114.309 264.244C113.976 265.241 112.367 264.798 112.7 263.801Z" fill="#1C1D5D"/>
<path opacity="0.18" d="M98.1622 119.961C91.5037 126.827 82.1262 137.069 72.0828 150.523C57.9888 169.292 50.9973 178.704 50.4979 188.615C49.6101 206.996 63.4266 229.973 81.6267 238.721C86.8981 241.268 100.604 246.417 108.483 256.493C110.758 259.373 113.089 263.359 112.256 264.245C111.535 264.964 108.871 263.082 107.984 263.968C106.929 265.02 109.482 268.231 108.76 268.951C107.873 269.837 102.934 266.681 97.9403 262.694C94.722 260.092 90.7823 256.549 86.6207 251.898C81.3493 248.908 75.745 245.143 70.0297 240.382C51.8851 225.267 42.1192 207.605 36.9033 195.536C38.1795 190.663 40.1216 184.075 43.1735 176.49C52.3845 153.624 64.7029 138.841 68.7535 134.19C74.5798 127.436 83.3469 118.632 95.6098 110.161C96.4976 113.428 97.3299 116.695 98.1622 119.961Z" fill="#1C1D5D"/>
<path opacity="0.21" d="M44.9495 203.619C50.2763 210.484 52.9952 214.858 55.2148 218.125C59.4318 224.215 65.702 230.029 78.2978 241.655C82.7923 245.808 88.896 251.344 96.3869 257.711C104.266 264.521 108.095 268.01 107.928 268.231C107.706 268.508 100.105 262.75 85.0673 250.957C82.2375 249.296 78.2423 246.86 73.7478 243.427C47.8904 223.661 36.2934 195.259 37.3476 194.594C37.7915 194.373 40.1775 197.418 44.9495 203.619Z" fill="#1C1D5D"/>
<path d="M186.058 18.5307C202.371 31.8739 201.706 58.9478 195.324 76.4434C191.274 87.5166 184.782 95.1017 180.509 99.3095C181.397 105.732 182.285 112.154 183.173 118.577C178.456 120.736 171.686 123.006 163.419 123.394C141.778 124.446 126.297 111.822 122.08 108.168C125.909 95.3785 129.737 82.589 133.566 69.7441C134.065 66.1454 134.898 60.6088 135.786 53.8541C138.172 36.2478 138.061 35.3066 139.115 32.4276C139.559 31.2649 146.217 14.3783 161.699 11.3885C174.183 9.06316 184.504 17.2573 186.058 18.5307Z" fill="white" stroke="#1C1D5D" stroke-width="3" stroke-miterlimit="10"/>
<path d="M199.485 63.5984C200.428 67.308 201.427 73.1214 200.761 80.0975C200.317 84.7482 199.541 92.8316 193.714 100.638C187.444 109.054 179.01 112.265 175.403 113.428C175.681 112.486 176.014 111.324 176.18 109.94C176.347 108.5 176.291 107.171 176.18 106.175C172.351 108.279 168.467 110.327 164.639 112.431C154.928 103.517 151.71 95.3231 150.6 89.3989C149.712 84.7482 149.157 76.2219 147.104 60.6087C146.716 57.8404 145.995 52.8575 142.832 51.584C141.334 50.975 139.336 51.2519 138.06 52.3592C134.231 55.5704 138.115 64.8719 137.283 65.1487C136.451 65.4255 129.737 56.0687 132.012 45.3831C133.177 39.8465 136.395 36.0262 138.282 34.1438C142.499 40.7877 147.16 47.6531 152.32 54.6845C155.594 59.1692 158.868 63.377 162.086 67.474C163.307 68.1384 165.138 68.8582 167.247 68.6921C168.911 68.526 169.466 67.9723 170.687 67.6401C175.237 66.3667 177.678 71.7372 182.173 71.0175C185.835 70.4084 186.168 66.4775 190.219 66.3667C192.161 66.3114 192.937 67.1972 194.935 66.8097C197.044 66.2006 198.542 64.7611 199.485 63.5984Z" fill="#1C1D5D" stroke="#1C1D5D" stroke-width="3" stroke-miterlimit="10"/>
<path d="M180.62 47.8748C182.007 54.2973 182.895 60.7751 183.283 67.3082C183.339 67.9726 182.562 68.3048 182.007 68.028C179.732 66.8653 177.402 65.6473 175.127 64.4846C174.183 63.9863 175.016 62.5468 175.959 63.0451C178.234 64.2077 180.564 65.4258 182.839 66.5885C182.396 66.8099 182.007 67.0868 181.563 67.3082C181.175 60.8858 180.342 54.5741 178.955 48.3177C178.789 47.2658 180.398 46.8229 180.62 47.8748Z" fill="#1C1D5D"/>
<path d="M189.498 54.5186C188.793 54.5186 188.222 53.0809 188.222 51.3074C188.222 49.5339 188.793 48.0962 189.498 48.0962C190.203 48.0962 190.774 49.5339 190.774 51.3074C190.774 53.0809 190.203 54.5186 189.498 54.5186Z" fill="#1C1D5D" stroke="#1C1D5D" stroke-width="3" stroke-miterlimit="10"/>
<path d="M167.968 54.5186C167.018 54.5186 166.248 53.0809 166.248 51.3074C166.248 49.5339 167.018 48.0962 167.968 48.0962C168.918 48.0962 169.688 49.5339 169.688 51.3074C169.688 53.0809 168.918 54.5186 167.968 54.5186Z" fill="#1C1D5D" stroke="#1C1D5D" stroke-width="3" stroke-miterlimit="10"/>
<path d="M192.605 45.051C191.551 43.1132 189.221 43.5561 187.5 44.1651C186.502 44.4973 186.058 42.8917 187.056 42.5595C189.498 41.6737 192.605 41.6183 194.048 44.2205C194.547 45.1063 193.105 45.9922 192.605 45.051Z" fill="#1C1D5D"/>
<path d="M171.63 42.7811C169.022 40.2896 165.027 40.5111 162.808 43.5008C162.198 44.3313 160.755 43.5008 161.365 42.6703C164.195 38.8501 169.3 38.3518 172.796 41.6184C173.572 42.3381 172.407 43.5008 171.63 42.7811Z" fill="#1C1D5D"/>
<path d="M212.359 34.8637C188.998 36.2479 165.693 38.1857 142.499 40.7325C139.336 41.0647 139.336 36.0818 142.499 35.7496C165.749 33.2027 189.054 31.2649 212.359 29.8808C215.577 29.7147 215.577 34.6976 212.359 34.8637Z" fill="#1C1D5D"/>
<path d="M197.266 31.431C196.877 27.8322 195.435 18.5861 188.332 11.0564C179.065 1.25662 161.92 -2.84046 148.602 5.46443C138.171 11.9976 132.566 24.621 134.453 37.4659C155.372 35.4727 176.291 33.4796 197.266 31.431Z" fill="#5222D0"/>
<path opacity="0.69" d="M167.746 2.91766C170.465 5.18767 170.465 10.0045 169.522 15.0982C168.468 20.6901 165.749 27.5001 161.698 34.5316C152.598 35.5835 143.498 36.6909 134.398 37.7428C134.01 35.7496 133.621 32.8706 133.954 29.4379C133.954 29.4379 134.564 23.1262 137.894 17.4235C144.552 6.01816 161.976 -1.95453 167.746 2.91766Z" fill="#3A1DA3"/>
<path opacity="0.24" d="M139.225 67.9172C141.278 69.0245 143.331 68.7477 144.052 68.5816C142.277 71.9589 136.783 83.3643 139.447 98.0916C141.999 112.099 150.323 120.57 153.208 123.283C149.601 122.563 145.495 121.401 141.056 119.629C132.622 116.196 126.296 111.656 122.024 107.947C126.463 92.389 130.902 76.8311 135.341 61.2733C135.341 61.5501 135.563 65.9794 139.225 67.9172Z" fill="#1C1D5D"/>
<path opacity="0.19" d="M159.756 38.9055C159.09 41.7292 158.535 45.9924 159.201 50.9753C160.366 59.3909 164.417 65.2043 166.525 67.9172C165.249 67.5297 163.973 67.0867 162.697 66.6992C160.144 63.5987 157.536 60.2767 154.984 56.8994C150.767 51.3075 146.883 45.7709 143.332 40.4558C148.825 39.9575 154.263 39.4038 159.756 38.9055Z" fill="#1C1D5D"/>
</g>
<defs>
<clipPath id="clip0">
<rect width="656" height="378" fill="white"/>
</clipPath>
<clipPath id="clip1">
<rect width="355" height="377" fill="white" transform="matrix(-1 0 0 1 365 1)"/>
</clipPath>
</defs>
</svg>
