<svg width="64" height="54" viewBox="0 0 64 54" fill="none" xmlns="http://www.w3.org/2000/svg">
<circle opacity="0.5" cx="37" cy="37" r="17" fill="#4560F5"/>
<path d="M40.4381 23.0656C40.3056 22.3751 39.7017 21.8758 38.9986 21.8754H37.5825L37.4784 21.2514C37.3745 20.6245 36.8806 20.1348 36.253 20.0362C36.1136 20.0142 35.9728 19.9996 35.8342 19.9805C36.0744 18.8594 35.8749 17.6888 35.2769 16.7106C35.5928 15.891 35.5339 14.9742 35.1156 14.2019C34.6972 13.4297 33.9616 12.8794 33.1026 12.6963C32.5534 9.75707 29.9964 7.62056 27.0064 7.60255C26.933 7.60255 26.8678 7.61208 26.7981 7.61428C26.3203 6.86397 25.5327 6.366 24.65 6.25621C23.7672 6.14642 22.8816 6.43627 22.2346 7.04668C21.4195 6.51686 20.4684 6.2344 19.4963 6.23342C17.9299 6.23983 16.4537 6.96685 15.4938 8.20462C14.4279 7.8938 13.2785 8.08465 12.3703 8.72324C11.462 9.36183 10.8935 10.3788 10.8254 11.487C9.70582 11.9576 8.97734 13.0534 8.97664 14.2678C8.97894 14.4783 9.00352 14.688 9.04997 14.8934C8.05989 16.3859 7.80118 18.2474 8.3467 19.9534C8.15017 19.9805 7.94924 20.0047 7.76004 20.0326C7.12911 20.1277 6.63086 20.6177 6.5251 21.247L6.42097 21.8732H5.00124C4.29933 21.8737 3.69615 22.3714 3.56244 23.0605L0.35117 39.5473C0.225759 40.193 0.395823 40.8609 0.814745 41.368C1.23367 41.875 1.8575 42.1681 2.51524 42.1668H17.8082C18.4154 43.1685 20.2604 43.6334 21.9999 43.6334C23.721 43.6334 25.5485 43.1795 26.1733 42.1668H41.4846C42.1422 42.168 42.7658 41.8751 43.1847 41.3682C43.6036 40.8613 43.7738 40.1936 43.6486 39.548L40.4381 23.0656ZM11.1942 15.5952C10.5988 15.2371 10.3146 14.5264 10.4991 13.8566C10.6836 13.1868 11.2915 12.7217 11.9862 12.719C12.4725 12.7176 12.9301 12.9487 13.2175 13.3409C13.3737 13.5513 13.6302 13.6624 13.8904 13.6323C14.1507 13.6023 14.3752 13.4357 14.4793 13.1953C14.5834 12.9548 14.5514 12.6771 14.3952 12.4668C13.8973 11.8012 13.1427 11.3755 12.3155 11.2934C12.5341 10.2664 13.4398 9.53117 14.4898 9.52828C14.5793 9.53282 14.6684 9.54262 14.7568 9.55762C14.6978 9.70796 14.6464 9.86118 14.6028 10.0167C14.5115 10.4049 14.7472 10.7948 15.1333 10.8946C15.5194 10.9943 15.9144 10.7672 16.0225 10.3834C16.1059 10.061 16.234 9.752 16.4031 9.46522C17.0536 8.37544 18.2272 7.70575 19.4963 7.70008C20.187 7.70314 20.862 7.90697 21.4389 8.28675C21.329 8.59556 21.2708 8.92039 21.2666 9.24815C21.2666 9.65316 21.5949 9.98148 21.9999 9.98148C22.4049 9.98148 22.7332 9.65316 22.7332 9.24815C22.7332 8.39621 23.4239 7.70558 24.2758 7.70558C25.1277 7.70558 25.8184 8.39621 25.8184 9.24815C25.8184 9.65316 26.1467 9.98148 26.5517 9.98148C26.9567 9.98148 27.285 9.65316 27.285 9.24815C27.285 9.19168 27.2711 9.13815 27.2682 9.08168C29.368 9.21124 31.1337 10.7038 31.611 12.7528C31.2689 12.8523 30.9475 13.0126 30.662 13.2258C30.4524 13.3829 30.3426 13.64 30.374 13.9001C30.4053 14.1602 30.573 14.3839 30.814 14.4868C31.0549 14.5897 31.3324 14.5563 31.542 14.3991C32.1281 13.9652 32.9376 13.9998 33.4844 14.4821C34.0313 14.9644 34.1668 15.7632 33.8095 16.3989C33.6499 16.6796 33.4073 16.904 33.115 17.0413C32.8086 17.1897 32.6446 17.5295 32.7191 17.8618C32.7935 18.194 33.0869 18.4313 33.4274 18.4346C33.535 18.4348 33.6412 18.411 33.7384 18.365C33.9327 18.2708 34.1164 18.156 34.2862 18.0225C34.6653 19.1002 34.4275 20.2988 33.6658 21.1502L33.6482 21.1685C32.6928 22.2034 31.1688 22.4831 29.9082 21.8549C29.7847 21.7897 29.6661 21.7157 29.5532 21.6334C30.0934 20.8761 30.168 19.8815 29.7468 19.0521C29.6289 18.818 29.3951 18.6646 29.1334 18.6496C28.8718 18.6347 28.622 18.7605 28.4782 18.9796C28.3344 19.1988 28.3185 19.478 28.4364 19.7121C28.6775 20.1968 28.5271 20.785 28.0829 21.0944C27.8221 21.2681 27.4998 21.323 27.1961 21.2456C26.8925 21.1681 26.6359 20.9655 26.4901 20.6882C26.3729 20.4538 26.1395 20.2998 25.8779 20.2842C25.6163 20.2685 25.3663 20.3936 25.222 20.6123C25.0776 20.831 25.0609 21.1101 25.1782 21.3445C25.6082 22.2127 26.4944 22.761 27.4632 22.7584C27.7787 22.7562 28.0909 22.6948 28.3836 22.5772C28.6455 22.8065 28.9341 23.0035 29.243 23.1639C30.2882 23.7056 31.5035 23.818 32.6303 23.477C31.9056 24.4665 30.821 25.1316 29.6104 25.3287C29.2338 25.39 28.9672 25.7299 28.9972 26.1103C29.0273 26.4906 29.344 26.7844 29.7256 26.7858C29.7646 26.7858 29.8036 26.7829 29.8422 26.777C30.2887 26.6997 30.7251 26.5723 31.1431 26.3972C31.369 26.7966 31.5524 27.2186 31.6902 27.6563C31.7154 27.7327 31.7283 27.8127 31.7283 27.8932C31.7281 28.2101 31.5388 28.4964 31.2472 28.6206C30.9099 28.7511 30.527 28.6482 30.3005 28.3662C29.7326 27.6992 28.9889 27.2051 28.154 26.9398C26.5693 26.4089 25.9577 25.9344 25.6981 25.4182C26.0786 25.3707 26.4546 25.2922 26.8223 25.1835C27.0728 25.1065 27.2631 24.9017 27.3216 24.6462C27.3802 24.3908 27.298 24.1236 27.106 23.9452C26.9141 23.7668 26.6416 23.7043 26.3911 23.7814C25.9796 23.9076 25.5549 23.9856 25.1254 24.0138C24.2979 24.0785 23.4666 23.9531 22.6951 23.6472C22.4054 23.5342 22.076 23.6162 21.873 23.8518C20.8053 25.0782 18.9779 25.2867 17.6614 24.3322C16.3449 23.3777 15.9749 21.5761 16.8086 20.18C16.9437 19.9545 16.9482 19.6741 16.8205 19.4444C16.6928 19.2148 16.4522 19.0707 16.1895 19.0664C15.9267 19.0622 15.6816 19.1984 15.5466 19.4239C15.3716 19.7217 15.2309 20.0383 15.1271 20.3677C14.5496 20.3373 14.0943 19.865 14.085 19.2868V19.2684C14.0847 19.0749 14.007 18.8896 13.8692 18.7537C13.7315 18.6177 13.5452 18.5425 13.3517 18.5446C12.9449 18.5486 12.6175 18.88 12.6184 19.2868C12.6216 20.5873 13.6024 21.6773 14.8954 21.8175C14.898 22.0633 14.9203 22.3085 14.9621 22.5508C13.3247 22.9051 11.6265 22.3166 10.5595 21.025C9.49246 19.7335 9.23493 17.9547 9.89184 16.4136C10.0559 16.5795 10.239 16.7255 10.4374 16.8484C10.7839 17.0513 11.2291 16.938 11.4362 16.5941C11.6434 16.2502 11.5356 15.8036 11.1942 15.5922V15.5952ZM7.96757 21.486C8.30564 21.4362 8.6547 21.3922 9.00157 21.3467C10.3574 23.5134 12.9507 24.5655 15.4329 23.9559C16.0999 25.2217 17.3186 26.1045 18.7293 26.3436C20.14 26.5827 21.5815 26.1508 22.6284 25.1754C23.1267 25.3241 23.64 25.417 24.1588 25.4526C24.513 26.7961 25.5368 27.6101 27.6876 28.331C28.2675 28.5127 28.7847 28.8534 29.1807 29.3144C29.6209 29.8378 30.2685 30.142 30.9524 30.1467C31.2516 30.1466 31.5476 30.0862 31.8229 29.9692C32.6542 29.614 33.1934 28.7971 33.1935 27.8932C33.1942 27.6574 33.1565 27.4231 33.082 27.1994C32.9171 26.6813 32.6999 26.1813 32.4338 25.7071C33.6808 24.8106 34.5495 23.4821 34.8706 21.9803C35.0268 21.7947 35.1681 21.5971 35.293 21.3892C35.5387 21.4208 35.7844 21.4486 36.0315 21.4897L38.6788 37.4133C33.5041 35.6853 27.908 35.6853 22.7332 37.4133V28.2334C22.7332 27.8284 22.4049 27.5001 21.9999 27.5001C21.5949 27.5001 21.2666 27.8284 21.2666 28.2334V37.4162C16.0924 35.6867 10.4964 35.6846 5.32097 37.4104L7.96757 21.486ZM1.94397 40.4302C1.8054 40.2628 1.74892 40.0423 1.78997 39.8289L5.00124 23.3421H6.17457L3.87337 37.172C3.79243 37.6754 3.97778 38.1848 4.36329 38.5185C4.74879 38.8522 5.27952 38.9626 5.7661 38.8103C9.67551 37.5437 13.8404 37.2795 17.8786 38.0418L17.66 40.7001H2.51524C2.294 40.7002 2.08436 40.6012 1.94397 40.4302ZM21.9999 42.1668C20.2333 42.1668 19.2198 41.6446 19.071 41.4122L19.3232 38.3688C20.1296 38.5696 20.9187 38.8342 21.6831 39.1601C21.782 39.2077 21.8902 39.2328 21.9999 39.2334C22.1099 39.2333 22.2185 39.2082 22.3174 39.1601C23.0814 38.8323 23.8703 38.566 24.6766 38.3637L24.9288 41.4114C24.78 41.6446 23.7665 42.1668 21.9999 42.1668ZM42.0558 40.4302C41.9155 40.6012 41.7058 40.7002 41.4846 40.7001H26.342L26.122 38.0366C30.1623 37.2759 34.3291 37.5424 38.2396 38.8118C38.726 38.962 39.2556 38.8501 39.6396 38.5158C40.0237 38.1815 40.2075 37.6724 40.1257 37.1698L37.8267 23.3428H39L42.212 39.8282C42.2527 40.0421 42.1954 40.263 42.0558 40.4302Z" fill="#1C1D5D"/>
<path d="M19.5696 17.0023C19.2694 17.274 19.2461 17.7375 19.5175 18.0378C20.1396 18.7247 20.9617 19.1987 21.8678 19.393C21.4575 19.9713 20.792 20.3144 20.0829 20.3133C19.6779 20.3133 19.3496 20.6417 19.3496 21.0467C19.3496 21.4517 19.6779 21.78 20.0829 21.78C21.601 21.7861 22.9632 20.8484 23.4995 19.4282C25.323 19.126 26.7666 17.7225 27.12 15.9082C27.1746 15.6487 27.0848 15.38 26.8853 15.2053C26.6857 15.0307 26.4074 14.9774 26.1574 15.066C25.9075 15.1546 25.7248 15.3712 25.6797 15.6325C25.5359 16.3888 25.0995 17.0579 24.4653 17.4944C23.2452 18.3161 21.6089 18.1296 20.605 17.0544C20.3334 16.7542 19.8699 16.7309 19.5696 17.0023Z" fill="#1C1D5D"/>
<path d="M17.0131 16.2067C17.4181 16.2067 17.7465 15.8784 17.7465 15.4734C17.7465 14.9677 17.9473 14.4828 18.3049 14.1252C18.6625 13.7676 19.1474 13.5667 19.6531 13.5667C20.0581 13.5667 20.3865 13.2384 20.3865 12.8334C20.3865 12.4284 20.0581 12.1001 19.6531 12.1001C17.7909 12.1021 16.2818 13.6112 16.2798 15.4734C16.2798 15.6679 16.357 15.8544 16.4946 15.9919C16.6321 16.1295 16.8186 16.2067 17.0131 16.2067Z" fill="#1C1D5D"/>
<path d="M22.7331 1.83338V1.10005C22.7331 0.695039 22.4048 0.366714 21.9998 0.366714C21.5948 0.366714 21.2665 0.695039 21.2665 1.10005V1.83338C21.2665 2.23839 21.5948 2.56671 21.9998 2.56671C22.4048 2.56671 22.7331 2.23839 22.7331 1.83338Z" fill="#1C1D5D"/>
<path d="M34.034 5.62909L33.3007 6.36243C33.11 6.54655 33.0336 6.8192 33.1007 7.0756C33.1678 7.33199 33.368 7.53223 33.6244 7.59934C33.8808 7.66645 34.1535 7.58999 34.3376 7.39936L35.071 6.66603C35.2616 6.4819 35.3381 6.20925 35.2709 5.95285C35.2038 5.69646 35.0036 5.49623 34.7472 5.42912C34.4908 5.362 34.2181 5.43846 34.034 5.62909Z" fill="#1C1D5D"/>
<path d="M10.1808 7.61423C10.4773 7.61416 10.7447 7.43549 10.8581 7.16151C10.9716 6.88752 10.9089 6.57216 10.6992 6.36243L9.96591 5.62909C9.78179 5.43846 9.50913 5.362 9.25274 5.42912C8.99634 5.49623 8.79611 5.69646 8.729 5.95285C8.66189 6.20925 8.73834 6.48191 8.92897 6.66603L9.66231 7.39936C9.7998 7.5369 9.9863 7.61419 10.1808 7.61423Z" fill="#1C1D5D"/>
<path d="M15.8261 4.52836C15.9224 4.52816 16.0178 4.50923 16.107 4.47263C16.2867 4.39818 16.4295 4.25535 16.5039 4.07559C16.5783 3.89583 16.5782 3.69387 16.5037 3.51416L15.6611 1.48136C15.5646 1.23377 15.3417 1.05777 15.0784 1.02132C14.8152 0.984869 14.5529 1.09367 14.3927 1.30572C14.2325 1.51776 14.1996 1.79987 14.3066 2.0431L15.1485 4.0759C15.2621 4.34986 15.5295 4.52844 15.8261 4.52836Z" fill="#1C1D5D"/>
<path d="M29.2966 1.08459C28.9226 0.929858 28.4939 1.10743 28.3389 1.48132L27.4963 3.51412C27.4215 3.69391 27.4213 3.89606 27.4957 4.07599C27.5702 4.25593 27.7131 4.39887 27.893 4.47332C27.9821 4.50992 28.0775 4.52885 28.1739 4.52906C28.4705 4.52913 28.7379 4.35056 28.8515 4.07659L29.6934 2.04379C29.7681 1.864 29.7683 1.66185 29.6939 1.48192C29.6195 1.30199 29.4765 1.15904 29.2966 1.08459Z" fill="#1C1D5D"/>
<path d="M36.905 13.2602C37.0014 13.2601 37.0968 13.2409 37.1858 13.2038L39.2179 12.3619C39.46 12.2617 39.6302 12.0399 39.6645 11.7802C39.6987 11.5204 39.5918 11.2621 39.384 11.1026C39.1761 10.943 38.899 10.9065 38.6569 11.0067L36.6241 11.8486C36.2997 11.9818 36.1151 12.3261 36.1835 12.67C36.2519 13.0139 36.5543 13.2613 36.905 13.2602Z" fill="#1C1D5D"/>
<path d="M6.81398 13.2037C7.18821 13.3588 7.61733 13.1812 7.77245 12.807C7.92757 12.4327 7.74994 12.0036 7.37572 11.8485L5.34291 11.0066C4.96869 10.8517 4.53973 11.0295 4.38481 11.4037C4.2299 11.778 4.40768 12.2069 4.78191 12.3618L6.81398 13.2037Z" fill="#1C1D5D"/>
</svg>
