<svg width="206" height="80" fill="none" xmlns="http://www.w3.org/2000/svg"><g filter="url(#filter0_d)"><path d="M91.91 36.04v4.53L89.3 43h-5.64l-2.73-2.25V27.64l2.73-2.67h5.64l2.61 2.61v4.29h-4.2v-2.7h-2.55v9.6h2.55v-2.73h4.2zm12.744-8.46v12.99l-2.61 2.43h-5.64l-2.73-2.25V27.64l2.73-2.67h5.64l2.61 2.61zm-4.2 1.62h-2.55v9.6h2.55v-9.6zm18.412-1.65v12.99l-2.61 2.46h-9.66v-4.2h1.29v-9.66h-1.29v-4.2h9.66l2.61 2.61zm-4.23 1.59h-2.55v9.6h2.55v-9.6zm18.03-4.17v5.52h-4.2v-1.32h-2.55v2.7h4.56v4.23h-2.31c-.28-.02-.59-.03-.93-.03h-1.32v2.7h2.55v-1.29h4.2V43h-12.33v-4.23h1.38v-9.6h-1.38v-4.2h12.33zm4.284 0h5.61l2.61 2.61v2.94h-4.2V29.2h-2.55v2.7h3.93l2.82 2.88v5.76L142.56 43h-5.61l-2.73-2.25v-3.27h4.2v1.32h2.55v-2.7l-3.27-.03-3.48-2.85v-5.61l2.73-2.64zM153.955 43h-6.9v-4.2h1.35v-9.63h-1.35v-4.2h12.33v5.52h-4.2v-1.32h-2.55v2.7h4.56v4.23h-2.31c-.28-.02-.59-.03-.93-.03h-1.32v2.73h1.32V43zm17.76-15.42v12.99l-2.61 2.43h-5.64l-2.73-2.25V27.64l2.73-2.67h5.64l2.61 2.61zm-4.2 1.62h-2.55v9.6h2.55v-9.6zm11.722 0v2.7h2.52v-2.7h-2.52zm0 6.9V43h-5.58v-4.2h1.35v-9.6h-1.35v-4.23h9.09l3.24 2.49v4.47l-2.52 2.13 2.52 2.04v2.7l1.41.03V43h-5.64v-6.9h-2.52zm21.807-8.55v12.99l-2.61 2.46h-9.66v-4.2h1.29v-9.66h-1.29v-4.2h9.66l2.61 2.61zm-4.23 1.59h-2.55v9.6h2.55v-9.6z" fill="url(#paint0_linear)"/></g><g filter="url(#filter1_d)"><circle cx="42.205" cy="33.36" r="30" fill="#5870F2"/></g><path d="M51.706 23.968c-3.397-5.042-5.152-10.063-16.908 3.616-1.44 1.675-3.938.412-5.306-.475.89 1.008 2.926 3.391 4.466 4.35 1.54.957 2.855-.214 3.645-.978 9.875-9.562 10.023-10.726 14.103-6.513z" fill="#fff"/><path d="M25.684 49.166c-4.93-3.558-9.892-5.474 4.159-16.783 1.72-1.385.538-3.923-.304-5.319.979.923 3.295 3.035 4.203 4.605.908 1.57-.305 2.846-1.095 3.61-9.875 9.563-11.043 9.673-6.963 13.887zM58.2 16.369c4.93 3.557 9.891 5.473-4.16 16.782-1.72 1.385-.538 3.923.304 5.32-.979-.924-3.295-3.035-4.203-4.605-.908-1.57.305-2.847 1.095-3.611 9.875-9.562 11.043-9.673 6.963-13.886z" fill="#fff"/><path d="M32.177 41.566c3.397 5.043 5.151 10.064 16.907-3.616 1.44-1.674 3.938-.411 5.306.475-.89-1.008-2.926-3.391-4.466-4.35-1.54-.957-2.855.214-3.644.979-9.876 9.562-10.024 10.726-14.103 6.512z" fill="#fff"/><defs><filter id="filter0_d" x="80.433" y="24.94" width="121.107" height="19.053" filterUnits="userSpaceOnUse" color-interpolation-filters="sRGB"><feFlood flood-opacity="0" result="BackgroundImageFix"/><feColorMatrix in="SourceAlpha" values="0 0 0 0 0 0 0 0 0 0 0 0 0 0 0 0 0 0 127 0"/><feOffset dy=".497"/><feGaussianBlur stdDeviation=".248"/><feColorMatrix values="0 0 0 0 0 0 0 0 0 0 0 0 0 0 0 0 0 0 0.25 0"/><feBlend in2="BackgroundImageFix" result="effect1_dropShadow"/><feBlend in="SourceGraphic" in2="effect1_dropShadow" result="shape"/></filter><filter id="filter1_d" x="11.709" y="3.36" width="60.993" height="60.993" filterUnits="userSpaceOnUse" color-interpolation-filters="sRGB"><feFlood flood-opacity="0" result="BackgroundImageFix"/><feColorMatrix in="SourceAlpha" values="0 0 0 0 0 0 0 0 0 0 0 0 0 0 0 0 0 0 127 0"/><feOffset dy=".497"/><feGaussianBlur stdDeviation=".248"/><feColorMatrix values="0 0 0 0 0 0 0 0 0 0 0 0 0 0 0 0 0 0 0.25 0"/><feBlend in2="BackgroundImageFix" result="effect1_dropShadow"/><feBlend in="SourceGraphic" in2="effect1_dropShadow" result="shape"/></filter><linearGradient id="paint0_linear" x1="143" y1="28" x2="143" y2="43" gradientUnits="userSpaceOnUse"><stop stop-color="#5870F2"/><stop offset="1" stop-color="#001CB4"/><stop offset="1" stop-color="#5870F2" stop-opacity="0"/></linearGradient></defs></svg>