<svg width="28" height="28" fill="none" xmlns="http://www.w3.org/2000/svg"><circle opacity=".2" cx="14" cy="14" r="13.5" stroke="#fff"/><path d="M20.285 10.72a1.644 1.644 0 00-1.157-1.157c-1.027-.281-5.135-.281-5.135-.281s-4.108 0-5.135.27A1.678 1.678 0 007.7 10.72c-.27 1.026-.27 3.156-.27 3.156s0 2.14.27 3.157a1.644 1.644 0 001.157 1.157c1.038.281 5.135.281 5.135.281s4.108 0 5.135-.27a1.644 1.644 0 001.157-1.157c.27-1.027.27-3.157.27-3.157s.011-2.14-.27-3.168zm-7.6 5.124v-3.935l3.416 1.967-3.416 1.968z" fill="#fff"/></svg>