<svg width="24" height="24" fill="none" xmlns="http://www.w3.org/2000/svg"><circle cx="12" cy="12" r="12" fill="#1C1D5D"/><g clip-path="url(#clip0)" fill="#fff"><path d="M12.212 13.381c0-1.078-.513-1.874-1.572-2.173.773-.368 1.176-.926 1.176-1.793 0-1.71-1.279-2.128-2.754-2.128H5v8.588h4.175c1.566 0 3.037-.749 3.037-2.494zM6.893 8.753H8.67c.683 0 1.298.192 1.298.981 0 .73-.478 1.023-1.155 1.023h-1.92V8.753zm0 5.663v-2.365h2.064c.833 0 1.36.347 1.36 1.227 0 .867-.629 1.138-1.4 1.138H6.894zM15.964 16.037c1.49 0 2.455-.669 2.92-2.09H17.37c-.162.53-.833.81-1.354.81-1.003 0-1.53-.586-1.53-1.582h4.498c.008-.101.015-.21.015-.32 0-1.838-1.08-3.372-3.036-3.372-1.9 0-3.191 1.425-3.191 3.29 0 1.936 1.222 3.264 3.191 3.264zm-.053-5.265c.86 0 1.293.504 1.365 1.328H14.49c.056-.817.6-1.328 1.422-1.328zM14.14 7.738h3.492v.846H14.14v-.846z"/></g><defs><clipPath id="clip0"><path fill="#fff" transform="translate(5 4.662)" d="M0 0h14v14H0z"/></clipPath></defs></svg>