<svg width="24" height="24" fill="none" xmlns="http://www.w3.org/2000/svg"><circle cx="12" cy="12" r="12" fill="#1C1D5D"/><path fill-rule="evenodd" clip-rule="evenodd" d="M13.602 16.265l-5.03.002v-1.096l5.029-.003v1.097zM17 10.057L16.14 5l-1.059.187.86 5.057 1.06-.187zm-3.277 3.706l-5.008-.471-.099 1.092 5.008.47.099-1.091zm.33-1.43L9.196 11l-.279 1.059 4.857 1.332.279-1.059zm.634-1.255l-4.332-2.607-.546.944 4.332 2.608.546-.944zm1.062-.767l-2.833-4.24-.888.617 2.834 4.24.887-.617z" fill="#fff"/><path fill-rule="evenodd" clip-rule="evenodd" d="M14.456 12.659v4.48H7.859v-4.48H7V18h8.31v-5.341h-.854z" fill="#fff"/></svg>