<svg width="28" height="28" fill="none" xmlns="http://www.w3.org/2000/svg"><circle opacity=".2" cx="14" cy="14" r="13.5" stroke="#fff"/><g clip-path="url(#clip0)"><path d="M12.1 15.856l-.214 3.257c.308 0 .44-.142.6-.313l1.443-1.485 2.989 2.357c.548.33.934.156 1.082-.543l1.962-9.9c.175-.873-.292-1.215-.826-1L7.603 12.982c-.787.33-.775.802-.133 1.016l2.948.987 6.848-4.614c.323-.23.616-.103.375.127l-5.54 5.357z" fill="#fff"/></g><defs><clipPath id="clip0"><path fill="#fff" transform="translate(7 7)" d="M0 0h13v14H0z"/></clipPath></defs></svg>