<svg width="678" height="378" fill="none" xmlns="http://www.w3.org/2000/svg"><g clip-path="url(#clip0)"><path d="M302.13 387.618c44.705-9.868 91.597-8.711 135.756 3.473 22.534 6.214 43.794 15.9 65.539 24.428a539.009 539.009 0 0065.721 21.017 552.797 552.797 0 0075.987 13.524c1.154.122 1.154-1.705 0-1.827-46.406-4.996-92.204-15.9-135.877-32.47-22.049-8.346-43.43-18.397-66.025-25.099-21.442-6.335-43.673-10.051-66.025-11.148-25.329-1.279-50.78.914-75.501 6.336-1.154.244-.668 2.01.425 1.766z" fill="#1C1D5D"/><path d="M349.468 336.142c28.791-5.787 57.339 3.594 84.976 10.661 28.002 7.188 56.489 10.478 85.341 7.615 28.67-2.864 56.367-11.027 84.43-17.24 28.973-6.458 58.432-10.905 88.013-13.22 32.8-2.619 65.782-2.619 98.643-.122 1.154.061 1.154-1.766 0-1.827-58.311-4.386-117.169-.792-174.508 10.782-28.852 5.849-57.157 14.499-86.374 18.642-29.823 4.203-59.769 2.375-88.985-4.752-30.066-7.371-60.801-18.519-92.083-12.245-1.093.122-.607 1.889.547 1.706zM272.858 216.678c32.436 3.35 64.507-3.838 95.91-11.088 16.035-3.716 32.131-7.432 48.41-9.868 16.825-2.498 33.893-3.412 50.901-2.62a263.996 263.996 0 0156.792 8.955c1.154.305 1.64-1.462.486-1.767-32.496-8.833-66.572-11.452-99.979-7.493-32.618 3.838-64.081 13.768-96.395 19.251-18.526 3.168-37.295 4.691-56.064 2.741-1.215-.061-1.215 1.767-.061 1.889zM260.664 300.87c24.478 4.264 48.592-4.325 72.949-5.666 25.694-1.462 51.266 2.742 76.473 6.945 1.154.183 1.64-1.584.486-1.766-24.661-4.082-49.564-8.164-74.65-7.128-24.904 1.036-49.808 10.234-74.833 5.848-1.093-.183-1.579 1.584-.425 1.767zM460.66 265.283c47.864 11.819 97.61 6.884 145.413-2.741 49.261-9.93 97.428-25.098 147.114-32.896 28.184-4.447 56.854-6.336 85.341-3.472 1.154.121 1.154-1.706 0-1.828-49.807-4.995-99.372 4.691-147.6 16.265-48.593 11.697-96.942 25.464-146.993 29.059-27.758 1.949-55.699.609-82.789-6.092-1.154-.366-1.64 1.401-.486 1.705z" fill="#1C1D5D" opacity=".5"/><path d="M402.535 46.229c-1.154 7.127 2.005 13.828 6.196 19.372 4.251 5.604 10.022 10.173 17.129 11.209 1.154.183 1.64-1.584.485-1.767-6.134-.853-11.237-4.508-15.124-9.199-4.313-5.239-8.079-12.061-6.924-19.067.182-1.218-1.58-1.706-1.762-.548z" fill="#1C1D5D"/><path d="M404.114 46.229a14.288 14.288 0 015.953-2.68c1.154-.244.668-2.011-.486-1.767-2.49.487-4.738 1.584-6.742 3.107-.911.791.364 2.07 1.275 1.34z" fill="#1C1D5D"/><path d="M410.371 43.67c5.406 1.462 10.326 7.798 13.424 12.184 3.219 4.569 5.648 9.625 7.288 14.925.365 1.096 2.126.67 1.762-.487-1.883-6.092-4.738-11.88-8.625-16.936-3.28-4.325-7.957-9.99-13.363-11.453-1.154-.304-1.64 1.462-.486 1.767z" fill="#1C1D5D"/><path d="M426.224 76.932a17.87 17.87 0 006.014-4.874c.729-.914-.547-2.193-1.276-1.279a16.228 16.228 0 01-5.588 4.569c-1.154.548-.182 2.071.85 1.584z" fill="#1C1D5D"/><path d="M406.969 43.792c-.182 7.006 3.705 14.011 7.836 19.433 3.887 5.117 9.354 9.016 16.035 8.894 1.154 0 1.154-1.827 0-1.827-6.742.121-11.966-4.265-15.61-9.565-3.341-4.934-6.56-10.782-6.439-16.935 0-1.157-1.822-1.157-1.822 0z" fill="#1C1D5D"/><path d="M405.025 54.575c.912-1.097 2.005-1.95 3.28-2.62 1.033-.487.122-2.071-.911-1.584-1.397.67-2.672 1.645-3.644 2.863-.729.914.547 2.254 1.275 1.34zM404.054 50.432c1.154-.853 2.308-1.462 3.705-1.828 1.154-.304.668-2.071-.486-1.766a13.667 13.667 0 00-4.13 2.01c-.912.67-.061 2.254.911 1.584zM410.491 65.845c1.276-1.036 2.612-2.072 3.888-3.107.911-.731-.365-2.01-1.276-1.28-1.275 1.036-2.612 2.072-3.887 3.107-.972.731.364 2.01 1.275 1.28zM414.137 69.865l3.098-2.376c.364-.304.607-.792.303-1.279-.243-.365-.85-.61-1.275-.305l-3.098 2.376c-.365.305-.608.792-.304 1.28.243.365.851.609 1.276.304zM420.576 74.434c1.032-1.036 2.125-2.01 3.158-3.046.85-.792-.425-2.132-1.275-1.28-1.033 1.036-2.126 2.011-3.159 3.047-.85.792.425 2.132 1.276 1.279zM410.674 47.569c1.155 1.035 2.248 2.132 3.402 3.168-.061-.366-.122-.731-.122-1.097-1.214 1.95-1.883 4.447-.243 6.396a4.125 4.125 0 002.309 1.402c.425.06.789 0 1.214 0 .304-.061.547-.183.851-.244 3.341-.548 3.948.731 1.761 3.777-1.093.426-.607 2.193.486 1.767 2.248-.853 3.827-3.35 2.491-5.666-.608-1.096-1.883-1.888-3.098-1.95-.425-.06-.851.062-1.276.062-1.458.792-2.733.182-3.826-1.706.06-1.036.364-1.95.971-2.741.183-.305.122-.853-.121-1.097-1.154-1.036-2.247-2.132-3.402-3.168-.971-.974-2.247.305-1.397 1.097z" fill="#1C1D5D"/><path d="M421.304 62.25c1.032 1.219 2.004 2.376 3.037 3.595.728.913 2.065-.427 1.275-1.28-1.032-1.218-2.004-2.376-3.037-3.594-.729-.914-2.004.427-1.275 1.28zM461.879 33.862c-5.345-4.203-8.625-16.143-4.13-21.809 5.284-6.518 15.793-9.32 21.684-2.376 4.92 5.788 5.224 14.864 1.519 21.383-2.247 3.96-5.527 5.848-10.083 5.909-3.948.06-7.714-1.462-10.447-4.386-.79-.853-2.066.426-1.276 1.28 4.434 4.75 12.391 6.517 18.283 3.471 6.135-3.228 8.443-12 7.714-18.397-.729-6.458-4.677-13.402-11.358-15.108-6.439-1.645-15.975 2.985-18.83 9.016-1.762 3.716-1.093 8.163-.182 12.062.911 3.899 2.49 7.615 5.709 10.113.972.852 2.308-.427 1.397-1.158z" fill="#1C1D5D"/><path d="M466.981 10.957c0-.061-.061-.183-.061-.244-.121.365-.304.67-.425 1.035-.547-.182-.608-.121-.243.366.364.61.607 1.218.85 1.888.182-.365.425-.73.608-1.096-2.369.73-5.345 2.376-4.495 5.36.243.915.85 1.707 1.761 2.011.729.305 1.154 0 1.883-.06 1.094-.55 2.248-.366 3.341.608.911 2.68.182 4.021-2.247 4.204-.729 0-1.094.792-.79 1.4a20.522 20.522 0 011.336 3.169c.365 1.096 2.126.67 1.762-.488a15.605 15.605 0 00-1.519-3.594c-.243.488-.546.914-.789 1.401 2.915-.06 5.709-2.802 4.494-5.848-.546-1.401-1.822-2.498-3.28-2.802-.85-.183-1.579.183-2.368.183-1.519 0-1.944-.305-1.154-1.767.728-1.34 1.154-1.523 2.551-1.95.425-.121.789-.67.607-1.096-.425-1.219-.85-2.924-2.065-3.533-.304-.122-.668-.183-.911 0-.061.06-.183.122-.243.182-.365.244-.486.61-.425 1.036 0 .06.06.183.06.244.243.974 2.005.487 1.762-.61z" fill="#1C1D5D"/><path d="M472.691 5.778c9.232-2.375 14.031 7.615 14.213 15.23.061 3.473-.243 7.371-2.308 10.296-2.248 3.167-6.257 4.142-9.597 5.604-1.094.487-.122 2.071.911 1.584 4.009-1.767 8.382-2.924 10.751-7.006 2.247-3.899 2.43-9.077 1.883-13.463-.972-8.041-7.35-16.326-16.279-14.011-1.154.304-.668 2.071.426 1.766z" fill="#1C1D5D"/><path d="M482.834 30.45l2.551-.548c1.155-.243.669-2.01-.485-1.766l-2.552.548c-1.154.244-.668 2.01.486 1.767zM485.021 23.445c.972-.305 1.944-.61 2.855-.975 1.093-.365.607-2.132-.486-1.766-.972.304-1.944.609-2.855.974-1.093.366-.607 2.132.486 1.767zM484.413 18.023c.608-.122 1.276-.244 1.883-.365.486-.061.729-.67.608-1.097-.122-.487-.608-.73-1.094-.61-.607.123-1.275.245-1.883.366-.485.061-.728.67-.607 1.097.122.487.607.67 1.093.61zM480.769 10.347c1.154.183 2.248.122 3.341-.243 1.093-.366.607-2.133-.486-1.767-.79.244-1.579.365-2.369.244-.486-.061-.972.121-1.093.609-.182.426.121 1.096.607 1.157zM470.687 125.606c-7.957-2.315-13.12-10.113-13.242-18.276-.182-9.32 7.897-17.3 17.129-13.158 7.775 3.472 10.751 12.61 10.994 20.59.122 3.838-.546 8.468-4.009 10.722-3.583 2.376-8.26 1.462-12.087.244-1.093-.366-1.579 1.401-.486 1.766 6.196 2.011 14.031 2.133 17.129-4.812 2.976-6.64 1.093-16.144-2.308-22.236-3.402-6.152-10.691-10.904-17.919-8.772-7.531 2.254-10.933 10.478-10.083 17.788.912 8.224 6.439 15.657 14.457 17.971 1.093.305 1.579-1.462.425-1.827z" fill="#1C1D5D"/><path d="M466.677 98.619c1.519 1.645 2.612 3.35 3.402 5.422l1.093-1.097c-2.916-.609-4.434 1.889-4.252 4.569.061.914.243 2.01 1.154 2.498.668.365 1.64.121 2.308.121.729-.06 1.397-.121 2.126-.06 3.219.243 3.645 1.644 1.337 4.203-.608.061-1.215.731-.79 1.401 1.093 1.706 2.126 3.472 2.976 5.3.486 1.036 2.065.122 1.579-.914-.911-1.827-1.883-3.594-2.976-5.3-.243.488-.546.914-.789 1.401 2.551-.304 4.677-2.68 3.34-5.299-.607-1.158-1.761-1.889-2.915-2.254-.911-.305-1.822-.305-2.734-.305-.728.061-1.397.122-2.126.183-1.154-1.401-.728-2.62 1.337-3.655.607.121 1.397-.427 1.093-1.097-.911-2.376-2.126-4.386-3.887-6.214-.79-1.035-2.065.244-1.276 1.097z" fill="#1C1D5D"/><path d="M460.36 94.537c-7.836 6.762-10.265 18.398-4.373 27.231 5.709 8.59 17.189 11.087 25.875 5.483.972-.609.061-2.193-.911-1.584a16.985 16.985 0 01-23.871-5.605c-4.859-8.163-2.369-18.214 4.616-24.245.851-.731-.425-2.01-1.336-1.28z" fill="#1C1D5D"/><path opacity=".14" d="M465.219 93.745a26.72 26.72 0 00-2.308 11.819c.061 1.584.486 10.417 6.864 16.387 4.373 4.081 8.989 4.325 8.807 5.726-.243 1.523-5.952 2.742-11.115 1.462-5.649-1.401-10.691-5.909-12.877-11.818-.547-1.523-2.734-7.615.303-14.255 3.098-6.64 9.172-8.955 10.326-9.32z" fill="#1C1D5D"/><path opacity=".15" d="M407.941 43.61c.243 2.314.85 5.908 2.429 9.99 1.58 3.899 4.313 10.904 11.42 14.925 1.761.975 5.102 2.559 9.961 2.802-.425.853-1.458 2.498-3.401 3.777a10.283 10.283 0 01-3.28 1.34 32.856 32.856 0 01-10.144-5.056c-2.49-1.888-8.261-6.335-10.751-14.438-1.397-4.569-1.276-8.711-.79-11.818 1.458-.548 2.976-1.035 4.556-1.523z" fill="#1C1D5D"/><path opacity=".14" d="M473.723 4.438c1.822.975 4.98 3.046 7.167 6.884 3.098 5.3 2.43 10.54 2.126 13.098-.304 2.315-.729 5.726-3.28 9.016a14.562 14.562 0 01-3.948 3.594c1.336-.06 4.738-.487 7.532-3.107 2.186-2.071 2.855-4.447 3.583-7.066 1.154-4.143.79-7.493.669-8.65-.486-3.534-1.762-6.032-2.126-6.702-1.154-2.193-2.673-4.995-5.892-6.396-2.369-1.036-4.617-.853-5.831-.67z" fill="#1C1D5D"/><path d="M598.667 267.365c.607 5.909 1.215 15.717.121 27.779-1.64 18.032-6.256 31.129-7.835 35.82-12.938 38.013-19.194 87.906-22.11 111.543-2.065 16.752-4.373 41.79-3.826 72.98-3.402 1.889-14.7 7.676-29.52 5.3-13.728-2.193-22.292-9.929-25.208-12.793-1.518-46.846 2.43-84.372 6.56-110.628 4.374-28.145 10.63-56.655 17.797-85.409 4.252-17.179 8.504-34.297 12.817-51.476 17.007 2.254 34.136 4.569 51.204 6.884z" fill="#EC615B"/><path opacity=".13" d="M598.059 285.701c-2.004 7.981-5.224 19.921-9.597 34.176-14.456 46.664-27.455 70.909-37.234 96.861-8.747 23.149-18.465 57.142-21.259 102.466a41.795 41.795 0 0013.241 2.01c10.022-.122 17.554-3.838 21.26-6.031.425-29.972 2.368-55.132 4.434-74.321 1.64-15.474 3.28-30.581 7.228-50.624 4.738-24.124 7.106-36.186 12.026-50.258 3.341-9.381 7.35-18.946 9.233-33.749.911-8.529.85-15.656.668-20.53z" fill="#1C1D5D"/><path d="M623.084 254.572a149.655 149.655 0 019.597 26.073c4.617 17.484 4.677 31.373 4.799 36.308.729 40.206 11.844 89.246 17.068 112.395 3.705 16.509 10.083 40.755 21.199 69.935-2.552 2.924-11.237 12.184-25.997 15.108-13.667 2.68-24.357-1.706-28.002-3.412-17.311-43.557-26.361-80.169-31.464-106.242-5.466-27.962-9.232-56.898-12.33-86.383-1.822-17.606-3.644-35.211-5.467-52.756 16.886-3.716 33.772-7.371 50.597-11.026z" fill="#EC615B"/><path opacity=".17" d="M592.411 261.577c8.2 34.42 16.339 68.839 24.418 103.258a21192.96 21192.96 0 0134.44 149.068 40.337 40.337 0 009.597-3.228 42.723 42.723 0 0014.396-11.27c-4.192-11.148-9.294-25.891-14.396-43.375-9.901-33.81-14.578-60.614-16.4-71.945-3.341-20.59-5.345-32.957-6.013-50.623-.426-11.94.121-17.85-1.58-30.155-.729-5.239-2.854-18.337-8.443-34.541a212.665 212.665 0 00-5.588-14.438c-10.083 2.437-20.226 4.873-30.431 7.249z" fill="#1C1D5D"/><path opacity=".15" d="M636.083 321.095c-.182 45.507 3.401 96.252 13.606 150.714 2.551 13.585 5.345 26.682 8.443 39.353 1.822-.548 3.887-1.279 6.013-2.437 5.406-2.802 9.05-6.518 11.237-9.259-6.256-17.606-12.27-36.491-17.615-56.655a731.864 731.864 0 01-21.684-121.716z" fill="#1C1D5D"/><path d="M554.569 127.312c-8.443 6.823-12.148 15.291-14.335 20.347-6.864 15.778-5.406 30.216-4.556 37.892 2.187 19.676 8.929 22.905 12.27 41.424 1.761 9.93 2.43 23.028-1.397 39.354 2.612 2.315 22.717 19.555 49.382 14.377 15.732-3.046 25.815-12.367 29.763-16.509 1.397-39.293-.85-71.702-3.523-95.521-3.098-27.718-6.317-39.597-16.461-46.481-14.213-9.625-37.173-6.153-51.143 5.117z" fill="#fff" stroke="#1C1D5D" stroke-width="2" stroke-miterlimit="10"/><path opacity=".14" d="M583.238 115.737c3.827 7.676 8.504 18.398 12.391 31.739 9.84 33.81 7.836 61.772 6.803 71.519-2.794 27.414-11.237 48.857-18.04 62.686 4.252.121 9.78-.244 16.036-2.011 12.695-3.594 20.955-11.148 24.843-15.29.546-21.017.364-38.684 0-51.842 0 0-.486-19.312-4.009-51.05-2.43-22.053-4.13-29.242-10.022-35.394-8.625-8.895-21.138-10.235-28.002-10.357z" fill="#1C1D5D"/><path opacity=".17" d="M618.104 144.674c-1.033.061.242 15.595-1.215 44.592-1.883 37.526-6.196 52.939-7.593 57.873a164.454 164.454 0 01-13.241 32.166c3.28-.244 7.653-.914 12.391-2.803 8.989-3.594 14.578-9.564 17.25-12.854.365-12.122.547-29.911-.425-51.415-1.579-34.846-5.71-67.681-7.167-67.559z" fill="#1C1D5D"/><path d="M542.118 170.26c-4.556 4.447-6.925 9.199-8.079 12.001-2.733 6.579-2.794 12.184-2.794 15.169 0 8.041 2.187 13.828 4.556 20.286a87.835 87.835 0 008.989 17.605c.972.305 2.43.671 4.191.731 1.701 0 3.037-.243 4.07-.548-.607-3.838-1.154-7.615-1.761-11.453 1.032.244 2.611.549 4.555.853 9.172 1.401 16.643.427 21.077-.182 2.065-.305 4.981-.732 8.443-1.584-.304 2.315-.607 4.569-.85 6.883 3.341 1.889 4.798 1.158 5.284.853.972-.609 1.094-1.705 2.308-5.482.547-1.767 1.094-3.168 1.397-4.082 1.337-.548 2.673-1.036 4.07-1.584-.364 1.279-.729 2.559-1.033 3.899 1.033.244 2.734.548 4.738.183 1.154-.183 2.065-.549 2.794-.853.79-2.863 1.64-5.727 2.43-8.651 2.308-2.497 4.495-3.655 6.135-4.203 1.822-.67 2.429-.426 3.887-1.218 2.976-1.706 4.009-4.935 4.191-5.666.243-.792 1.033-3.777-.364-6.701-.79-1.645-1.336-1.401-2.976-3.899-1.397-2.071-1.337-2.802-2.612-5.117-.668-1.096-1.701-2.741-3.341-4.569 1.154-3.411 2.187-4.995 2.976-5.787.182-.183.729-.731.729-1.401 0-.609-.546-1.158-1.397-1.767-2.065-1.462-3.341-2.315-5.102-2.132-2.248.305-3.584 2.071-3.887 2.437-.912-1.523-2.248-3.655-4.192-5.788-6.134-6.762-13.484-9.32-16.703-10.234-12.209-3.411-22.657 1.097-28.974 3.899-3.462 1.462-8.139 3.533-12.755 8.102z" fill="#fff"/><path d="M536.165 216.741c-3.644-9.869-5.102-20.773-2.065-31.008 2.916-9.686 9.415-17.362 18.587-21.565 9.232-4.264 20.409-7.371 30.431-4.813 8.746 2.254 16.278 7.981 20.712 15.9.547 1.036 2.126.122 1.58-.913-7.472-13.403-22.839-19.982-37.66-16.936-8.382 1.706-17.493 4.691-24.114 10.234-6.013 5.057-10.083 12.306-11.905 19.921-2.308 9.93-.85 20.225 2.673 29.667.425 1.036 2.186.61 1.761-.487z" fill="#1C1D5D"/><path d="M588.402 193.226c-.243-2.497-.122-8.772 3.219-9.259 2.065-.305 3.402 2.376 5.71 2.193 1.154-.122 1.154-1.95 0-1.828-1.58.183-2.673-1.462-4.07-2.071-1.336-.548-2.612-.305-3.705.609-2.794 2.315-3.219 7.006-2.916 10.356.061 1.158 1.883 1.158 1.762 0z" fill="#1C1D5D"/><path d="M595.995 184.637c3.462-1.462 5.71 2.315 2.43 4.142-1.094.61-2.43.975-3.645 1.402-2.429.852-4.92 1.705-7.349 2.558-1.094.366-.608 2.132.486 1.767 3.158-1.097 6.377-2.132 9.536-3.351 1.64-.609 3.584-1.462 4.312-3.228 1.762-4.326-3.401-6.275-6.62-4.874-1.094.426-.182 2.01.85 1.584zM606.321 172.209c-1.64.975-3.523 2.498-3.037 4.691.182.914.79 1.584 1.64 2.01 1.275.67 2.551 1.036 3.766 1.95.911.731 2.186-.549 1.275-1.28-1.093-.852-2.247-1.462-3.462-2.01-.911-.426-1.701-.853-1.215-2.01.365-.853 1.276-1.341 2.005-1.767.972-.609.061-2.193-.972-1.584z" fill="#1C1D5D"/><path d="M605.046 178.362c-.486 3.107 1.579 6.701 5.163 5.97 1.458-.304 2.369-1.401 2.976-2.68.668-1.523.79-3.655 2.308-4.569.972-.609.061-2.193-.911-1.584-1.579.975-2.065 2.559-2.612 4.203-.364 1.097-.789 2.437-2.004 2.803-2.187.67-3.462-1.828-3.159-3.655.122-1.158-1.64-1.706-1.761-.488z" fill="#1C1D5D"/><path d="M606.38 174.402c2.612-2.863 6.135.061 8.018 2.133.79.852 2.065-.427 1.276-1.28-2.612-2.863-7.289-5.787-10.569-2.132-.79.853.486 2.132 1.275 1.279zM603.467 194.14c-.122 0-.122 0 0 0-.122-.061-.122-.061 0 0a.131.131 0 01-.122-.122c.061.061.061.061 0 0-.06-.061-.06-.121 0-.061v-.06c0-.122 0-.122 0 0v-.183c0 .122 0 .122 0 0-.06.122-.06.122 0 0-.121.061.122 0-.06.061.121-.061.121-.061 0 0 .121 0 .121 0 0 0h.182-.061c.061 0 .061 0 .122.061-.061-.061-.061 0 0 0 .06.061.121.061 0 0 .06.061.06.121 0 .061v-.061c-.061.121 0 .121 0 0-.061.061-.061.121 0 0l-.122.121c.122-.121-.121.061 0 0-.061 0-.121.061-.182.061.121 0 .121 0 0 0 .061.061.061 0 0 0-.972-.609-1.944.975-.911 1.584.972.609 2.247.183 2.794-.792.607-1.096-.061-2.375-1.215-2.68-1.032-.305-2.186.244-2.49 1.34-.243 1.036.364 2.193 1.458 2.498 1.275.243 1.761-1.523.607-1.828zM611.908 188.901c.121.061.243.122.304.244-.061-.122.06.183 0 .061v.061c0-.183-.061.243 0 0 .06-.183-.122.182 0 0 .06-.122-.122.121-.061.061-.122.121-.243.182-.425.121a.821.821 0 01-.243-.182c-.061-.061-.061-.061 0 0 0-.061-.061-.061-.061-.122.061.183 0-.244 0-.061s.061-.183 0 0 .061-.122 0-.061c-.061.122 0 0 .061-.061-.061.061-.061.061 0 0 .06-.061.121-.061.182-.061-.122.061.182 0 .243 0-.486-.122-1.033.122-1.093.609-.122.488.121 1.036.607 1.097.79.183 1.518-.305 1.761-1.097.183-.792-.121-1.644-.971-1.888-.79-.244-1.58.365-1.762 1.096-.243.792.182 1.584.972 1.889.425.122 1.033-.183 1.093-.609.122-.488-.121-.914-.607-1.097z" fill="#1C1D5D"/><path d="M610.937 183.358c2.004 2.314 3.28 5.056 3.827 8.102.243 1.157 2.004.67 1.761-.488-.607-3.35-2.126-6.335-4.313-8.894-.789-.914-2.065.427-1.275 1.28z" fill="#1C1D5D"/><path d="M615.371 192.617a6.205 6.205 0 002.855 1.523c1.154.244 1.64-1.523.486-1.766-.79-.183-1.458-.488-2.065-1.036-.851-.853-2.126.426-1.276 1.279z" fill="#1C1D5D"/><path d="M618.408 192.922c-4.313.426-8.018 2.924-9.536 7.127-1.276 3.594-.79 8.894 3.462 10.174 3.705 1.096 7.107-1.584 8.443-4.935 1.336-3.35 1.761-9.991-1.883-12.123-1.033-.609-1.944.975-.911 1.584 2.49 1.462 2.004 7.006 1.275 9.321-.85 2.741-3.34 5.361-6.438 4.325-3.584-1.218-3.159-6.092-1.762-8.833 1.458-2.802 4.252-4.386 7.289-4.752 1.215-.183 1.276-2.01.061-1.888z" fill="#1C1D5D"/><path d="M613.914 202.79v-.365a.936.936 0 00-.911-.914.936.936 0 00-.911.914v.365c0 .488.425.914.911.914a.895.895 0 00.911-.914zM618.772 199.44c-.121-.122-.242-.243-.303-.365-.304-.366-.972-.366-1.276 0a.886.886 0 000 1.279c.122.122.243.244.304.365.304.366.972.366 1.275 0 .365-.365.304-.913 0-1.279zM598.242 201.512c1.154 1.279 3.219.974 4.191-.366.304-.426.061-1.036-.304-1.279-.486-.244-.972-.061-1.275.304-.304.427-1.033.305-1.337-.061-.729-.792-2.065.549-1.275 1.402z" fill="#1C1D5D"/><path d="M600.246 201.694c1.337 3.899 5.831 5.788 9.537 4.021 1.032-.488.121-2.071-.912-1.584-2.611 1.218-5.891-.244-6.863-2.924-.425-1.097-2.187-.67-1.762.487zM612.091 208.761c-2.065 1.644-4.191 3.289-6.256 4.934-.911.731.364 2.01 1.275 1.279 2.066-1.644 4.192-3.289 6.257-4.934.972-.67-.365-1.949-1.276-1.279z" fill="#1C1D5D"/><path d="M605.531 214.487a53.588 53.588 0 00-2.551 8.59c-.243 1.157 1.519 1.645 1.761.487a53.55 53.55 0 012.552-8.589c.425-1.097-1.337-1.584-1.762-.488zM533.918 215.096c1.458 6.092 3.887 11.94 7.471 17.118 1.033 1.523 2.247 3.656 4.009 4.387 2.247.974 5.345.182 7.653-.183.365-.061.729-.548.668-.853-.364-3.838-.971-7.615-1.761-11.392-.243-1.157-2.005-.67-1.762.487.79 3.595 1.337 7.25 1.701 10.905.243-.305.425-.609.668-.853-2.612.427-5.588 1.097-7.714-.853-1.64-1.523-3.037-4.142-4.13-6.092-2.369-4.142-4.009-8.528-5.102-13.158-.243-1.158-2.005-.67-1.701.487z" fill="#1C1D5D"/><path d="M551.776 224.904c5.77 1.279 11.662 1.889 17.554 1.767 4.981-.122 11.541-.244 15.914-2.802 1.033-.61.122-2.193-.911-1.584-4.434 2.558-11.176 2.497-16.157 2.558-5.345.061-10.69-.548-15.975-1.705-1.093-.244-1.579 1.523-.425 1.766z" fill="#1C1D5D"/><path d="M584.635 220.274c-.486 2.803-1.093 5.727-1.154 8.59-.061 1.828.911 2.802 2.734 2.863 1.518.061 4.555-.061 5.466-1.401.729-1.157.911-3.168 1.276-4.447.425-1.462.911-2.985 1.336-4.447.365-1.157-1.397-1.584-1.761-.487a481.487 481.487 0 00-2.612 8.894l.607-.609c-1.032.304-2.247.731-3.341.67-1.822-.061-1.943-1.036-1.761-2.559.243-2.193.547-4.386.972-6.579.182-1.158-1.58-1.645-1.762-.488z" fill="#1C1D5D"/><path d="M593.14 222.163c3.037-.792 5.71-2.376 7.896-4.691.79-.853-.485-2.132-1.275-1.279-1.944 2.071-4.313 3.472-7.107 4.203-1.093.305-.668 2.072.486 1.767z" fill="#1C1D5D"/><path d="M596.116 219.665a12.117 12.117 0 00-.729 4.63c0 .488.425.914.911.914 2.005 0 4.009-.244 6.013-.609 1.155-.244.669-1.95-.485-1.767-1.823.366-3.645.488-5.528.548l.911.914c-.06-1.462.122-2.802.608-4.142.486-1.097-1.276-1.584-1.701-.488zM550.925 171.296c7.897-3.107 16.158-4.813 24.601-5.179 1.154-.061 1.154-1.888 0-1.827a75.316 75.316 0 00-25.086 5.239c-1.094.426-.608 2.193.485 1.767z" fill="#1C1D5D"/><path d="M551.351 169.102l-.121-.121c.06.365.121.731.121 1.096.729-1.706 4.495-2.071 6.074-2.376 2.065-.426 4.131-.792 6.196-1.096 4.616-.731 9.293-1.219 13.909-1.523 1.154-.061 1.154-1.889 0-1.828-5.406.366-10.751.975-16.096 1.889-2.794.487-10.326.913-11.662 4.02-.182.366-.182.792.121 1.097l.122.122c.85.792 2.186-.488 1.336-1.28z" fill="#1C1D5D"/><path opacity=".12" d="M603.344 172.453c-.243 6.64-2.308 10.113-4.252 12.001-1.032 1.036-1.457 1.036-5.406 4.265-5.588 4.508-5.952 5.482-6.134 6.152-.669 3.229 2.794 4.691 3.037 8.468.303 4.325-3.888 7.98-6.135 9.869-11.237 9.686-34.076 7.676-37.842 7.31.851 5.117 1.701 10.235 2.612 15.291 1.093.304 2.612.548 3.28-.244.668-.731.243-1.949-.243-4.447-.668-3.533-.972-5.361-.486-6.153 1.337-2.071 7.046-.122 11.966.731 4.677.792 11.541.975 20.47-1.888.182 2.071.304 4.081.486 6.153h6.135c.728-2.681 1.397-5.361 2.125-8.042 1.398-.792 2.795-1.584 4.252-2.375a612.446 612.446 0 01-.911 4.69c2.187-.061 4.374-.182 6.56-.243.061-1.767.547-5.422 3.037-8.955.911-1.28 2.551-3.534 5.406-4.691 1.822-.731 2.369-.305 4.252-1.158.85-.365 3.159-1.645 4.677-4.264 1.458-2.498 2.308-6.518.486-9.199-.972-1.401-1.579-.853-3.28-2.619-1.883-1.95-1.458-2.985-3.766-7.311-1.579-2.985-2.126-3.106-2.126-4.264.122-2.924 3.827-3.838 3.523-5.909-.304-2.498-6.013-3.472-6.317-3.533a15.839 15.839 0 00-5.406.365z" fill="#1C1D5D"/><path opacity=".14" d="M601.704 186.586c-.243 1.34-.85 3.594-2.612 5.666-.972 1.157-2.186 2.558-4.252 2.802-2.247.304-4.009-1.036-4.434-1.401 3.827-2.376 7.532-4.691 11.298-7.067z" fill="#1C1D5D"/><path d="M591.378 219.421c-1.275.731-2.247 2.315-2.126 3.655.304 2.864 5.831 4.204 5.649 4.813-.182.548-4.13-1.158-8.321.365-.668.244-2.855 1.036-3.037 2.437-.122 1.097 1.093 1.401 1.397 3.168.243 1.218-.304 1.34-.365 3.533-.06 1.462-.06 2.376.486 3.29.729 1.157 1.579.914 2.248 2.01.789 1.28-.243 2.072.364 3.655.607 1.645 2.369 2.681 3.766 3.046 1.579.427 2.43-.122 2.916.488.728.913-.972 2.497-.365 4.02.547 1.341 2.551 1.706 3.28 1.767 5.042.366 9.476-11.209 9.719-11.879 1.883 0 4.13-.183 6.56-.792 5.649-1.462 9.232-4.691 13.606-8.59 2.247-2.01 5.041-4.569 7.957-8.589 3.948-5.483 5.709-10.357 7.289-14.682 1.336-3.777 3.28-9.503 3.887-17.179.547-7.919-.668-13.828-1.762-19.007-2.733-12.793-7.653-21.443-8.807-23.392-.182-.305-3.827-5.057-11.115-14.56-3.706-4.813-7.046-9.016-10.995-8.833-.425 0-1.214.061-2.126.609-2.854 1.645-3.097 6.396-2.915 10.783.668 15.107 5.953 26.073 5.953 26.073 4.312 8.894 7.774 11.209 9.354 19.494.85 4.325.85 8.346.789 9.138 0 3.107-.121 7.249-1.761 12.244-.911 2.62-2.916 8.529-8.565 13.281-3.401 2.863-5.831 4.934-8.929 4.569-4.312-.488-7.896-5.361-12.087-5.422-.486 0-1.215.061-1.944.487z" fill="#fff"/><path d="M611.301 128.226c15.307 9.503 26.726 24.794 31.403 42.277 5.224 19.555 1.701 39.78-9.961 56.289-5.771 8.164-14.214 16.083-24.843 15.657-1.154-.061-1.154 1.766 0 1.827 9.05.366 16.643-4.934 22.413-11.453 6.56-7.432 11.662-16.63 14.335-26.195 5.467-19.677 1.215-41.546-10.083-58.421-5.831-8.651-13.424-16.022-22.292-21.504-1.093-.671-2.004.913-.972 1.523z" fill="#1C1D5D"/><path d="M622.355 205.715c-3.28 7.858-8.443 16.082-17.493 17.605-1.154.183-.668 1.95.486 1.767 9.658-1.645 15.185-10.478 18.708-18.885.486-1.036-1.275-1.523-1.701-.487z" fill="#1C1D5D"/><path d="M605.227 223.198c-4.13-.731-11.298-8.224-15.489-4.081-1.518 1.523-1.336 4.081-.425 5.848 1.336 2.619 4.252 3.533 6.864 4.203 1.154.305 1.64-1.462.486-1.766-2.308-.549-5.102-1.28-5.953-3.838-.486-.914-.304-1.767.486-2.437.365-1.279 1.215-1.706 2.551-1.157.972.182 1.883.609 2.734 1.035 2.794 1.401 5.102 3.412 8.26 3.96 1.154.244 1.64-1.523.486-1.767zM606.928 242.814c-2.005 2.924-3.949 5.909-5.953 8.833-.486.671-.911 1.341-1.519 1.95-.546.67-1.275 1.157-2.126 1.462-.85-1.279-1.639-2.559-2.49-3.838.365-1.097 2.916-2.559 3.766-3.351.911-.791-.425-2.071-1.276-1.279-1.761 1.584-4.98 3.351-5.102 6.031-.06 2.071 1.519 4.021 3.523 4.325 2.491.366 4.495-1.34 5.892-3.167 2.49-3.168 4.556-6.701 6.864-10.052.668-.975-.911-1.889-1.579-.914z" fill="#1C1D5D"/><path d="M596.237 227.341c-3.523 1.035-7.106.183-10.629.792-1.823.304-3.402 1.279-3.22 3.35.608 5.849 8.626 4.935 12.452 4.082 1.154-.244.668-2.01-.486-1.767-1.761.427-3.583.792-5.406.67-2.308-.182-7.289-3.107-2.49-4.63 1.64-.487 3.827-.06 5.467-.121 1.64 0 3.219-.183 4.798-.67 1.154-.305.668-2.072-.486-1.706z" fill="#1C1D5D"/><path d="M585.486 234.103c-2.673 1.888-2.916 6.091-.365 8.224 3.037 2.497 7.653.913 10.751-.61 1.033-.548.122-2.132-.911-1.583-2.004 1.035-4.677 2.071-6.985 1.523-2.612-.549-4.009-4.265-1.519-5.971.912-.67 0-2.254-.971-1.583z" fill="#1C1D5D"/><path d="M586.579 242.814c-.79 2.376.243 5.178 2.308 6.64 2.612 1.828 5.892.914 8.261-.913.911-.732 0-2.315-.911-1.584-1.701 1.279-4.009 2.375-6.014 1.157-1.64-.975-2.429-3.046-1.822-4.813.304-1.096-1.458-1.583-1.822-.487zM612.273 125.728c-7.775 11.087-5.102 25.281-.122 36.856 6.257 14.56 16.825 29.18 13.606 45.872-.243 1.157 1.519 1.645 1.762.487 2.794-14.559-4.434-27.84-10.63-40.45-6.256-12.732-12.148-28.876-3.037-41.851.668-.975-.911-1.889-1.579-.914z" fill="#1C1D5D"/><path d="M624.057 188.414a129.803 129.803 0 01-2.369 19.372c-.243 1.157 1.519 1.645 1.762.487 1.275-6.579 2.125-13.158 2.429-19.859.061-1.158-1.761-1.158-1.822 0z" fill="#1C1D5D"/><path opacity=".12" d="M622.903 136.084c3.037 5.909 6.681 14.499 8.99 25.342 3.037 14.377 2.186 25.891 1.64 31.069-1.276 11.94-2.369 22.235-10.083 32.409-3.22 4.325-9.78 12.976-20.652 15.839-7.411 1.888-14.882.609-15.793 3.533-.425 1.523.972 3.472 2.43 4.386 1.944 1.158 4.555.975 6.803-.548-2.187 1.523-3.219 3.655-2.734 5.178.426 1.34 1.944 2.071 2.977 2.193 4.98.67 9.961-10.843 10.326-11.696 1.943.061 4.859-.061 8.139-1.097 6.803-2.071 10.933-6.64 15.489-11.696 1.883-2.071 5.284-5.97 8.443-11.697 8.078-14.803 7.41-29.667 7.046-35.15-1.033-18.032-8.626-30.459-10.63-33.505-4.13-6.823-8.868-11.514-12.391-14.56z" fill="#1C1D5D"/><path opacity=".11" d="M646.287 188.109a109.92 109.92 0 01-10.873 23.697c-9.171 15.047-20.165 24.916-28.001 30.825 2.005.122 5.042.061 8.443-.792 11.541-3.046 17.676-13.158 20.105-17.179 3.159-5.239 4.373-9.625 6.499-17.179a122.604 122.604 0 003.827-19.372z" fill="#1C1D5D"/><path d="M550.013 130.541c-.972-1.158-8.929 4.02-14.334 8.102-6.56 4.934-12.209 9.199-17.615 16.935-7.168 10.235-9.354 20.165-10.083 24.246-.547 3.168-2.248 14.255 1.518 27.779 3.159 11.392 8.504 18.276 15.125 26.804 4.252 5.544 7.532 8.59 12.087 10.6a25.655 25.655 0 0010.569 2.254 931.113 931.113 0 004.556 6.58c1.457 2.071 2.308 3.228 3.765 4.569 1.397 1.279 3.584 3.167 5.285 2.497.911-.304 1.397-1.279 2.247-2.802.851-1.584.668-1.889 1.276-2.498 1.275-1.34 2.612-.487 4.312-1.523 1.701-1.096.912-2.558 3.038-5.543 1.64-2.315 2.551-2.133 3.037-3.777.485-1.828-.608-2.437-.243-4.813.364-2.376 1.7-3.168 1.275-4.021-.486-.913-2.369-.548-5.041-.487-4.86.061-9.051-1.157-9.051-1.767 0-.67 4.313-.06 6.56-2.802 1.276-1.584 1.823-4.264.729-5.543-1.275-1.584-4.616-.792-8.807.243-5.649 1.401-5.953 2.559-8.322 2.802-7.289.671-13.849-9.807-16.096-13.402-1.215-1.888-4.981-8.285-6.317-17.422-1.336-9.199.425-16.814 1.761-22.48.365-1.644.243-.852 2.794-9.625 4.495-15.595 4.192-15.534 5.285-18.214 4.495-10.844 11.662-15.596 10.69-16.692z" fill="#fff"/><path d="M548.373 129.932c-18.344 8.102-33.468 23.514-39.421 42.947-6.499 21.017-1.214 42.887 12.392 59.884 6.56 8.163 15.367 14.925 26.118 15.534 1.154.061 1.154-1.767 0-1.827-9.597-.549-17.554-6.458-23.628-13.585-6.56-7.737-11.845-17.24-14.213-27.109-4.86-19.799 1.154-40.999 14.577-56.107 6.986-7.858 15.611-13.95 25.208-18.214.972-.427.061-1.95-1.033-1.523z" fill="#1C1D5D"/><path d="M531.062 208.517c3.766 9.382 9.84 18.337 20.166 20.895 1.154.305 1.64-1.462.486-1.766-9.658-2.376-15.368-10.844-18.891-19.616-.425-1.036-2.186-.609-1.761.487z" fill="#1C1D5D"/><path d="M551.592 229.29c3.645-.243 6.56-2.071 9.962-3.167 2.247-.731 6.074-1.523 6.499 1.584.546 3.777-4.252 4.568-6.985 4.873-1.154.122-1.154 1.949 0 1.828 2.733-.305 5.77-.731 7.653-2.924 1.458-1.767 1.944-4.509.364-6.336-4.191-4.874-12.816 2.01-17.493 2.315-1.154.122-1.154 1.949 0 1.827zM546.794 247.81c2.369 3.533 4.556 7.31 7.168 10.661 1.579 2.071 3.705 4.02 6.499 3.838 2.065-.183 4.009-1.767 4.009-3.96.061-2.863-3.584-5.057-5.406-6.701-.85-.792-2.187.487-1.276 1.279 1.033.914 3.584 2.559 4.07 3.777.061 1.036.061 2.01.121 3.046-1.883.914-3.462.792-4.677-.366-.971-.731-1.64-1.583-2.368-2.619-2.309-3.229-4.374-6.579-6.56-9.869-.669-1.036-2.248-.122-1.58.914z" fill="#1C1D5D"/><path d="M560.765 234.286c3.462 1.279 7.106 1.096 10.69 1.705a9.63 9.63 0 011.822.366c.304.914.608 1.827.851 2.741-.243 1.097-3.645 1.401-4.374 1.401-2.308.061-4.555-.67-6.742-1.279-1.154-.305-1.579 1.401-.486 1.767 3.523 1.035 13.788 3.35 14.153-3.107.121-2.254-2.065-3.107-3.888-3.473-3.826-.791-7.835-.487-11.54-1.827-1.094-.427-1.58 1.34-.486 1.706z" fill="#1C1D5D"/><path d="M572.123 242.083c1.275.975 1.701 2.742.911 4.082-.79 1.34-2.308 1.706-3.766 1.706-2.49-.061-4.981-1.219-7.167-2.376-1.033-.548-1.944 1.035-.911 1.584 3.34 1.827 8.625 4.142 12.208 1.523 2.794-2.072 2.309-6.153-.303-8.103-1.033-.731-1.944.853-.972 1.584z" fill="#1C1D5D"/><path d="M569.571 249.576c.607 2.072-.79 4.204-2.855 4.752-2.247.609-4.495-.548-6.195-1.888-.911-.731-2.187.548-1.276 1.279 2.43 1.949 5.649 3.35 8.747 2.071 2.612-1.096 4.252-3.96 3.401-6.701-.364-1.157-2.126-.67-1.822.487z" fill="#1C1D5D"/><path opacity=".11" d="M538.108 136.876a105.729 105.729 0 00-11.662 21.809c-6.014 15.352-6.864 28.267-7.046 32.957-.547 13.464-.851 21.322 3.826 29.729 5.953 10.722 16.583 16.022 29.885 22.601 6.803 3.35 12.634 5.543 16.582 6.823 0 .365 0 2.985-1.883 4.386-2.065 1.462-5.649.914-7.896-1.889 2.915 1.889 4.252 4.448 3.523 5.971-.608 1.401-2.977 2.132-4.92 1.644-3.766-1.035-3.402-6.335-8.99-11.452-1.275-1.158-2.429-1.95-3.28-2.437-3.584-.366-9.718-1.584-15.792-5.727-1.094-.731-5.224-3.716-10.873-12.244-3.584-5.422-8.018-12.184-10.63-22.358-.85-3.289-4.98-20.834 2.977-39.78.789-1.949 2.854-6.457 6.499-11.696a65.739 65.739 0 0119.68-18.337z" fill="#1C1D5D"/><path d="M541.995 38.492c-6.682 4.752-8.807 11.514-12.938 24.855-5.224 16.814-8.989 28.937-2.551 38.379 6.378 9.26 20.409 12.549 34.926 10.173.911.366 2.187 1.036 3.098 2.255 1.215 1.644 1.032 3.289 1.397 5.909.486 3.472.85 6.396 2.551 7.614 2.794 2.072 8.686-.791 12.087-3.411 5.285-4.021 7.532-9.381 8.443-11.575 9.415-23.332 14.092-34.967 11.541-45.993-.729-3.107-3.098-12.793-11.541-20.895-12.33-11.697-33.893-16.631-47.013-7.31z" fill="#fff"/><path d="M532.763 52.443c-7.41 15.595-4.737 38.622 8.018 50.928 10.933 10.478 29.399 9.503 39.482-1.584.789-.853-.486-2.193-1.276-1.279-9.719 10.661-27.455 11.331-37.598.913-11.541-11.818-14.032-33.383-7.107-48.004.547-1.096-1.033-2.01-1.519-.974z" fill="#1C1D5D"/><path d="M563.559 109.646c-.061 6.335 1.275 12.427 3.887 18.214.486 1.097 2.065.122 1.579-.914-2.49-5.482-3.705-11.269-3.644-17.3 0-1.158-1.822-1.158-1.822 0z" fill="#1C1D5D"/><path d="M567.385 128.287c6.074 3.533 13.788-1.889 18.161-5.97.851-.792-.425-2.071-1.275-1.279-3.645 3.411-10.812 8.711-15.914 5.726-1.093-.609-2.005.975-.972 1.523zM542.724 83.999c9.354 5.97 21.988-2.194 26.604-10.6.547-1.036-1.032-1.95-1.579-.914-4.13 7.554-15.61 15.351-24.114 9.93-.972-.61-1.883.974-.911 1.584z" fill="#1C1D5D"/><path d="M565.564 71.815c1.579.792 2.794 2.071 3.28 3.777.364 1.097 2.125.67 1.761-.487-.668-2.133-2.126-3.9-4.13-4.874-1.033-.487-1.944 1.097-.911 1.584zM548.617 50.067c-2.248 6.335-4.981 12.488-8.261 18.336-.547 1.036.972 1.95 1.579.914 3.341-6.03 6.135-12.305 8.443-18.824.365-1.035-1.397-1.523-1.761-.426z" fill="#1C1D5D"/><path d="M540.599 70.048c1.883 2.62 4.859 4.143 8.078 3.9 1.154-.062 1.154-1.89 0-1.828-2.551.182-4.98-.914-6.499-2.986-.668-.974-2.247-.06-1.579.914zM540.416 60.484a7.79 7.79 0 01.547-4.082h-1.761c.486 1.645.243 3.29-.668 4.752.546.06 1.093.122 1.64.244a6.751 6.751 0 01.182-3.473c.364-1.096-1.397-1.584-1.762-.487-.486 1.462-.546 2.924-.182 4.447.182.792 1.276.853 1.64.244a7.563 7.563 0 00.85-6.153c-.243-.914-1.457-.792-1.761 0-.668 1.645-.79 3.35-.547 5.056.243 1.097 1.944.61 1.822-.548zM563.679 56.646c-.607-1.523-.364-3.107.79-4.203-.486-.122-1.033-.244-1.518-.427.425 1.767.182 3.473-.729 5.057.546.06 1.093.121 1.64.243-.243-1.157-.122-2.193.243-3.29.364-1.096-1.397-1.583-1.762-.487-.486 1.401-.547 2.803-.243 4.265.182.792 1.276.852 1.64.243 1.154-2.01 1.458-4.264.911-6.457-.182-.67-1.032-.853-1.518-.427-1.58 1.584-2.126 3.96-1.276 6.032.547 1.035 2.308.548 1.822-.549zM537.318 50.798c1.033-2.254 3.888-3.046 5.832-1.584.971.67 1.883-.914.911-1.584-2.734-2.01-6.985-.853-8.322 2.254-.486 1.097 1.094 2.01 1.579.914zM533.067 65.48l-.365.365a.886.886 0 000 1.279.88.88 0 001.276 0l.364-.365a.884.884 0 000-1.28.878.878 0 00-1.275 0zM538.411 65.236s0-.061 0 0c0 .121.061.243.122.426v-.06c-.061.182-.061.304-.122.486-.425.488-.85.488-1.275 0-.061-.182-.061-.304-.122-.487v.061c.061-.183.061-.305.122-.487v.06c-.182.427-.122.975.304 1.28.364.244 1.032.122 1.275-.305.182-.426.182-.852-.121-1.218a1.154 1.154 0 00-.79-.305c-.304 0-.607.122-.79.305-.364.365-.303.792-.121 1.218.182.427.85.549 1.275.305.365-.305.426-.853.243-1.28zM535.253 71.632h.243c1.154 0 1.154-1.827 0-1.827h-.243c-1.154 0-1.154 1.827 0 1.827h.243c1.154 0 1.154-1.827 0-1.827h-.243c-1.154 0-1.154 1.827 0 1.827zM561.493 62.616c0-.122 0-.244-.061-.365-.06-.488-.364-.914-.911-.914-.425 0-.972.426-.911.914 0 .121 0 .243.061.365.061.487.364.914.911.914.425 0 .972-.366.911-.914zM565.624 61.641h.364a.936.936 0 00.912-.913.936.936 0 00-.912-.914h-.364a.935.935 0 00-.911.914c0 .487.364.913.911.913zM563.559 64.931v.366c0 .487.425.913.911.913a.935.935 0 00.911-.913v-.366a.935.935 0 00-.911-.914c-.486.061-.911.427-.911.914zM559.793 46.96a7.992 7.992 0 018.564 1.036c.911.73 2.187-.549 1.276-1.28-3.098-2.558-7.168-3.046-10.751-1.279-1.094.487-.122 2.071.911 1.523zM586.761 56.524c.729-.73 1.458-1.4 2.247-2.132l1.458.183c1.093.243 1.944.792 2.733 1.462 1.762 1.523 2.673 3.716 2.855 6.03.365 3.839-1.154 8.956-5.77 8.834-1.154 0-1.154 1.828 0 1.828 7.653.182 9.172-9.991 6.256-15.352-1.458-2.741-4.373-4.873-7.593-4.813-2.49.061-5.041 1.706-4.008 4.448.486 1.035 2.247.609 1.822-.488z" fill="#1C1D5D"/><path d="M544.425 29.233c-1.215.304-5.528 1.4-10.63 5.482-10.994 8.894-14.213 22.906-15.246 27.536-2.004 9.137.122 9.442-2.186 16.874-3.159 10.234-7.654 11.21-11.116 20.164-1.154 2.924-6.196 15.961-.243 26.744 6.074 10.965 20.47 14.133 30.431 13.097 11.48-1.157 24.6-8.711 27.698-20.468.85-3.168.79-6.092.547-8.225-2.855.183-8.018.183-13.849-2.132-1.519-.609-7.228-3.046-12.209-9.016-4.252-5.056-5.771-9.99-6.864-13.585-1.032-3.533-3.341-11.574-1.032-21.626 2.125-9.138 6.863-14.925 7.835-16.082 5.892-6.945 12.816-9.808 16.096-10.905a62.081 62.081 0 007.897 8.468c4.616 4.081 9.536 8.407 16.825 9.808 2.733.548 4.981.548 6.438.426.365-.548 1.458-1.95 3.402-2.498 3.219-.913 5.952 1.523 6.438 1.95 1.883 1.645 2.369 3.716 2.734 4.995.243.914.972 4.02-.486 7.31-.365.793-.911 1.95-2.065 2.925-2.187 1.888-4.92 1.766-5.71 1.705-2.247 2.437-5.345 6.458-7.714 12.001-3.888 9.138-3.402 17.18-3.28 19.373.425 5.482 1.154 15.595 9.232 22.357 10.144 8.529 23.689 4.812 25.269 4.386 15.671-4.508 20.773-20.53 21.198-22.053 4.313-14.437-3.158-27.109-6.803-33.261-5.041-8.59-7.532-7.615-18.769-20.165-16.46-18.397-16.582-26.56-26.361-30.276-5.224-1.95-13.971-2.985-28.002 4.386-2.065-.305-5.527-.61-9.475.305z" fill="#4560F5"/><path d="M564.773 111.534c3.583-.426 7.349-2.924 10.204-5.056.911-.67 0-2.254-.911-1.584-1.336 1.036-2.794 1.888-4.313 2.68-1.579.853-3.219 1.889-5.041 2.133-1.093.121-1.093 1.949.061 1.827z" fill="#1C1D5D"/><path d="M565.32 112.326c2.308-.365 4.373-1.706 6.377-2.863 1.944-1.158 3.706-2.437 5.285-4.082.789-.853-.486-2.132-1.276-1.279-2.612 2.802-7.046 5.848-10.872 6.518-1.154.183-.668 1.95.486 1.706z" fill="#1C1D5D"/><path opacity=".25" d="M602.979 49.884a131.496 131.496 0 0112.209 27.11c4.677 14.559 7.471 23.026 2.855 29.667-4.556 6.579-14.943 9.198-23.629 6.274-8.685-2.924-14.82-11.026-15.367-20.53a40.76 40.76 0 00-.304 16.51c.911 4.69 2.066 10.66 7.107 15.656 6.013 5.97 13.667 6.579 16.461 6.823 2.855.243 10.386.426 17.918-4.265 7.471-4.63 10.448-11.27 11.663-13.95 3.34-7.554 2.854-14.255 2.551-17.667-.79-9.625-4.92-16.326-6.803-19.372-.79-1.28-2.612-4.081-11.359-13.097-5.406-5.666-10.022-10.174-13.302-13.159z" fill="#1C1D5D"/><path opacity=".15" d="M506.341 97.462c-.729 2.498-1.823 7.858.303 13.707 3.463 9.564 14.274 16.448 25.329 14.803 9.051-1.34 16.643-8.163 19.316-17.423 4.252.548 8.504 1.158 12.816 1.706.122 2.071 0 5.239-1.154 8.833-2.065 6.579-6.196 10.417-7.957 12.001-8.079 7.249-17.797 7.798-21.624 7.98-5.041.244-13.241.731-20.773-4.873-6.317-4.63-8.686-10.905-9.354-13.098-3.888-11.818 2.126-21.991 3.098-23.636z" fill="#1C1D5D"/><path opacity=".15" d="M581.963 72.12c-2.309 8.284-5.406 19.432-12.513 25.95-3.037 2.803-10.265 7.859-25.329 6.824 1.822 1.279 5.892 3.716 11.662 4.264 5.771.548 10.205-1.096 12.209-2.01 2.248 6.762 4.556 13.524 6.803 20.225 3.219-1.828 6.439-3.594 9.658-5.422-2.187-3.411-6.317-10.904-6.56-21.078-.364-16.692 10.022-27.718 12.209-29.911.85-.122 3.827-.792 5.71-3.412 2.49-3.533 1.457-8.65-1.398-11.391-.546-.549-2.976-2.864-5.405-2.254-3.888.852-4.374 8.467-7.046 18.214z" fill="#1C1D5D"/></g><g clip-path="url(#clip1)"><path d="M173.175 338.19c11.986 4.928 17.035 3.71 32.183 7.862 27.911 7.641 48.108 21.925 60.704 32.722l-1.831 61.788c1.276 1.495 15.259 17.329 36.456 15.17 14.593-1.495 23.693-10.685 26.135-13.343.388-18.991.055-39.254-1.221-60.57-.777-12.347-1.776-24.306-3.052-35.767-1.886-2.657-4.772-6.477-8.489-10.907-29.187-34.659-64.145-50.05-83.177-58.134-18.977-8.083-30.852-13.122-48.552-14.561-4.717-.388-51.882-3.71-59.484 15.17-7.047 17.219 20.753 48.445 50.328 60.57z" fill="#fff" stroke="#1C1D5D" stroke-width="3" stroke-miterlimit="10"/><path opacity=".16" d="M125.899 271.807c10.543-7.253 33.793 23.641 80.07 52.764 44.501 27.959 67.806 27.516 81.234 54.701 4.107 8.25 8.379 21.316 10.987 34.604 3.218 16.72 3.218 31.005 2.497 41.137-3.607-.167-7.879-.665-12.485-1.883-11.153-2.934-19.088-8.526-23.749-12.457.611-20.984 1.277-41.968 1.887-62.896-7.768-6.312-20.142-15.336-36.844-23.032-31.24-14.451-42.948-8.25-68.695-23.032-5.937-3.378-39.507-22.7-38.73-47.947.222-4.042.277-9.523 3.828-11.959z" fill="#1C1D5D"/><path opacity=".25" d="M120.249 283.844c2.331-1.882 11.375 10.741 33.071 26.188 26.967 19.157 39.952 18.935 69.638 36.763 10.709 6.422 26.19 16.721 43.336 32.389a147.141 147.141 0 01-14.982-7.474c-12.762-7.419-15.869-11.959-25.58-16.832-3.496-1.716-10.043-3.488-23.083-6.865-22.806-5.924-26.079-5.647-34.347-9.357-10.931-4.872-18.089-11.018-21.862-14.34-18.09-15.834-29.132-38.147-26.191-40.472z" fill="#1C1D5D"/><path d="M104.478 256.415a768.138 768.138 0 00-5.66 65c-1.831 42.465.832 66.107 1.276 97.499.388 27.517-.888 66.993-8.767 115.66 4.272 2.823 13.927 8.415 27.577 9.356 12.985.886 22.917-2.879 27.578-4.983a939.541 939.541 0 016.881-75.02c6.436-48.556 16.147-92.295 26.911-130.609 6.659-9.19 13.373-18.326 20.032-27.516-24.249-17.108-48.442-34.161-72.69-51.269-7.657.664-15.37 1.273-23.138 1.882z" fill="#fff" stroke="#1C1D5D" stroke-width="3" stroke-miterlimit="10"/><path d="M189.829 312.635c1.72-2.381 3.385-4.817 5.105-7.198.5 1.882.999 3.765 1.498 5.703-8.212-5.094-16.258-10.464-23.971-16.333-6.436-4.872-12.429-10.243-18.921-15.004-4.106-3.046-8.323-5.925-12.54-8.804-4.051-2.713-8.157-6.145-12.596-8.304-2.386-1.163-5.216-.997-7.768-.997-4.883 0-9.711.166-14.538.443-5.327.277-5.327-8.028 0-8.305 4.827-.221 9.71-.443 14.538-.443 3.107 0 6.325 0 9.266.941 4.606 1.495 8.767 5.094 12.707 7.807 4.55 3.045 9.044 6.09 13.483 9.301 6.881 4.983 13.207 10.575 19.921 15.724 7.879 6.035 16.147 11.572 24.581 16.776 1.776 1.107 2.83 3.82 1.498 5.703-1.72 2.381-3.385 4.817-5.105 7.197-3.052 4.319-10.265.166-7.158-4.207z" fill="#fff"/><path opacity=".14" d="M158.312 265.131a688.33 688.33 0 00-22.473 82.827c-15.481 75.796-15.759 143.232-11.264 196.217a32.718 32.718 0 01-9.988 1.882c-12.485.332-21.474-6.865-24.36-9.357a474.716 474.716 0 007.492-52.929c4.106-48.446-1.055-75.907-1.887-117.099-.5-25.026.444-60.57 7.491-104.033 18.366.831 36.677 1.661 54.989 2.492z" fill="#1C1D5D"/><path opacity=".2" d="M101.492 288.219c1.554 54.535 4.217 110.621 8.101 168.201 1.998 29.731 4.328 59.02 6.881 87.81a28.438 28.438 0 01-12.485-.609c-6.992-1.993-11.32-6.145-13.095-8.083 6.214-35.988 7.768-65.166 8.1-84.71.611-36.984-2.885-55.864-1.886-99.049.666-27.462 2.775-49.719 4.384-63.56z" fill="#1C1D5D"/><path d="M328.44 63.266c-.721-1.66 6.381-5.093 5.66-7.031-.722-1.993-9.544-2.492-15.481 1.882-6.215 4.54-5.827 11.184-9.378 19.71-4.051 9.579-10.432 14.783-20.142 22.756-5.826 4.817-28.577 22.866-61.37 21.87-14.871-.443-27.3-4.707-36.511-9.191 1.276 15.89 2.608 31.835 3.884 47.725 7.546 1.717 17.923 3.211 30.074 2.159 44.169-3.82 72.523-37.814 81.291-48.279 5.326-6.367 12.595-16.166 19.254-29.51 5.216 1.55 13.317 3.322 23.028 2.326 6.88-.665 15.092-2.769 15.037-4.706-.056-2.547-14.205-4.264-14.094-5.15.111-.775 11.264 2.27 14.094-1.882 2.219-3.266-.888-10.63-6.104-13.62-1.609-.886-3.44-1.44-7.99-1.384-12.318 0-20.586 3.82-21.252 2.325z" fill="#fff" stroke="#1C1D5D" stroke-width="3" stroke-miterlimit="10"/><path d="M363.953 72.79c-2.83-.665-6.103.719-8.989.83-2.552.11-5.105-.111-7.602-.61-1.054-.22-.61-1.826.444-1.605 3.163.61 6.326.775 9.544.332 2.442-.332 4.606-1.107 7.047-.553 1.054.221.611 1.827-.444 1.605zM361.624 67.308c-3.33-.664-6.271.72-9.489.886-2.83.166-5.66-.388-8.434-1.107-1.054-.277-.61-1.883.444-1.606 3.607.941 7.102 1.384 10.82.61 2.497-.5 4.606-.942 7.158-.444.999.277.555 1.883-.499 1.661zM330.939 68.97c-2.83 2.989-6.659 4.54-10.765 4.428-1.054-.055-1.054-1.716 0-1.66 3.718.165 7.047-1.219 9.544-3.932.777-.775 1.942.388 1.221 1.163z" fill="#1C1D5D"/><path opacity=".18" d="M363.787 75.502c-.166-1.495-12.262-1.882-23.36-.277-5.993.83-11.819 1.661-17.312 4.264-11.986 5.591-15.925 16.277-22.14 26.077 0 0-13.928 21.759-38.842 33.939-24.748 12.07-52.991 3.986-68.916-2.436l1.831 23.918c14.704 2.99 26.468 2.27 34.014 1.218 42.005-5.924 68.362-38.147 78.849-50.936 8.49-10.354 14.149-19.877 17.59-26.355 5.493 1.993 13.65 4.042 23.36 3.046 6.714-.72 14.649-2.935 14.594-4.873-.111-2.491-13.484-3.986-13.373-4.54.055-.276 3.829.554 8.49-.609 1.831-.443 5.271-1.605 5.215-2.436z" fill="#1C1D5D"/><path opacity=".24" d="M237.773 152.738c-19.809.276-35.124-7.475-43.115-12.402.278 7.087.611 14.118.888 21.205 10.987 1.827 30.241 3.377 52.215-3.654 39.785-12.679 59.317-44.238 64.366-53.041-1.609 2.879-27.744 47.283-74.354 47.892z" fill="#1C1D5D"/><path opacity=".19" d="M344.921 84.582c-11.875.056-19.865-1.716-20.032-.885-.111.664 4.828 2.657 10.044 3.654 15.148 2.879 29.02-3.378 28.854-4.263-.167-.61-6.382 1.439-18.866 1.494z" fill="#1C1D5D"/><path d="M337.206 39.182c8.642 0 15.648-6.99 15.648-15.613s-7.006-15.613-15.648-15.613-15.647 6.99-15.647 15.613 7.005 15.613 15.647 15.613z" fill="#EC615B"/><path d="M334.043 40.179c9.807 0 17.757-7.957 17.757-17.773 0-9.815-7.95-17.772-17.757-17.772-9.806 0-17.756 7.957-17.756 17.772 0 9.816 7.95 17.773 17.756 17.773z" stroke="#1C1D5D" stroke-width="2" stroke-miterlimit="10"/><path d="M336.485 12.662c-3.496-.222-12.485 3.156-9.156 8.194 1.943 2.934 5.716.996 8.435 1.716 3.495.942 3.107 5.15.943 7.198-2.275 2.104-5.493 1.771-7.657-.166-.777-.72-1.998.443-1.166 1.162 4.384 3.987 12.208 1.717 12.208-4.761 0-2.934-1.998-4.817-4.772-5.15-2.053-.276-7.824 1.274-6.492-2.933.887-2.88 5.16-3.765 7.712-3.6 1.055.056 1.055-1.605-.055-1.66z" fill="#1C1D5D"/><path d="M334.599 13.437c.166-1.827.333-3.599.499-5.426.111-1.052-1.554-1.052-1.665 0-.166 1.827-.333 3.599-.499 5.426-.111 1.052 1.554 1.052 1.665 0zM333.489 33.258a92.84 92.84 0 01.444 3.876c.111 1.051 1.775 1.051 1.664 0a92.84 92.84 0 01-.444-3.876c-.111-1.052-1.775-1.052-1.664 0z" fill="#1C1D5D"/><path d="M174.46 109.331c1.831.111 7.99.388 15.869 2.325 4.495 1.108 8.046 2.381 10.099 3.212 3.718 7.529 8.49 19.156 10.266 33.883 2.552 20.984-2.553 34.493-6.049 55.366-2.386 14.34-4.328 35.102-1.664 61.346-5.66 5.149-20.42 17.163-42.837 20.264-31.739 4.429-55.044-12.292-59.872-15.89-2.94-18.16-5.715-36.819-8.212-55.92a1805.132 1805.132 0 01-9.877-93.679c15.37-14.45 28.687-18.326 38.065-19.101 18.034-1.55 34.347 7.087 54.212 8.194z" fill="#EC615B"/><path opacity=".17" d="M149.546 123.283c-3.441 3.544-8.157 8.914-12.374 16.223-20.253 35.102-7.713 76.072-2.109 94.232 3.884 12.735 11.264 31.393 25.802 51.546a77.88 77.88 0 01-20.53.72c-18.977-1.883-32.738-10.464-39.619-15.558-5.216-29.565-9.655-61.013-13.095-94.233a1368.682 1368.682 0 01-4.606-56.805c2.164-2.104 5.494-4.928 9.933-7.751 7.158-4.596 18.422-11.738 31.129-9.523 16.202 2.768 24.414 18.935 25.469 21.149z" fill="#1C1D5D"/><path opacity=".11" d="M85.51 132.086c2.83 7.918 7.214 20.541 11.653 36.376 13.206 46.452 12.263 66.383 28.299 90.357 4.883 7.308 13.095 17.662 26.912 27.904a91.726 91.726 0 01-27.966-4.595c-10.21-3.377-18.034-7.917-23.361-11.627-4.328-23.143-8.156-48.113-10.986-74.855-2.275-22.257-3.773-43.517-4.55-63.56z" fill="#1C1D5D"/><path d="M111.257 238.666c1.165-2.16-.056-5.371-1.887-7.087-3.385-3.212-9.544-1.994-12.318 1.495-.389.498-2.275 2.823-1.498 4.816 1.664 4.042 13.317 5.094 15.703.776z" fill="#fff" stroke="#1C1D5D" stroke-width="3" stroke-miterlimit="10"/><path d="M95.608 110.826c-8.268 5.702-18.478 14.007-28.299 25.634-10.71 12.624-17.7 25.358-22.362 36.043a147.043 147.043 0 00-7.824 23.42c4.939 11.35 14.205 28.071 31.296 42.743a113.983 113.983 0 0017.867 12.623 98.548 98.548 0 0012.485 11.682c3.551 2.824 8.379 6.589 9.488 5.648.888-.776-.665-4.596-3.051-7.253-2.83-3.101-6.326-4.042-6.27-4.208.055-.166 3.162.387 6.048 2.602 3.329 2.602 3.162 5.038 4.827 5.426 3.496.83 11.542-7.585 10.321-16.112-.999-7.142-8.046-10.962-10.432-12.291-6.548-3.599-12.929-2.934-15.26-2.602-8.322-12.9-16.646-25.745-24.969-38.645a93.71 93.71 0 008.545-7.807c3.829-3.931 14.594-15.115 19.754-30.451 6.936-20.596.555-39.587-2.164-46.452z" fill="#fff" stroke="#1C1D5D" stroke-width="3" stroke-miterlimit="10"/><path d="M118.804 256.106c-2.054-4.54-5.549-8.084-10.099-10.077-.999-.443-.111-1.882.832-1.439a20.98 20.98 0 0110.709 10.685c.444.942-.999 1.772-1.442.831zM112.7 263.801c1.72-5.204-3.33-10.574-7.491-12.955-.944-.554-.111-1.993.832-1.44 4.828 2.769 10.265 8.859 8.268 14.838-.333.997-1.942.554-1.609-.443z" fill="#1C1D5D"/><path opacity=".18" d="M98.162 119.961a310.825 310.825 0 00-26.08 30.562c-14.093 18.769-21.085 28.181-21.584 38.092-.888 18.381 12.929 41.358 31.129 50.106 5.271 2.547 18.977 7.696 26.856 17.772 2.275 2.88 4.606 6.866 3.773 7.752-.721.719-3.385-1.163-4.272-.277-1.055 1.052 1.498 4.263.776 4.983-.887.886-5.826-2.27-10.82-6.257a97.234 97.234 0 01-11.32-10.796c-5.27-2.99-10.875-6.755-16.59-11.516-18.145-15.115-27.91-32.777-33.127-44.846a157.786 157.786 0 016.27-19.046c9.212-22.866 21.53-37.649 25.58-42.3 5.827-6.754 14.594-15.558 26.857-24.029.888 3.267 1.72 6.534 2.552 9.8z" fill="#1C1D5D"/><path opacity=".21" d="M44.95 203.619c5.326 6.865 8.045 11.239 10.265 14.506 4.217 6.09 10.487 11.904 23.083 23.53a577.43 577.43 0 0018.089 16.056c7.879 6.81 11.708 10.299 11.541 10.52-.222.277-7.823-5.481-22.86-17.274-2.83-1.661-6.826-4.097-11.32-7.53-25.858-19.766-37.455-48.168-36.4-48.833.444-.221 2.83 2.824 7.602 9.025z" fill="#1C1D5D"/><path d="M186.058 18.53c16.313 13.344 15.648 40.418 9.266 57.913-4.05 11.074-10.542 18.659-14.815 22.867l2.664 19.267c-4.717 2.159-11.487 4.429-19.754 4.817-21.641 1.052-37.122-11.572-41.339-15.226 3.829-12.79 7.657-25.579 11.486-38.424.499-3.599 1.332-9.135 2.22-15.89 2.386-17.606 2.275-18.547 3.329-21.426.444-1.163 7.102-18.05 22.584-21.04 12.484-2.325 22.805 5.87 24.359 7.143z" fill="#fff" stroke="#1C1D5D" stroke-width="3" stroke-miterlimit="10"/><path d="M199.485 63.598a48.551 48.551 0 011.276 16.5c-.444 4.65-1.22 12.734-7.047 20.54-6.27 8.416-14.704 11.627-18.311 12.79.278-.942.611-2.104.777-3.488.167-1.44.111-2.769 0-3.765-3.829 2.104-7.713 4.152-11.541 6.256-9.711-8.914-12.929-17.108-14.039-23.032-.888-4.65-1.443-13.177-3.496-28.79-.388-2.769-1.109-7.752-4.272-9.025-1.498-.609-3.496-.332-4.772.775-3.829 3.211.055 12.513-.777 12.79-.832.276-7.546-9.08-5.271-19.766 1.165-5.537 4.383-9.357 6.27-11.24a368.367 368.367 0 0014.038 20.541c3.274 4.485 6.548 8.693 9.766 12.79 1.221.664 3.052 1.384 5.161 1.218 1.664-.166 2.219-.72 3.44-1.052 4.55-1.273 6.991 4.097 11.486 3.377 3.662-.609 3.995-4.54 8.046-4.65 1.942-.056 2.718.83 4.716.443 2.109-.61 3.607-2.049 4.55-3.212z" fill="#1C1D5D" stroke="#1C1D5D" stroke-width="3" stroke-miterlimit="10"/><path d="M180.62 47.875a127.83 127.83 0 012.663 19.433c.056.665-.721.997-1.276.72-2.275-1.163-4.605-2.38-6.88-3.543-.944-.499-.111-1.938.832-1.44 2.275 1.163 4.605 2.38 6.88 3.543-.443.222-.832.499-1.276.72-.388-6.422-1.221-12.734-2.608-18.99-.166-1.052 1.443-1.495 1.665-.443z" fill="#1C1D5D"/><path d="M189.498 54.519c-.705 0-1.276-1.438-1.276-3.212 0-1.773.571-3.21 1.276-3.21.705 0 1.276 1.437 1.276 3.21 0 1.774-.571 3.212-1.276 3.212zM167.968 54.519c-.95 0-1.72-1.438-1.72-3.212 0-1.773.77-3.21 1.72-3.21s1.72 1.437 1.72 3.21c0 1.774-.77 3.212-1.72 3.212z" fill="#1C1D5D" stroke="#1C1D5D" stroke-width="3" stroke-miterlimit="10"/><path d="M192.605 45.051c-1.054-1.938-3.384-1.495-5.105-.886-.998.332-1.442-1.273-.444-1.605 2.442-.886 5.549-.942 6.992 1.66.499.886-.943 1.772-1.443.831zM171.63 42.781c-2.608-2.491-6.603-2.27-8.822.72-.61.83-2.053 0-1.443-.83 2.83-3.82 7.935-4.32 11.431-1.053.776.72-.389 1.883-1.166 1.163z" fill="#1C1D5D"/><path d="M212.359 34.864c-23.361 1.384-46.666 3.322-69.86 5.869-3.163.332-3.163-4.651 0-4.983 23.25-2.547 46.555-4.485 69.86-5.87 3.218-.165 3.218 4.818 0 4.984z" fill="#1C1D5D"/><path d="M197.266 31.431c-.389-3.599-1.831-12.845-8.934-20.375-9.267-9.8-26.412-13.896-39.73-5.592-10.431 6.534-16.036 19.157-14.149 32.002 20.919-1.993 41.838-3.986 62.813-6.035z" fill="#5222D0"/><path opacity=".69" d="M167.746 2.918c2.719 2.27 2.719 7.087 1.776 12.18-1.054 5.592-3.773 12.402-7.824 19.434-9.1 1.052-18.2 2.159-27.3 3.21-.388-1.992-.777-4.871-.444-8.304 0 0 .61-6.312 3.94-12.014 6.658-11.406 24.082-19.379 29.852-14.506z" fill="#3A1DA3"/><path opacity=".24" d="M139.225 67.917c2.053 1.108 4.106.83 4.827.665-1.775 3.377-7.269 14.782-4.605 29.51 2.552 14.007 10.876 22.478 13.761 25.191-3.607-.72-7.713-1.882-12.152-3.654a68.469 68.469 0 01-19.032-11.682l13.317-46.674c0 .277.222 4.706 3.884 6.644z" fill="#1C1D5D"/><path opacity=".19" d="M159.756 38.906c-.666 2.823-1.221 7.086-.555 12.07 1.165 8.415 5.216 14.228 7.324 16.941-1.276-.387-2.552-.83-3.828-1.218a301.425 301.425 0 01-7.713-9.8 353.042 353.042 0 01-11.652-16.443c5.493-.498 10.931-1.052 16.424-1.55z" fill="#1C1D5D"/></g><defs><clipPath id="clip0"><path fill="#fff" d="M0 0h656v378H0z"/></clipPath><clipPath id="clip1"><path fill="#fff" transform="matrix(-1 0 0 1 365 1)" d="M0 0h355v377H0z"/></clipPath></defs></svg>