<svg width="28" height="28" fill="none" xmlns="http://www.w3.org/2000/svg"><path d="M8.845 16.19c.58.831 1.245 1.567 2.104 2.087.974.59 2.022.768 3.127.714.516-.026.672-.17.696-.715.016-.373.056-.746.23-1.082.17-.33.43-.392.728-.187.148.104.274.233.392.372.291.337.573.685.874 1.01.379.41.828.65 1.392.602h2.185c.351-.024.534-.481.332-.899a4.528 4.528 0 00-.526-.801c-.446-.57-.972-1.054-1.47-1.568-.448-.464-.476-.733-.116-1.269.394-.585.817-1.146 1.214-1.728.37-.544.75-1.086.944-1.736.125-.415.015-.598-.385-.671-.07-.012-.141-.012-.211-.012l-2.377-.004c-.293-.004-.454.131-.558.406-.14.372-.284.744-.45 1.102-.378.814-.8 1.6-1.391 2.265-.13.147-.276.333-.494.257-.272-.106-.352-.582-.348-.743l-.002-2.909c-.052-.414-.14-.6-.53-.681h-2.468c-.329 0-.495.136-.671.354-.1.127-.132.208.077.25.409.082.641.364.702.799.098.696.09 1.395.034 2.094-.016.204-.05.407-.125.598-.12.3-.313.36-.566.175-.228-.166-.39-.401-.548-.637a14.399 14.399 0 01-1.45-2.85c-.11-.29-.303-.465-.593-.47a56.758 56.758 0 00-2.14 0c-.428.009-.556.23-.38.643.775 1.831 1.64 3.612 2.768 5.233z" fill="#fff"/><circle opacity=".2" cx="14" cy="14" r="13.5" stroke="#fff"/></svg>