<svg width="24" height="24" viewBox="0 0 24 24" fill="none" xmlns="http://www.w3.org/2000/svg">
<circle cx="12" cy="12" r="12" fill="#1C1D5D"/>
<g clip-path="url(#clip0)">
<path d="M12.2117 13.3814C12.2117 12.3034 11.699 11.5066 10.6397 11.2079C11.4126 10.8399 11.8157 10.2822 11.8157 9.41477C11.8157 7.70444 10.537 7.28735 9.06174 7.28735H4.99999V15.8746H9.17549C10.7412 15.8746 12.2117 15.1262 12.2117 13.3814ZM6.89349 8.75327H8.67033C9.35341 8.75327 9.96824 8.9446 9.96824 9.73444C9.96824 10.4636 9.48991 10.757 8.81324 10.757H6.89349V8.75327ZM6.89291 14.4163V12.0514H8.95674C9.79033 12.0514 10.3177 12.3979 10.3177 13.2776C10.3177 14.145 9.68824 14.4163 8.91766 14.4163H6.89291Z" fill="white"/>
<path d="M15.9643 16.0374C17.4542 16.0374 18.419 15.3683 18.8833 13.9461H17.3713C17.2086 14.4769 16.5377 14.7575 16.0174 14.7575C15.0135 14.7575 14.4862 14.1713 14.4862 13.1749H18.9854C18.993 13.074 19 12.9649 19 12.8559C19 11.0166 17.9208 9.48303 15.9643 9.48303C14.0632 9.48303 12.7729 10.9075 12.7729 12.7736C12.7723 14.7091 13.995 16.0374 15.9643 16.0374ZM15.9107 10.7722C16.7711 10.7722 17.2039 11.2762 17.2762 12.1004H14.4885C14.5451 11.2832 15.0893 10.7722 15.9107 10.7722Z" fill="white"/>
<path d="M14.1391 7.73828H17.6321V8.58412H14.1391V7.73828Z" fill="white"/>
</g>
<defs>
<clipPath id="clip0">
<rect width="14" height="14" fill="white" transform="translate(5 4.66235)"/>
</clipPath>
</defs>
</svg>
