<svg width="24" height="24" viewBox="0 0 24 24" fill="none" xmlns="http://www.w3.org/2000/svg">
<circle cx="12" cy="12" r="12" fill="#1C1D5D"/>
<path fill-rule="evenodd" clip-rule="evenodd" d="M13.6017 16.2646L8.57233 16.267L8.5719 15.1708L13.601 15.1682L13.6017 16.2646ZM17.0001 10.0567L16.1397 5L15.0813 5.18742L15.9415 10.2441L17.0001 10.0567ZM13.7226 13.7627L8.71473 13.2918L8.61613 14.3836L13.6241 14.854L13.7226 13.7627ZM14.053 12.3323L9.19638 11L8.91734 12.0585L13.7743 13.391L14.053 12.3323ZM14.687 11.0785L10.3552 8.47113L9.80923 9.415L14.1413 12.0225L14.687 11.0785ZM15.7492 10.3107L12.9157 6.07025L12.0281 6.68779L14.8618 10.9281L15.7492 10.3107Z" fill="white"/>
<path fill-rule="evenodd" clip-rule="evenodd" d="M14.4557 12.6588V17.1399H7.85917V12.6588H7V18H15.3105V12.6588H14.4557Z" fill="white"/>
</svg>
