<svg width="258" height="199" viewBox="0 0 258 199" fill="none" xmlns="http://www.w3.org/2000/svg">
<g filter="url(#filter0_d)">
<path d="M26.8537 176.103V185.531L21.4214 190.589H9.6823L4 185.906V158.62L9.6823 153.062H21.4214L26.8537 158.495V167.424H18.1117V161.804H12.8043V181.785H18.1117V176.103H26.8537ZM53.3784 158.495V185.531L47.9461 190.589H36.2075L30.5252 185.906V158.62L36.2075 153.062H47.9461L53.3784 158.495ZM44.6369 161.867H39.3295V181.848H44.6369V161.867ZM82.9588 158.432V185.469L77.5265 190.589H57.4208V181.848H60.1056V161.742H57.4208V153H77.5265L82.9588 158.432ZM74.155 161.742H68.8472V181.723H74.155V161.742ZM111.682 153.062V164.551H102.941V161.804H97.6332V167.424H107.124V176.228C105.917 176.228 104.959 176.228 104.252 176.228C103.586 176.228 102.941 176.228 102.316 176.228C101.733 176.186 101.088 176.165 100.38 176.165C99.7143 176.165 98.7985 176.165 97.6332 176.165V181.785H102.941V179.1H111.682V190.589H86.0191V181.785H88.8911V161.804H86.0191V153.062H111.682ZM120.597 153.062H132.274L137.706 158.495V164.614H128.964V161.867H123.656V167.486H131.836L137.706 173.481V185.469L132.274 190.589H120.597L114.915 185.906V179.1H123.656V181.848H128.964V176.228L122.158 176.165L114.915 170.234V158.557L120.597 153.062ZM155.991 190.589H141.63V181.848H144.44V161.804H141.63V153.062H167.293V164.551H158.552V161.804H153.244V167.424H162.735V176.228C161.528 176.228 160.571 176.228 159.863 176.228C159.197 176.228 158.552 176.228 157.927 176.228C157.345 176.186 156.699 176.165 155.991 176.165C155.326 176.165 154.41 176.165 153.244 176.165V181.848H155.991V190.589ZM192.956 158.495V185.531L187.524 190.589H175.784L170.102 185.906V158.62L175.784 153.062H187.524L192.956 158.495ZM184.214 161.867H178.906V181.848H184.214V161.867ZM208.612 161.867V167.486H213.856V161.867H208.612ZM208.612 176.228V190.589H196.998V181.848H199.808V161.867H196.998V153.062H215.917L222.661 158.245V167.549L217.416 171.982L222.661 176.228V181.848L225.596 181.91V190.589H213.856V176.228H208.612ZM254 158.432V185.469L248.568 190.589H228.462V181.848H231.147V161.742H228.462V153H248.568L254 158.432ZM245.196 161.742H239.889V181.723H245.196V161.742Z" fill="url(#paint0_linear)"/>
</g>
<g filter="url(#filter1_d)">
<path d="M128.65 135C164.548 135 193.65 104.779 193.65 67.4999C193.65 30.2207 164.548 0 128.65 0C92.7514 0 63.6499 30.2207 63.6499 67.4999C63.6499 104.779 92.7514 135 128.65 135Z" fill="#5870F2"/>
</g>
<path d="M151.363 46.9647V46.9644C143.436 35.198 139.341 23.4809 111.907 55.4029C108.548 59.311 102.717 56.3636 99.5244 54.2953C101.604 56.6478 106.354 62.2089 109.947 64.4446C113.54 66.68 116.609 63.9468 118.452 62.1624C141.497 39.8485 141.842 37.1326 151.363 46.9647Z" fill="white"/>
<path d="M90.6369 105.765V105.765C79.1319 97.463 67.5525 92.9928 100.342 66.6012C104.356 63.3702 101.598 57.4471 99.6338 54.1896C101.918 56.3436 107.323 61.27 109.442 64.9338C111.56 68.5975 108.73 71.5764 106.887 73.3609C83.8423 95.6748 81.1165 95.9329 90.6369 105.765Z" fill="white"/>
<path d="M166.521 29.2319L166.521 29.2316C178.026 37.5338 189.605 42.004 156.816 68.3956C152.802 71.6265 155.56 77.5496 157.524 80.8072C155.24 78.6532 149.835 73.7267 147.716 70.063C145.597 66.3993 148.428 63.4203 150.271 61.6359C173.316 39.322 176.041 39.0639 166.521 29.2319Z" fill="white"/>
<path d="M105.795 88.0324L105.794 88.0327C113.722 99.799 117.817 111.516 145.251 79.5942C148.609 75.6861 154.441 78.6335 157.633 80.7018C155.554 78.3493 150.804 72.7882 147.211 70.5525C143.617 68.3171 140.548 71.0503 138.706 72.8347C115.661 95.1486 115.315 97.8648 105.795 88.0324Z" fill="white"/>
<defs>
<filter id="filter0_d" x="0" y="153" width="258" height="45.5893" filterUnits="userSpaceOnUse" color-interpolation-filters="sRGB">
<feFlood flood-opacity="0" result="BackgroundImageFix"/>
<feColorMatrix in="SourceAlpha" type="matrix" values="0 0 0 0 0 0 0 0 0 0 0 0 0 0 0 0 0 0 127 0"/>
<feOffset dy="4"/>
<feGaussianBlur stdDeviation="2"/>
<feColorMatrix type="matrix" values="0 0 0 0 0 0 0 0 0 0 0 0 0 0 0 0 0 0 0.25 0"/>
<feBlend mode="normal" in2="BackgroundImageFix" result="effect1_dropShadow"/>
<feBlend mode="normal" in="SourceGraphic" in2="effect1_dropShadow" result="shape"/>
</filter>
<filter id="filter1_d" x="59.6499" y="0" width="138" height="143" filterUnits="userSpaceOnUse" color-interpolation-filters="sRGB">
<feFlood flood-opacity="0" result="BackgroundImageFix"/>
<feColorMatrix in="SourceAlpha" type="matrix" values="0 0 0 0 0 0 0 0 0 0 0 0 0 0 0 0 0 0 127 0"/>
<feOffset dy="4"/>
<feGaussianBlur stdDeviation="2"/>
<feColorMatrix type="matrix" values="0 0 0 0 0 0 0 0 0 0 0 0 0 0 0 0 0 0 0.25 0"/>
<feBlend mode="normal" in2="BackgroundImageFix" result="effect1_dropShadow"/>
<feBlend mode="normal" in="SourceGraphic" in2="effect1_dropShadow" result="shape"/>
</filter>
<linearGradient id="paint0_linear" x1="129.288" y1="143.532" x2="129.288" y2="205.973" gradientUnits="userSpaceOnUse">
<stop stop-color="#5870F2"/>
<stop offset="0.9999" stop-color="#001CB4"/>
<stop offset="1" stop-color="#5870F2" stop-opacity="0"/>
</linearGradient>
</defs>
</svg>
