<svg width="28" height="28" viewBox="0 0 28 28" fill="none" xmlns="http://www.w3.org/2000/svg">
<path d="M8.84549 16.1895C9.42454 17.0213 10.0899 17.7569 10.9495 18.2773C11.9229 18.8671 12.9709 19.045 14.0762 18.9908C14.5925 18.9645 14.7478 18.8218 14.7717 18.2763C14.7877 17.9026 14.8284 17.5299 15.0019 17.194C15.1725 16.8647 15.4313 16.8024 15.7298 17.0073C15.8784 17.1108 16.0036 17.2404 16.1221 17.379C16.413 17.7156 16.6947 18.0643 16.996 18.3899C17.3749 18.7989 17.8243 19.0399 18.3881 18.9908L20.5726 18.9918C20.9242 18.9665 21.1071 18.5096 20.9052 18.0923C20.7631 17.801 20.5765 17.5419 20.3794 17.2905C19.9329 16.7219 19.4069 16.2374 18.9095 15.7231C18.4612 15.2591 18.4328 14.9897 18.7929 14.4543C19.187 13.8694 19.6097 13.3077 20.0068 12.726C20.3773 12.1825 20.7575 11.6398 20.9515 10.9898C21.0758 10.5749 20.9659 10.392 20.5661 10.3187C20.4969 10.3067 20.4249 10.3067 20.3548 10.3067L17.9778 10.3035C17.685 10.2986 17.5239 10.4342 17.4205 10.7093C17.2802 11.0813 17.1362 11.453 16.9692 11.8107C16.5922 12.6246 16.1703 13.4112 15.5789 14.0764C15.4482 14.2229 15.3031 14.4089 15.0853 14.3326C14.8133 14.2271 14.7328 13.751 14.7374 13.5903L14.7354 10.6813C14.6826 10.2666 14.5951 10.0807 14.2058 10H11.7369C11.4082 10 11.2423 10.1359 11.0659 10.3538C10.9655 10.4806 10.934 10.5618 11.1427 10.604C11.552 10.6863 11.7843 10.9677 11.8449 11.4029C11.9426 12.0992 11.9359 12.7983 11.8792 13.4966C11.863 13.7005 11.8299 13.9037 11.7538 14.0946C11.6346 14.3949 11.4411 14.4553 11.1881 14.2705C10.9599 14.1036 10.7988 13.8686 10.6403 13.6325C10.0481 12.7451 9.57614 11.7888 9.19035 10.7839C9.07949 10.4934 8.88715 10.3177 8.59716 10.3126C7.88436 10.3005 7.17082 10.2988 6.45709 10.3136C6.0287 10.3216 5.90073 10.5427 6.07613 10.9557C6.85236 12.7873 7.71676 14.5677 8.84549 16.1895Z" fill="white"/>
<circle opacity="0.2" cx="14" cy="14" r="13.5" stroke="white"/>
</svg>
